SplineFontDB: 3.0
FontName: GESans-Regular
FullName: GE Sans
FamilyName: GE Sans
Weight: Book
Copyright: Designed by Paul van der Laan, Pieter van Rosmalen & Mike Abbink 2013. Produced by Bold Monday. FOR EXCLUSIVE USE BY GENERAL ELECTRIC COMPANY AND ITS AFFILIATES ONLY.
Version: 1.000
ItalicAngle: 0
UnderlinePosition: -352
UnderlineWidth: 124
Ascent: 1588
Descent: 460
InvalidEm: 0
sfntRevision: 0x00010000
LayerCount: 2
Layer: 0 1 "Back" 1
Layer: 1 1 "Zeichen" 0
XUID: [1021 594 -2046628650 20719]
StyleMap: 0x0040
FSType: 0
OS2Version: 3
OS2_WeightWidthSlopeOnly: 0
OS2_UseTypoMetrics: 0
CreationTime: 1390222140
ModificationTime: 1489420323
PfmFamily: 17
TTFWeight: 400
TTFWidth: 5
LineGap: 409
VLineGap: 0
Panose: 2 11 5 3 6 0 0 0 0 3
OS2TypoAscent: 1588
OS2TypoAOffset: 0
OS2TypoDescent: -460
OS2TypoDOffset: 0
OS2TypoLinegap: 409
OS2WinAscent: 1728
OS2WinAOffset: 0
OS2WinDescent: 420
OS2WinDOffset: 0
HheadAscent: 1588
HheadAOffset: 0
HheadDescent: -460
HheadDOffset: 0
OS2SubXSize: 1434
OS2SubYSize: 1331
OS2SubXOff: 0
OS2SubYOff: 287
OS2SupXSize: 1434
OS2SupYSize: 1331
OS2SupXOff: 0
OS2SupYOff: 977
OS2StrikeYSize: 102
OS2StrikeYPos: 512
OS2CapHeight: 1324
OS2XHeight: 960
OS2Vendor: 'BOLD'
OS2CodePages: 20000093.00000000
OS2UnicodeRanges: a000006f.4000204b.00000000.00000000
Lookup: 1 0 0 "'aalt' Access All Alternates in Latin lookup 0" { "'aalt' Access All Alternates in Latin lookup 0 subtable"  } ['aalt' ('latn' <'AZE ' 'CRT ' 'NLD ' 'TRK ' 'dflt' > ) ]
Lookup: 1 0 0 "'locl' Localized Forms in Latin lookup 1" { "'locl' Localized Forms in Latin lookup 1 subtable"  } ['locl' ('latn' <'AZE ' 'CRT ' 'TRK ' > ) ]
Lookup: 4 0 0 "'dlig' optionale Ligaturen in Latin lookup 2" { "'dlig' optionale Ligaturen in Latin lookup 2 subtable"  } ['dlig' ('latn' <'AZE ' 'CRT ' 'NLD ' 'TRK ' 'dflt' > ) ]
Lookup: 4 0 1 "'liga' Standard Ligatures in Latin lookup 3" { "'liga' Standard Ligatures in Latin lookup 3 subtable"  } ['liga' ('latn' <'AZE ' 'CRT ' 'NLD ' 'TRK ' 'dflt' > ) ]

StartChar: .notdef
Encoding: 65536 -1 0
Width: 430
Flags: W
LayerCount: 2
Fore
SplineSet
136 -380 m 2,0,1
 116 -380 116 -380 108 -372 c 128,-1,2
 100 -364 100 -364 100 -344 c 2,3,-1
 100 1424 l 2,4,5
 100 1444 100 1444 108 1452 c 128,-1,6
 116 1460 116 1460 136 1460 c 2,7,-1
 294 1460 l 2,8,9
 314 1460 314 1460 322 1452 c 128,-1,10
 330 1444 330 1444 330 1424 c 2,11,-1
 330 -344 l 2,12,13
 330 -364 330 -364 322 -372 c 128,-1,14
 314 -380 314 -380 294 -380 c 2,15,-1
 136 -380 l 2,0,1
EndSplineSet
Validated: 1
EndChar

StartChar: exclam
Encoding: 33 33 4
Width: 604
GlyphClass: 2
Flags: W
LayerCount: 2
Fore
SplineSet
300 360 m 2,0,1
 280 360 280 360 272 368 c 128,-1,2
 264 376 264 376 262 396 c 2,3,-1
 194 1288 l 2,4,5
 191 1324 191 1324 228 1324 c 2,6,-1
 376 1324 l 2,7,8
 413 1324 413 1324 410 1288 c 2,9,-1
 342 396 l 2,10,11
 340 376 340 376 332 368 c 128,-1,12
 324 360 324 360 304 360 c 2,13,-1
 300 360 l 2,0,1
418 102 m 256,14,15
 418 52 418 52 386.5 18 c 128,-1,16
 355 -16 355 -16 302 -16 c 256,17,18
 249 -16 249 -16 217.5 18 c 128,-1,19
 186 52 186 52 186 102 c 256,20,21
 186 152 186 152 217.5 186 c 128,-1,22
 249 220 249 220 302 220 c 256,23,24
 355 220 355 220 386.5 186 c 128,-1,25
 418 152 418 152 418 102 c 256,14,15
EndSplineSet
Validated: 1
EndChar

StartChar: numbersign
Encoding: 35 35 6
Width: 1064
GlyphClass: 2
Flags: W
LayerCount: 2
Fore
SplineSet
596 0 m 2,0,1
 560 0 560 0 566 36 c 2,2,-1
 616 358 l 1,3,-1
 350 358 l 1,4,-1
 300 36 l 2,5,6
 297 16 297 16 287.5 8 c 128,-1,7
 278 0 278 0 258 0 c 2,8,-1
 196 0 l 2,9,10
 160 0 160 0 166 36 c 2,11,-1
 216 358 l 1,12,-1
 76 358 l 2,13,14
 56 358 56 358 48 366 c 128,-1,15
 40 374 40 374 40 394 c 2,16,-1
 40 444 l 2,17,18
 40 464 40 464 48 472 c 128,-1,19
 56 480 56 480 76 480 c 2,20,-1
 236 480 l 1,21,-1
 294 844 l 1,22,-1
 150 844 l 2,23,24
 130 844 130 844 122 852 c 128,-1,25
 114 860 114 860 114 880 c 2,26,-1
 114 930 l 2,27,28
 114 950 114 950 122 958 c 128,-1,29
 130 966 130 966 150 966 c 2,30,-1
 314 966 l 1,31,-1
 364 1288 l 2,32,33
 367 1308 367 1308 376.5 1316 c 128,-1,34
 386 1324 386 1324 406 1324 c 2,35,-1
 468 1324 l 2,36,37
 504 1324 504 1324 498 1288 c 2,38,-1
 448 966 l 1,39,-1
 714 966 l 1,40,-1
 764 1288 l 2,41,42
 767 1308 767 1308 776.5 1316 c 128,-1,43
 786 1324 786 1324 806 1324 c 2,44,-1
 868 1324 l 2,45,46
 904 1324 904 1324 898 1288 c 2,47,-1
 848 966 l 1,48,-1
 988 966 l 2,49,50
 1008 966 1008 966 1016 958 c 128,-1,51
 1024 950 1024 950 1024 930 c 2,52,-1
 1024 880 l 2,53,54
 1024 860 1024 860 1016 852 c 128,-1,55
 1008 844 1008 844 988 844 c 2,56,-1
 828 844 l 1,57,-1
 770 480 l 1,58,-1
 914 480 l 2,59,60
 934 480 934 480 942 472 c 128,-1,61
 950 464 950 464 950 444 c 2,62,-1
 950 394 l 2,63,64
 950 374 950 374 942 366 c 128,-1,65
 934 358 934 358 914 358 c 2,66,-1
 750 358 l 1,67,-1
 700 36 l 2,68,69
 697 16 697 16 687.5 8 c 128,-1,70
 678 0 678 0 658 0 c 2,71,-1
 596 0 l 2,0,1
428 844 m 1,72,-1
 370 480 l 1,73,-1
 636 480 l 1,74,-1
 694 844 l 1,75,-1
 428 844 l 1,72,-1
EndSplineSet
Validated: 1
EndChar

StartChar: dollar
Encoding: 36 36 7
Width: 1064
GlyphClass: 2
Flags: W
LayerCount: 2
Fore
SplineSet
512 -128 m 2,0,1
 492 -128 492 -128 484 -120 c 128,-1,2
 476 -112 476 -112 476 -92 c 2,3,-1
 476 20 l 1,4,5
 354 26 354 26 264 61.5 c 128,-1,6
 174 97 174 97 118 144 c 0,7,8
 91 168 91 168 114 194 c 2,9,-1
 154 246 l 2,10,11
 168 263 168 263 179.5 264 c 128,-1,12
 191 265 191 265 206 254 c 0,13,14
 260 212 260 212 326.5 185 c 128,-1,15
 393 158 393 158 476 152 c 1,16,-1
 476 602 l 1,17,18
 411 622 411 622 346.5 648.5 c 128,-1,19
 282 675 282 675 230.5 715.5 c 128,-1,20
 179 756 179 756 146.5 814 c 128,-1,21
 114 872 114 872 114 956 c 0,22,23
 114 1028 114 1028 139.5 1087 c 128,-1,24
 165 1146 165 1146 212.5 1190 c 128,-1,25
 260 1234 260 1234 326.5 1262 c 128,-1,26
 393 1290 393 1290 476 1300 c 1,27,-1
 476 1416 l 2,28,29
 476 1436 476 1436 484 1444 c 128,-1,30
 492 1452 492 1452 512 1452 c 2,31,-1
 556 1452 l 2,32,33
 576 1452 576 1452 584 1444 c 128,-1,34
 592 1436 592 1436 592 1416 c 2,35,-1
 592 1304 l 1,36,37
 701 1299 701 1299 783 1270 c 128,-1,38
 865 1241 865 1241 918 1202 c 0,39,40
 947 1182 947 1182 926 1152 c 2,41,-1
 888 1102 l 2,42,43
 876 1087 876 1087 864.5 1084.5 c 128,-1,44
 853 1082 853 1082 836 1094 c 0,45,46
 791 1124 791 1124 730 1145.5 c 128,-1,47
 669 1167 669 1167 592 1172 c 1,48,-1
 592 722 l 1,49,50
 656 702 656 702 722.5 676.5 c 128,-1,51
 789 651 789 651 843 611 c 128,-1,52
 897 571 897 571 931.5 512 c 128,-1,53
 966 453 966 453 966 368 c 0,54,55
 966 295 966 295 940 235.5 c 128,-1,56
 914 176 914 176 865.5 131.5 c 128,-1,57
 817 87 817 87 747.5 59 c 128,-1,58
 678 31 678 31 592 22 c 1,59,-1
 592 -92 l 2,60,61
 592 -112 592 -112 584 -120 c 128,-1,62
 576 -128 576 -128 556 -128 c 2,63,-1
 512 -128 l 2,0,1
592 152 m 1,64,65
 693 167 693 167 751.5 221.5 c 128,-1,66
 810 276 810 276 810 362 c 0,67,68
 810 407 810 407 793.5 440 c 128,-1,69
 777 473 777 473 747.5 497 c 128,-1,70
 718 521 718 521 678 539 c 128,-1,71
 638 557 638 557 592 572 c 1,72,-1
 592 152 l 1,64,65
476 1170 m 1,73,74
 422 1161 422 1161 383 1141 c 128,-1,75
 344 1121 344 1121 319 1093.5 c 128,-1,76
 294 1066 294 1066 282 1031.5 c 128,-1,77
 270 997 270 997 270 960 c 0,78,79
 270 916 270 916 285.5 884 c 128,-1,80
 301 852 301 852 328.5 828 c 128,-1,81
 356 804 356 804 394 786.5 c 128,-1,82
 432 769 432 769 476 754 c 1,83,-1
 476 1170 l 1,73,74
EndSplineSet
Validated: 1
EndChar

StartChar: percent
Encoding: 37 37 8
Width: 1616
GlyphClass: 2
Flags: W
LayerCount: 2
Fore
SplineSet
204 988 m 0,0,1
 204 938 204 938 213.5 893 c 128,-1,2
 223 848 223 848 244.5 813.5 c 128,-1,3
 266 779 266 779 301 758.5 c 128,-1,4
 336 738 336 738 386 738 c 256,5,6
 436 738 436 738 471 758.5 c 128,-1,7
 506 779 506 779 527.5 813.5 c 128,-1,8
 549 848 549 848 558.5 893 c 128,-1,9
 568 938 568 938 568 988 c 0,10,11
 568 1037 568 1037 558.5 1082.5 c 128,-1,12
 549 1128 549 1128 527.5 1162.5 c 128,-1,13
 506 1197 506 1197 471 1217.5 c 128,-1,14
 436 1238 436 1238 386 1238 c 256,15,16
 336 1238 336 1238 301 1217.5 c 128,-1,17
 266 1197 266 1197 244.5 1162.5 c 128,-1,18
 223 1128 223 1128 213.5 1082.5 c 128,-1,19
 204 1037 204 1037 204 988 c 0,0,1
700 988 m 256,20,21
 700 919 700 919 681.5 854.5 c 128,-1,22
 663 790 663 790 624.5 740.5 c 128,-1,23
 586 691 586 691 527 661.5 c 128,-1,24
 468 632 468 632 386 632 c 256,25,26
 304 632 304 632 245 661.5 c 128,-1,27
 186 691 186 691 147.5 740.5 c 128,-1,28
 109 790 109 790 90.5 854.5 c 128,-1,29
 72 919 72 919 72 988 c 256,30,31
 72 1057 72 1057 90.5 1121 c 128,-1,32
 109 1185 109 1185 147.5 1234.5 c 128,-1,33
 186 1284 186 1284 245 1314 c 128,-1,34
 304 1344 304 1344 386 1344 c 256,35,36
 468 1344 468 1344 527 1314 c 128,-1,37
 586 1284 586 1284 624.5 1234.5 c 128,-1,38
 663 1185 663 1185 681.5 1121 c 128,-1,39
 700 1057 700 1057 700 988 c 256,20,21
318 0 m 2,40,41
 301 0 301 0 297 8 c 128,-1,42
 293 16 293 16 302 30 c 2,43,-1
 1168 1294 l 2,44,45
 1179 1311 1179 1311 1191.5 1317.5 c 128,-1,46
 1204 1324 1204 1324 1224 1324 c 2,47,-1
 1298 1324 l 2,48,49
 1315 1324 1315 1324 1319 1316 c 128,-1,50
 1323 1308 1323 1308 1314 1294 c 2,51,-1
 448 30 l 2,52,53
 437 13 437 13 424.5 6.5 c 128,-1,54
 412 0 412 0 392 0 c 2,55,-1
 318 0 l 2,40,41
1412 336 m 0,56,57
 1412 385 1412 385 1402.5 430.5 c 128,-1,58
 1393 476 1393 476 1371.5 510.5 c 128,-1,59
 1350 545 1350 545 1315 565.5 c 128,-1,60
 1280 586 1280 586 1230 586 c 256,61,62
 1180 586 1180 586 1145 565.5 c 128,-1,63
 1110 545 1110 545 1088.5 510.5 c 128,-1,64
 1067 476 1067 476 1057.5 430.5 c 128,-1,65
 1048 385 1048 385 1048 336 c 0,66,67
 1048 286 1048 286 1057.5 241 c 128,-1,68
 1067 196 1067 196 1088.5 161.5 c 128,-1,69
 1110 127 1110 127 1145 106.5 c 128,-1,70
 1180 86 1180 86 1230 86 c 256,71,72
 1280 86 1280 86 1315 106.5 c 128,-1,73
 1350 127 1350 127 1371.5 161.5 c 128,-1,74
 1393 196 1393 196 1402.5 241 c 128,-1,75
 1412 286 1412 286 1412 336 c 0,56,57
916 336 m 256,76,77
 916 405 916 405 934.5 469 c 128,-1,78
 953 533 953 533 991.5 582.5 c 128,-1,79
 1030 632 1030 632 1089 662 c 128,-1,80
 1148 692 1148 692 1230 692 c 256,81,82
 1312 692 1312 692 1371 662 c 128,-1,83
 1430 632 1430 632 1468.5 582.5 c 128,-1,84
 1507 533 1507 533 1525.5 469 c 128,-1,85
 1544 405 1544 405 1544 336 c 256,86,87
 1544 267 1544 267 1525.5 202.5 c 128,-1,88
 1507 138 1507 138 1468.5 88.5 c 128,-1,89
 1430 39 1430 39 1371 9.5 c 128,-1,90
 1312 -20 1312 -20 1230 -20 c 256,91,92
 1148 -20 1148 -20 1089 9.5 c 128,-1,93
 1030 39 1030 39 991.5 88.5 c 128,-1,94
 953 138 953 138 934.5 202.5 c 128,-1,95
 916 267 916 267 916 336 c 256,76,77
EndSplineSet
Validated: 1
EndChar

StartChar: ampersand
Encoding: 38 38 9
Width: 1322
GlyphClass: 2
Flags: W
LayerCount: 2
Fore
SplineSet
352 1008 m 0,0,1
 352 967 352 967 365 932 c 128,-1,2
 378 897 378 897 402.5 864 c 128,-1,3
 427 831 427 831 462.5 798 c 128,-1,4
 498 765 498 765 542 728 c 2,5,-1
 952 386 l 1,6,7
 985 455 985 455 1002.5 543 c 128,-1,8
 1020 631 1020 631 1020 720 c 0,9,10
 1020 740 1020 740 1028 748 c 128,-1,11
 1036 756 1036 756 1056 756 c 2,12,-1
 1130 756 l 2,13,14
 1150 756 1150 756 1157 747 c 128,-1,15
 1164 738 1164 738 1164 720 c 0,16,17
 1164 605 1164 605 1138.5 498 c 128,-1,18
 1113 391 1113 391 1062 296 c 1,19,-1
 1284 112 l 2,20,21
 1299 100 1299 100 1299.5 88.5 c 128,-1,22
 1300 77 1300 77 1288 62 c 2,23,-1
 1242 8 l 2,24,25
 1218 -22 1218 -22 1190 4 c 2,26,-1
 982 176 l 1,27,28
 950 134 950 134 906 98 c 128,-1,29
 862 62 862 62 807.5 36 c 128,-1,30
 753 10 753 10 687.5 -5 c 128,-1,31
 622 -20 622 -20 546 -20 c 0,32,33
 444 -20 444 -20 361.5 7.5 c 128,-1,34
 279 35 279 35 221 84.5 c 128,-1,35
 163 134 163 134 131.5 202.5 c 128,-1,36
 100 271 100 271 100 352 c 0,37,38
 100 408 100 408 116 461.5 c 128,-1,39
 132 515 132 515 162.5 562.5 c 128,-1,40
 193 610 193 610 237.5 649.5 c 128,-1,41
 282 689 282 689 340 718 c 1,42,43
 300 755 300 755 272 790 c 128,-1,44
 244 825 244 825 226 859.5 c 128,-1,45
 208 894 208 894 200 929.5 c 128,-1,46
 192 965 192 965 192 1004 c 0,47,48
 192 1077 192 1077 219 1139.5 c 128,-1,49
 246 1202 246 1202 297.5 1247.5 c 128,-1,50
 349 1293 349 1293 423 1318.5 c 128,-1,51
 497 1344 497 1344 592 1344 c 0,52,53
 702 1344 702 1344 788.5 1314.5 c 128,-1,54
 875 1285 875 1285 926 1244 c 0,55,56
 944 1229 944 1229 944 1214 c 0,57,58
 944 1208 944 1208 941.5 1202.5 c 128,-1,59
 939 1197 939 1197 936 1192 c 2,60,-1
 902 1142 l 2,61,62
 889 1122 889 1122 872 1122 c 0,63,64
 861 1122 861 1122 848 1132 c 0,65,66
 798 1168 798 1168 736.5 1189 c 128,-1,67
 675 1210 675 1210 598 1210 c 0,68,69
 537 1210 537 1210 491 1194.5 c 128,-1,70
 445 1179 445 1179 414 1152 c 128,-1,71
 383 1125 383 1125 367.5 1088 c 128,-1,72
 352 1051 352 1051 352 1008 c 0,0,1
264 366 m 0,73,74
 264 310 264 310 286 262.5 c 128,-1,75
 308 215 308 215 348 180.5 c 128,-1,76
 388 146 388 146 443 127 c 128,-1,77
 498 108 498 108 564 108 c 0,78,79
 667 108 667 108 744.5 151.5 c 128,-1,80
 822 195 822 195 876 266 c 1,81,-1
 436 634 l 1,82,83
 398 613 398 613 366.5 584.5 c 128,-1,84
 335 556 335 556 312.5 521.5 c 128,-1,85
 290 487 290 487 277 448 c 128,-1,86
 264 409 264 409 264 366 c 0,73,74
EndSplineSet
Validated: 1
EndChar

StartChar: quotesingle
Encoding: 39 39 10
Width: 376
GlyphClass: 2
Flags: W
LayerCount: 2
Fore
SplineSet
240 1436 m 2,0,1
 257 1436 257 1436 264.5 1428 c 128,-1,2
 272 1420 272 1420 272 1408 c 0,3,4
 272 1403 272 1403 271 1390.5 c 128,-1,5
 270 1378 270 1378 268 1366 c 2,6,-1
 226 1012 l 2,7,8
 223 980 223 980 190 980 c 2,9,-1
 186 980 l 2,10,11
 153 980 153 980 150 1012 c 2,12,-1
 108 1366 l 2,13,14
 106 1378 106 1378 105 1390.5 c 128,-1,15
 104 1403 104 1403 104 1408 c 0,16,17
 104 1420 104 1420 111.5 1428 c 128,-1,18
 119 1436 119 1436 136 1436 c 2,19,-1
 240 1436 l 2,0,1
EndSplineSet
Validated: 1
EndChar

StartChar: parenleft
Encoding: 40 40 11
Width: 552
GlyphClass: 2
Flags: W
LayerCount: 2
Fore
SplineSet
296 642 m 256,0,1
 296 440 296 440 330.5 246 c 128,-1,2
 365 52 365 52 434 -132 c 0,3,4
 439 -144 439 -144 439.5 -150.5 c 128,-1,5
 440 -157 440 -157 440 -160 c 0,6,7
 440 -178 440 -178 418 -186 c 2,8,-1
 398 -194 l 2,9,10
 383 -200 383 -200 372 -200 c 0,11,12
 350 -200 350 -200 338 -176 c 0,13,14
 304 -112 304 -112 271.5 -27 c 128,-1,15
 239 58 239 58 213.5 161.5 c 128,-1,16
 188 265 188 265 172 386 c 128,-1,17
 156 507 156 507 156 642 c 256,18,19
 156 777 156 777 172 898 c 128,-1,20
 188 1019 188 1019 213.5 1122.5 c 128,-1,21
 239 1226 239 1226 271.5 1311 c 128,-1,22
 304 1396 304 1396 338 1460 c 0,23,24
 350 1484 350 1484 372 1484 c 0,25,26
 383 1484 383 1484 398 1478 c 2,27,-1
 418 1470 l 2,28,29
 440 1462 440 1462 440 1444 c 0,30,31
 440 1441 440 1441 439.5 1434.5 c 128,-1,32
 439 1428 439 1428 434 1416 c 0,33,34
 365 1232 365 1232 330.5 1038 c 128,-1,35
 296 844 296 844 296 642 c 256,0,1
EndSplineSet
Validated: 1
EndChar

StartChar: parenright
Encoding: 41 41 12
Width: 552
GlyphClass: 2
Flags: W
LayerCount: 2
Fore
SplineSet
256 642 m 256,0,1
 256 844 256 844 221.5 1038 c 128,-1,2
 187 1232 187 1232 118 1416 c 0,3,4
 113 1428 113 1428 112.5 1434.5 c 128,-1,5
 112 1441 112 1441 112 1444 c 0,6,7
 112 1462 112 1462 134 1470 c 2,8,-1
 154 1478 l 2,9,10
 169 1484 169 1484 180 1484 c 0,11,12
 202 1484 202 1484 214 1460 c 0,13,14
 248 1396 248 1396 280.5 1311 c 128,-1,15
 313 1226 313 1226 338.5 1122.5 c 128,-1,16
 364 1019 364 1019 380 898 c 128,-1,17
 396 777 396 777 396 642 c 256,18,19
 396 507 396 507 380 386 c 128,-1,20
 364 265 364 265 338.5 161.5 c 128,-1,21
 313 58 313 58 280.5 -27 c 128,-1,22
 248 -112 248 -112 214 -176 c 0,23,24
 202 -200 202 -200 180 -200 c 0,25,26
 169 -200 169 -200 154 -194 c 2,27,-1
 134 -186 l 2,28,29
 112 -178 112 -178 112 -160 c 0,30,31
 112 -157 112 -157 112.5 -150.5 c 128,-1,32
 113 -144 113 -144 118 -132 c 0,33,34
 187 52 187 52 221.5 246 c 128,-1,35
 256 440 256 440 256 642 c 256,0,1
EndSplineSet
Validated: 1
EndChar

StartChar: asterisk
Encoding: 42 42 13
Width: 820
GlyphClass: 2
Flags: W
LayerCount: 2
Fore
SplineSet
436 1436 m 2,0,1
 456 1436 456 1436 463 1425 c 128,-1,2
 470 1414 470 1414 470 1394 c 2,3,-1
 462 1146 l 1,4,-1
 690 1228 l 2,5,6
 704 1233 704 1233 710.5 1233.5 c 128,-1,7
 717 1234 717 1234 720 1234 c 0,8,9
 739 1234 739 1234 748 1208 c 2,10,-1
 762 1164 l 2,11,12
 764 1159 764 1159 765 1154.5 c 128,-1,13
 766 1150 766 1150 766 1144 c 0,14,15
 766 1124 766 1124 740 1118 c 2,16,-1
 494 1048 l 1,17,-1
 652 846 l 2,18,19
 662 833 662 833 662 822 c 0,20,21
 662 809 662 809 646 798 c 2,22,-1
 604 768 l 2,23,24
 591 760 591 760 580 760 c 0,25,26
 563 760 563 760 552 776 c 2,27,-1
 410 988 l 1,28,-1
 268 776 l 2,29,30
 257 760 257 760 240 760 c 0,31,32
 229 760 229 760 216 768 c 2,33,-1
 174 798 l 2,34,35
 158 809 158 809 158 822 c 0,36,37
 158 833 158 833 168 846 c 2,38,-1
 326 1048 l 1,39,-1
 80 1118 l 2,40,41
 54 1124 54 1124 54 1144 c 0,42,43
 54 1150 54 1150 55 1154.5 c 128,-1,44
 56 1159 56 1159 58 1164 c 2,45,-1
 72 1208 l 2,46,47
 81 1234 81 1234 100 1234 c 0,48,49
 103 1234 103 1234 109.5 1233.5 c 128,-1,50
 116 1233 116 1233 130 1228 c 2,51,-1
 358 1146 l 1,52,-1
 350 1394 l 2,53,54
 350 1414 350 1414 357 1425 c 128,-1,55
 364 1436 364 1436 384 1436 c 2,56,-1
 436 1436 l 2,0,1
EndSplineSet
Validated: 1
EndChar

StartChar: plus
Encoding: 43 43 14
Width: 1064
GlyphClass: 2
Flags: W
LayerCount: 2
Fore
SplineSet
132 416 m 2,0,1
 112 416 112 416 104 424 c 128,-1,2
 96 432 96 432 96 452 c 2,3,-1
 96 508 l 2,4,5
 96 528 96 528 104 536 c 128,-1,6
 112 544 112 544 132 544 c 2,7,-1
 464 544 l 1,8,-1
 464 880 l 2,9,10
 464 900 464 900 472 908 c 128,-1,11
 480 916 480 916 500 916 c 2,12,-1
 564 916 l 2,13,14
 584 916 584 916 592 908 c 128,-1,15
 600 900 600 900 600 880 c 2,16,-1
 600 544 l 1,17,-1
 932 544 l 2,18,19
 952 544 952 544 960 536 c 128,-1,20
 968 528 968 528 968 508 c 2,21,-1
 968 452 l 2,22,23
 968 432 968 432 960 424 c 128,-1,24
 952 416 952 416 932 416 c 2,25,-1
 600 416 l 1,26,-1
 600 80 l 2,27,28
 600 60 600 60 592 52 c 128,-1,29
 584 44 584 44 564 44 c 2,30,-1
 500 44 l 2,31,32
 480 44 480 44 472 52 c 128,-1,33
 464 60 464 60 464 80 c 2,34,-1
 464 416 l 1,35,-1
 132 416 l 2,0,1
EndSplineSet
Validated: 1
EndChar

StartChar: comma
Encoding: 44 44 15
Width: 400
GlyphClass: 2
Flags: W
LayerCount: 2
Fore
SplineSet
312 84 m 0,0,1
 312 49 312 49 303 5 c 128,-1,2
 294 -39 294 -39 277 -85.5 c 128,-1,3
 260 -132 260 -132 235.5 -178.5 c 128,-1,4
 211 -225 211 -225 180 -266 c 0,5,6
 168 -284 168 -284 152 -284 c 0,7,8
 147 -284 147 -284 140.5 -282.5 c 128,-1,9
 134 -281 134 -281 128 -278 c 2,10,-1
 120 -274 l 2,11,12
 98 -261 98 -261 98 -248 c 0,13,14
 98 -239 98 -239 106 -226 c 0,15,16
 132 -179 132 -179 145 -139.5 c 128,-1,17
 158 -100 158 -100 158 -74 c 0,18,19
 158 -45 158 -45 147 -24 c 128,-1,20
 136 -3 136 -3 123 16.5 c 128,-1,21
 110 36 110 36 99 56.5 c 128,-1,22
 88 77 88 77 88 106 c 0,23,24
 88 128 88 128 95.5 149 c 128,-1,25
 103 170 103 170 118 185.5 c 128,-1,26
 133 201 133 201 154 210.5 c 128,-1,27
 175 220 175 220 202 220 c 0,28,29
 256 220 256 220 284 183.5 c 128,-1,30
 312 147 312 147 312 84 c 0,0,1
EndSplineSet
Validated: 1
EndChar

StartChar: hyphen
Encoding: 45 45 16
Width: 678
GlyphClass: 2
Flags: W
LayerCount: 2
Fore
SplineSet
142 496 m 2,0,1
 122 496 122 496 114 504 c 128,-1,2
 106 512 106 512 106 532 c 2,3,-1
 106 608 l 2,4,5
 106 628 106 628 114 636 c 128,-1,6
 122 644 122 644 142 644 c 2,7,-1
 536 644 l 2,8,9
 556 644 556 644 564 636 c 128,-1,10
 572 628 572 628 572 608 c 2,11,-1
 572 532 l 2,12,13
 572 512 572 512 564 504 c 128,-1,14
 556 496 556 496 536 496 c 2,15,-1
 142 496 l 2,0,1
EndSplineSet
Validated: 1
EndChar

StartChar: period
Encoding: 46 46 17
Width: 400
GlyphClass: 2
Flags: W
LayerCount: 2
Fore
SplineSet
316 102 m 256,0,1
 316 52 316 52 284.5 18 c 128,-1,2
 253 -16 253 -16 200 -16 c 256,3,4
 147 -16 147 -16 115.5 18 c 128,-1,5
 84 52 84 52 84 102 c 256,6,7
 84 152 84 152 115.5 186 c 128,-1,8
 147 220 147 220 200 220 c 256,9,10
 253 220 253 220 284.5 186 c 128,-1,11
 316 152 316 152 316 102 c 256,0,1
EndSplineSet
Validated: 1
EndChar

StartChar: slash
Encoding: 47 47 18
Width: 604
GlyphClass: 2
Flags: W
LayerCount: 2
Fore
SplineSet
510 1470 m 2,0,1
 518 1504 518 1504 556 1504 c 2,2,-1
 608 1504 l 2,3,4
 636 1504 636 1504 636 1482 c 0,5,6
 636 1480 636 1480 635 1472.5 c 128,-1,7
 634 1465 634 1465 632 1460 c 2,8,-1
 192 -146 l 2,9,10
 183 -180 183 -180 146 -180 c 2,11,-1
 94 -180 l 2,12,13
 66 -180 66 -180 66 -158 c 0,14,15
 66 -156 66 -156 67 -148.5 c 128,-1,16
 68 -141 68 -141 70 -136 c 2,17,-1
 510 1470 l 2,0,1
EndSplineSet
Validated: 1
EndChar

StartChar: zero
Encoding: 48 48 19
Width: 1064
GlyphClass: 2
Flags: W
LayerCount: 2
Fore
SplineSet
230 662 m 0,0,1
 230 543 230 543 247 443 c 128,-1,2
 264 343 264 343 300.5 270.5 c 128,-1,3
 337 198 337 198 394.5 157 c 128,-1,4
 452 116 452 116 532 116 c 256,5,6
 612 116 612 116 669.5 157 c 128,-1,7
 727 198 727 198 763.5 270.5 c 128,-1,8
 800 343 800 343 817 443 c 128,-1,9
 834 543 834 543 834 662 c 0,10,11
 834 780 834 780 817 880.5 c 128,-1,12
 800 981 800 981 763.5 1053.5 c 128,-1,13
 727 1126 727 1126 669.5 1167 c 128,-1,14
 612 1208 612 1208 532 1208 c 256,15,16
 452 1208 452 1208 394.5 1167 c 128,-1,17
 337 1126 337 1126 300.5 1053.5 c 128,-1,18
 264 981 264 981 247 880.5 c 128,-1,19
 230 780 230 780 230 662 c 0,0,1
996 662 m 0,20,21
 996 576 996 576 985.5 491.5 c 128,-1,22
 975 407 975 407 952.5 331.5 c 128,-1,23
 930 256 930 256 894 191.5 c 128,-1,24
 858 127 858 127 806.5 80 c 128,-1,25
 755 33 755 33 686.5 6.5 c 128,-1,26
 618 -20 618 -20 532 -20 c 0,27,28
 445 -20 445 -20 377 6 c 128,-1,29
 309 32 309 32 257 79 c 128,-1,30
 205 126 205 126 169.5 190 c 128,-1,31
 134 254 134 254 111 329.5 c 128,-1,32
 88 405 88 405 78 489.5 c 128,-1,33
 68 574 68 574 68 662 c 0,34,35
 68 748 68 748 78.5 832.5 c 128,-1,36
 89 917 89 917 111.5 992.5 c 128,-1,37
 134 1068 134 1068 170 1132.5 c 128,-1,38
 206 1197 206 1197 257.5 1244 c 128,-1,39
 309 1291 309 1291 377 1317.5 c 128,-1,40
 445 1344 445 1344 532 1344 c 256,41,42
 619 1344 619 1344 687 1318 c 128,-1,43
 755 1292 755 1292 807 1245 c 128,-1,44
 859 1198 859 1198 894.5 1134 c 128,-1,45
 930 1070 930 1070 953 994.5 c 128,-1,46
 976 919 976 919 986 834 c 128,-1,47
 996 749 996 749 996 662 c 0,20,21
EndSplineSet
Validated: 1
Substitution2: "'zero' gestrichene Null in Latin lookup 7 subtable" zero.zero
Substitution2: "'aalt' Access All Alternates in Latin lookup 0 subtable" zero.zero
EndChar

StartChar: one
Encoding: 49 49 20
Width: 1064
GlyphClass: 2
Flags: W
LayerCount: 2
Fore
SplineSet
250 0 m 2,0,1
 230 0 230 0 222 8 c 128,-1,2
 214 16 214 16 214 36 c 2,3,-1
 214 100 l 2,4,5
 214 120 214 120 222 128 c 128,-1,6
 230 136 230 136 250 136 c 2,7,-1
 510 136 l 1,8,-1
 510 1144 l 1,9,-1
 266 988 l 2,10,11
 236 967 236 967 218 998 c 2,12,-1
 188 1046 l 2,13,14
 179 1061 179 1061 181 1073 c 128,-1,15
 183 1085 183 1085 200 1096 c 2,16,-1
 500 1304 l 2,17,18
 517 1315 517 1315 531.5 1319.5 c 128,-1,19
 546 1324 546 1324 566 1324 c 2,20,-1
 632 1324 l 2,21,22
 652 1324 652 1324 660 1316 c 128,-1,23
 668 1308 668 1308 668 1288 c 2,24,-1
 668 136 l 1,25,-1
 910 136 l 2,26,27
 930 136 930 136 938 128 c 128,-1,28
 946 120 946 120 946 100 c 2,29,-1
 946 36 l 2,30,31
 946 16 946 16 938 8 c 128,-1,32
 930 0 930 0 910 0 c 2,33,-1
 250 0 l 2,0,1
EndSplineSet
Validated: 1
Substitution2: "'sups' Superscript in Latin lookup 5 subtable" onesuperior
EndChar

StartChar: two
Encoding: 50 50 21
Width: 1064
GlyphClass: 2
Flags: W
LayerCount: 2
Fore
SplineSet
186 0 m 2,0,1
 166 0 166 0 158 8 c 128,-1,2
 150 16 150 16 150 36 c 2,3,-1
 150 106 l 2,4,5
 150 205 150 205 177 284 c 128,-1,6
 204 363 204 363 252 430 c 128,-1,7
 300 497 300 497 367.5 555.5 c 128,-1,8
 435 614 435 614 516 672 c 0,9,10
 562 706 562 706 605.5 736.5 c 128,-1,11
 649 767 649 767 682.5 802 c 128,-1,12
 716 837 716 837 736 881 c 128,-1,13
 756 925 756 925 756 986 c 0,14,15
 756 1035 756 1035 741.5 1076 c 128,-1,16
 727 1117 727 1117 697 1146.5 c 128,-1,17
 667 1176 667 1176 620.5 1192 c 128,-1,18
 574 1208 574 1208 510 1208 c 0,19,20
 433 1208 433 1208 369 1186.5 c 128,-1,21
 305 1165 305 1165 254 1130 c 0,22,23
 239 1118 239 1118 228 1120.5 c 128,-1,24
 217 1123 217 1123 206 1138 c 2,25,-1
 170 1192 l 2,26,27
 150 1221 150 1221 178 1244 c 0,28,29
 232 1285 232 1285 316.5 1314.5 c 128,-1,30
 401 1344 401 1344 514 1344 c 0,31,32
 620 1344 620 1344 696 1316 c 128,-1,33
 772 1288 772 1288 821.5 1240 c 128,-1,34
 871 1192 871 1192 894.5 1127 c 128,-1,35
 918 1062 918 1062 918 988 c 0,36,37
 918 902 918 902 890.5 839.5 c 128,-1,38
 863 777 863 777 818.5 728 c 128,-1,39
 774 679 774 679 718.5 639.5 c 128,-1,40
 663 600 663 600 608 560 c 0,41,42
 559 525 559 525 507 482.5 c 128,-1,43
 455 440 455 440 411.5 387.5 c 128,-1,44
 368 335 368 335 340 272.5 c 128,-1,45
 312 210 312 210 312 136 c 1,46,-1
 888 136 l 2,47,48
 908 136 908 136 916 128 c 128,-1,49
 924 120 924 120 924 100 c 2,50,-1
 924 36 l 2,51,52
 924 16 924 16 916 8 c 128,-1,53
 908 0 908 0 888 0 c 2,54,-1
 186 0 l 2,0,1
EndSplineSet
Validated: 1
Substitution2: "'sups' Superscript in Latin lookup 5 subtable" twosuperior
EndChar

StartChar: three
Encoding: 51 51 22
Width: 1064
GlyphClass: 2
Flags: W
LayerCount: 2
Fore
SplineSet
926 396 m 0,0,1
 926 311 926 311 898 235.5 c 128,-1,2
 870 160 870 160 814 103 c 128,-1,3
 758 46 758 46 673.5 13 c 128,-1,4
 589 -20 589 -20 476 -20 c 0,5,6
 361 -20 361 -20 275 11.5 c 128,-1,7
 189 43 189 43 130 90 c 0,8,9
 104 113 104 113 124 142 c 2,10,-1
 160 196 l 2,11,12
 172 211 172 211 183.5 213 c 128,-1,13
 195 215 195 215 210 204 c 0,14,15
 260 168 260 168 327.5 142 c 128,-1,16
 395 116 395 116 480 116 c 0,17,18
 550 116 550 116 603 136 c 128,-1,19
 656 156 656 156 692 192.5 c 128,-1,20
 728 229 728 229 746 280.5 c 128,-1,21
 764 332 764 332 764 396 c 0,22,23
 764 455 764 455 747.5 505 c 128,-1,24
 731 555 731 555 696 591 c 128,-1,25
 661 627 661 627 606 647.5 c 128,-1,26
 551 668 551 668 474 668 c 2,27,-1
 438 668 l 2,28,29
 420 668 420 668 407 673.5 c 128,-1,30
 394 679 394 679 382 694 c 2,31,-1
 362 718 l 2,32,33
 348 733 348 733 348 746 c 128,-1,34
 348 759 348 759 360 774 c 2,35,-1
 672 1188 l 1,36,-1
 196 1188 l 2,37,38
 176 1188 176 1188 168 1196 c 128,-1,39
 160 1204 160 1204 160 1224 c 2,40,-1
 160 1288 l 2,41,42
 160 1308 160 1308 168 1316 c 128,-1,43
 176 1324 176 1324 196 1324 c 2,44,-1
 830 1324 l 2,45,46
 850 1324 850 1324 858 1316 c 128,-1,47
 866 1308 866 1308 866 1288 c 2,48,-1
 866 1254 l 2,49,50
 866 1234 866 1234 861 1219.5 c 128,-1,51
 856 1205 856 1205 844 1190 c 2,52,-1
 660 938 l 2,53,54
 651 926 651 926 634 905.5 c 128,-1,55
 617 885 617 885 598 862.5 c 128,-1,56
 579 840 579 840 561 820 c 128,-1,57
 543 800 543 800 532 790 c 1,58,59
 630 786 630 786 704 754 c 128,-1,60
 778 722 778 722 827.5 669.5 c 128,-1,61
 877 617 877 617 901.5 546.5 c 128,-1,62
 926 476 926 476 926 396 c 0,0,1
EndSplineSet
Validated: 1
Substitution2: "'sups' Superscript in Latin lookup 5 subtable" threesuperior
EndChar

StartChar: four
Encoding: 52 52 23
Width: 1064
GlyphClass: 2
Flags: W
LayerCount: 2
Fore
SplineSet
118 294 m 2,0,1
 98 294 98 294 90 302 c 128,-1,2
 82 310 82 310 82 330 c 2,3,-1
 82 370 l 2,4,5
 82 388 82 388 86 404.5 c 128,-1,6
 90 421 90 421 98 438 c 2,7,-1
 528 1292 l 2,8,9
 537 1310 537 1310 548.5 1317 c 128,-1,10
 560 1324 560 1324 580 1324 c 2,11,-1
 676 1324 l 2,12,13
 693 1324 693 1324 698.5 1315.5 c 128,-1,14
 704 1307 704 1307 696 1292 c 2,15,-1
 258 426 l 1,16,-1
 682 426 l 1,17,-1
 682 932 l 2,18,19
 682 952 682 952 690 960 c 128,-1,20
 698 968 698 968 718 968 c 2,21,-1
 802 968 l 2,22,23
 822 968 822 968 830 960 c 128,-1,24
 838 952 838 952 838 932 c 2,25,-1
 838 426 l 1,26,-1
 986 426 l 2,27,28
 1006 426 1006 426 1014 418 c 128,-1,29
 1022 410 1022 410 1022 390 c 2,30,-1
 1022 330 l 2,31,32
 1022 310 1022 310 1014 302 c 128,-1,33
 1006 294 1006 294 986 294 c 2,34,-1
 838 294 l 1,35,-1
 838 36 l 2,36,37
 838 16 838 16 830 8 c 128,-1,38
 822 0 822 0 802 0 c 2,39,-1
 718 0 l 2,40,41
 698 0 698 0 690 8 c 128,-1,42
 682 16 682 16 682 36 c 2,43,-1
 682 294 l 1,44,-1
 118 294 l 2,0,1
EndSplineSet
Validated: 1
EndChar

StartChar: five
Encoding: 53 53 24
Width: 1064
GlyphClass: 2
Flags: W
LayerCount: 2
Fore
SplineSet
940 412 m 0,0,1
 940 323 940 323 912 244.5 c 128,-1,2
 884 166 884 166 827.5 107.5 c 128,-1,3
 771 49 771 49 686 14.5 c 128,-1,4
 601 -20 601 -20 488 -20 c 256,5,6
 375 -20 375 -20 288 11.5 c 128,-1,7
 201 43 201 43 144 90 c 0,8,9
 118 113 118 113 138 142 c 2,10,-1
 174 196 l 2,11,12
 194 224 194 224 222 204 c 0,13,14
 273 168 273 168 341 142 c 128,-1,15
 409 116 409 116 490 116 c 0,16,17
 560 116 560 116 614 137 c 128,-1,18
 668 158 668 158 704.5 196.5 c 128,-1,19
 741 235 741 235 759.5 289 c 128,-1,20
 778 343 778 343 778 408 c 0,21,22
 778 466 778 466 762 516.5 c 128,-1,23
 746 567 746 567 711.5 604.5 c 128,-1,24
 677 642 677 642 623.5 663 c 128,-1,25
 570 684 570 684 494 684 c 0,26,27
 434 684 434 684 380.5 671.5 c 128,-1,28
 327 659 327 659 282 636 c 0,29,30
 262 627 262 627 249 628.5 c 128,-1,31
 236 630 236 630 218 642 c 2,32,-1
 194 660 l 2,33,34
 177 671 177 671 171 683.5 c 128,-1,35
 165 696 165 696 168 716 c 2,36,-1
 224 1288 l 2,37,38
 226 1308 226 1308 235 1316 c 128,-1,39
 244 1324 244 1324 264 1324 c 2,40,-1
 844 1324 l 2,41,42
 864 1324 864 1324 872 1316 c 128,-1,43
 880 1308 880 1308 880 1288 c 2,44,-1
 880 1224 l 2,45,46
 880 1204 880 1204 872 1196 c 128,-1,47
 864 1188 864 1188 844 1188 c 2,48,-1
 360 1188 l 1,49,-1
 320 774 l 1,50,51
 362 792 362 792 413.5 803 c 128,-1,52
 465 814 465 814 528 814 c 0,53,54
 635 814 635 814 713 781.5 c 128,-1,55
 791 749 791 749 841.5 694 c 128,-1,56
 892 639 892 639 916 566 c 128,-1,57
 940 493 940 493 940 412 c 0,0,1
EndSplineSet
Validated: 1
EndChar

StartChar: six
Encoding: 54 54 25
Width: 1064
GlyphClass: 2
Flags: W
LayerCount: 2
Fore
SplineSet
972 424 m 0,0,1
 972 329 972 329 943.5 247.5 c 128,-1,2
 915 166 915 166 861 106.5 c 128,-1,3
 807 47 807 47 728 13.5 c 128,-1,4
 649 -20 649 -20 548 -20 c 0,5,6
 446 -20 446 -20 363.5 17 c 128,-1,7
 281 54 281 54 223 131 c 128,-1,8
 165 208 165 208 133.5 326 c 128,-1,9
 102 444 102 444 102 606 c 0,10,11
 102 688 102 688 111 768.5 c 128,-1,12
 120 849 120 849 140.5 923.5 c 128,-1,13
 161 998 161 998 194 1063.5 c 128,-1,14
 227 1129 227 1129 276 1182 c 0,15,16
 348 1260 348 1260 450.5 1302 c 128,-1,17
 553 1344 553 1344 674 1344 c 0,18,19
 742 1344 742 1344 797.5 1332.5 c 128,-1,20
 853 1321 853 1321 892 1306 c 0,21,22
 923 1295 923 1295 914 1260 c 2,23,-1
 892 1198 l 2,24,25
 886 1178 886 1178 875 1173 c 128,-1,26
 864 1168 864 1168 846 1176 c 0,27,28
 807 1191 807 1191 767 1199.5 c 128,-1,29
 727 1208 727 1208 680 1208 c 0,30,31
 588 1208 588 1208 514.5 1177 c 128,-1,32
 441 1146 441 1146 387.5 1084.5 c 128,-1,33
 334 1023 334 1023 302.5 932 c 128,-1,34
 271 841 271 841 264 720 c 1,35,36
 321 777 321 777 397.5 810.5 c 128,-1,37
 474 844 474 844 574 844 c 0,38,39
 667 844 667 844 741 814 c 128,-1,40
 815 784 815 784 866 728.5 c 128,-1,41
 917 673 917 673 944.5 595.5 c 128,-1,42
 972 518 972 518 972 424 c 0,0,1
814 416 m 0,43,44
 814 480 814 480 798 534.5 c 128,-1,45
 782 589 782 589 749 629 c 128,-1,46
 716 669 716 669 665.5 691.5 c 128,-1,47
 615 714 615 714 546 714 c 0,48,49
 502 714 502 714 461 705 c 128,-1,50
 420 696 420 696 383 680 c 128,-1,51
 346 664 346 664 315 642.5 c 128,-1,52
 284 621 284 621 262 596 c 1,53,54
 262 468 262 468 281 376.5 c 128,-1,55
 300 285 300 285 337 225.5 c 128,-1,56
 374 166 374 166 428 138 c 128,-1,57
 482 110 482 110 552 110 c 0,58,59
 619 110 619 110 668 133.5 c 128,-1,60
 717 157 717 157 749.5 198.5 c 128,-1,61
 782 240 782 240 798 295.5 c 128,-1,62
 814 351 814 351 814 416 c 0,43,44
EndSplineSet
Validated: 1
EndChar

StartChar: seven
Encoding: 55 55 26
Width: 1064
GlyphClass: 2
Flags: W
LayerCount: 2
Fore
SplineSet
930 1182 m 0,0,1
 868 1087 868 1087 803 960 c 128,-1,2
 738 833 738 833 677.5 684.5 c 128,-1,3
 617 536 617 536 565.5 371.5 c 128,-1,4
 514 207 514 207 480 36 c 0,5,6
 477 16 477 16 467.5 8 c 128,-1,7
 458 0 458 0 438 0 c 2,8,-1
 338 0 l 2,9,10
 302 0 302 0 308 36 c 0,11,12
 343 214 343 214 396.5 381 c 128,-1,13
 450 548 450 548 512 696 c 128,-1,14
 574 844 574 844 640 968.5 c 128,-1,15
 706 1093 706 1093 768 1188 c 1,16,-1
 174 1188 l 2,17,18
 154 1188 154 1188 146 1196 c 128,-1,19
 138 1204 138 1204 138 1224 c 2,20,-1
 138 1288 l 2,21,22
 138 1308 138 1308 146 1316 c 128,-1,23
 154 1324 154 1324 174 1324 c 2,24,-1
 914 1324 l 2,25,26
 934 1324 934 1324 942 1316 c 128,-1,27
 950 1308 950 1308 950 1288 c 2,28,-1
 950 1250 l 2,29,30
 950 1213 950 1213 930 1182 c 0,0,1
EndSplineSet
Validated: 1
EndChar

StartChar: eight
Encoding: 56 56 27
Width: 1064
GlyphClass: 2
Flags: W
LayerCount: 2
Fore
SplineSet
974 314 m 0,0,1
 974 234 974 234 938.5 172 c 128,-1,2
 903 110 903 110 842.5 67.5 c 128,-1,3
 782 25 782 25 701.5 2.5 c 128,-1,4
 621 -20 621 -20 532 -20 c 256,5,6
 443 -20 443 -20 362.5 2.5 c 128,-1,7
 282 25 282 25 221.5 67.5 c 128,-1,8
 161 110 161 110 125.5 172 c 128,-1,9
 90 234 90 234 90 314 c 0,10,11
 90 382 90 382 116 437 c 128,-1,12
 142 492 142 492 185 536.5 c 128,-1,13
 228 581 228 581 283 615.5 c 128,-1,14
 338 650 338 650 396 678 c 1,15,16
 343 704 343 704 294.5 735.5 c 128,-1,17
 246 767 246 767 209.5 807.5 c 128,-1,18
 173 848 173 848 151.5 898.5 c 128,-1,19
 130 949 130 949 130 1014 c 0,20,21
 130 1090 130 1090 160.5 1151.5 c 128,-1,22
 191 1213 191 1213 245 1255.5 c 128,-1,23
 299 1298 299 1298 372.5 1321 c 128,-1,24
 446 1344 446 1344 532 1344 c 256,25,26
 618 1344 618 1344 691.5 1321 c 128,-1,27
 765 1298 765 1298 819 1255.5 c 128,-1,28
 873 1213 873 1213 903.5 1151.5 c 128,-1,29
 934 1090 934 1090 934 1014 c 0,30,31
 934 949 934 949 912.5 898.5 c 128,-1,32
 891 848 891 848 854.5 807.5 c 128,-1,33
 818 767 818 767 769.5 735.5 c 128,-1,34
 721 704 721 704 668 678 c 1,35,36
 726 650 726 650 781 615.5 c 128,-1,37
 836 581 836 581 879 536.5 c 128,-1,38
 922 492 922 492 948 437 c 128,-1,39
 974 382 974 382 974 314 c 0,0,1
248 322 m 0,40,41
 248 276 248 276 268 237.5 c 128,-1,42
 288 199 288 199 325 170.5 c 128,-1,43
 362 142 362 142 414.5 126 c 128,-1,44
 467 110 467 110 532 110 c 256,45,46
 597 110 597 110 649.5 126 c 128,-1,47
 702 142 702 142 739 170.5 c 128,-1,48
 776 199 776 199 796 237.5 c 128,-1,49
 816 276 816 276 816 322 c 0,50,51
 816 371 816 371 793.5 413.5 c 128,-1,52
 771 456 771 456 732.5 492 c 128,-1,53
 694 528 694 528 642 557.5 c 128,-1,54
 590 587 590 587 532 610 c 1,55,56
 473 587 473 587 421.5 557.5 c 128,-1,57
 370 528 370 528 331.5 492 c 128,-1,58
 293 456 293 456 270.5 413.5 c 128,-1,59
 248 371 248 371 248 322 c 0,40,41
284 1018 m 0,60,61
 284 971 284 971 302 930.5 c 128,-1,62
 320 890 320 890 353 856 c 128,-1,63
 386 822 386 822 431.5 793.5 c 128,-1,64
 477 765 477 765 532 742 c 1,65,66
 587 765 587 765 632.5 793.5 c 128,-1,67
 678 822 678 822 711 856 c 128,-1,68
 744 890 744 890 762 930.5 c 128,-1,69
 780 971 780 971 780 1018 c 0,70,71
 780 1068 780 1068 760 1105 c 128,-1,72
 740 1142 740 1142 706 1166 c 128,-1,73
 672 1190 672 1190 627 1202 c 128,-1,74
 582 1214 582 1214 532 1214 c 256,75,76
 482 1214 482 1214 437 1202 c 128,-1,77
 392 1190 392 1190 358 1166 c 128,-1,78
 324 1142 324 1142 304 1105 c 128,-1,79
 284 1068 284 1068 284 1018 c 0,60,61
EndSplineSet
Validated: 1
EndChar

StartChar: nine
Encoding: 57 57 28
Width: 1064
GlyphClass: 2
Flags: W
LayerCount: 2
Fore
SplineSet
800 162 m 0,0,1
 732 79 732 79 630 29.5 c 128,-1,2
 528 -20 528 -20 392 -20 c 0,3,4
 324 -20 324 -20 268 -9 c 128,-1,5
 212 2 212 2 174 16 c 0,6,7
 143 30 143 30 152 64 c 2,8,-1
 172 126 l 2,9,10
 178 146 178 146 189 151 c 128,-1,11
 200 156 200 156 218 148 c 0,12,13
 257 133 257 133 296.5 124.5 c 128,-1,14
 336 116 336 116 384 116 c 0,15,16
 573 116 573 116 678 243.5 c 128,-1,17
 783 371 783 371 794 620 c 1,18,19
 738 563 738 563 661.5 529.5 c 128,-1,20
 585 496 585 496 482 496 c 0,21,22
 390 496 390 496 316.5 525 c 128,-1,23
 243 554 243 554 191.5 607.5 c 128,-1,24
 140 661 140 661 112 736.5 c 128,-1,25
 84 812 84 812 84 906 c 0,26,27
 84 1002 84 1002 113 1082.5 c 128,-1,28
 142 1163 142 1163 196.5 1221 c 128,-1,29
 251 1279 251 1279 329.5 1311.5 c 128,-1,30
 408 1344 408 1344 508 1344 c 0,31,32
 611 1344 611 1344 694 1307 c 128,-1,33
 777 1270 777 1270 834.5 1193 c 128,-1,34
 892 1116 892 1116 923 997.5 c 128,-1,35
 954 879 954 879 954 716 c 0,36,37
 954 637 954 637 946 560.5 c 128,-1,38
 938 484 938 484 920 413 c 128,-1,39
 902 342 902 342 872.5 278 c 128,-1,40
 843 214 843 214 800 162 c 0,0,1
242 916 m 0,41,42
 242 853 242 853 258 800 c 128,-1,43
 274 747 274 747 307 708 c 128,-1,44
 340 669 340 669 390 647.5 c 128,-1,45
 440 626 440 626 508 626 c 0,46,47
 552 626 552 626 594 635 c 128,-1,48
 636 644 636 644 673 660 c 128,-1,49
 710 676 710 676 741.5 697 c 128,-1,50
 773 718 773 718 796 742 c 1,51,52
 793 870 793 870 772.5 960 c 128,-1,53
 752 1050 752 1050 715 1106.5 c 128,-1,54
 678 1163 678 1163 625.5 1188.5 c 128,-1,55
 573 1214 573 1214 506 1214 c 256,56,57
 439 1214 439 1214 389.5 1191.5 c 128,-1,58
 340 1169 340 1169 307 1129 c 128,-1,59
 274 1089 274 1089 258 1034.5 c 128,-1,60
 242 980 242 980 242 916 c 0,41,42
EndSplineSet
Validated: 1
EndChar

StartChar: colon
Encoding: 58 58 29
Width: 424
GlyphClass: 2
Flags: W
LayerCount: 2
Fore
SplineSet
328 102 m 256,0,1
 328 52 328 52 296.5 18 c 128,-1,2
 265 -16 265 -16 212 -16 c 256,3,4
 159 -16 159 -16 127.5 18 c 128,-1,5
 96 52 96 52 96 102 c 256,6,7
 96 152 96 152 127.5 186 c 128,-1,8
 159 220 159 220 212 220 c 256,9,10
 265 220 265 220 296.5 186 c 128,-1,11
 328 152 328 152 328 102 c 256,0,1
328 858 m 256,12,13
 328 808 328 808 296.5 774 c 128,-1,14
 265 740 265 740 212 740 c 256,15,16
 159 740 159 740 127.5 774 c 128,-1,17
 96 808 96 808 96 858 c 256,18,19
 96 908 96 908 127.5 942 c 128,-1,20
 159 976 159 976 212 976 c 256,21,22
 265 976 265 976 296.5 942 c 128,-1,23
 328 908 328 908 328 858 c 256,12,13
EndSplineSet
Validated: 1
EndChar

StartChar: semicolon
Encoding: 59 59 30
Width: 424
GlyphClass: 2
Flags: W
LayerCount: 2
Fore
SplineSet
328 858 m 256,0,1
 328 808 328 808 296.5 774 c 128,-1,2
 265 740 265 740 212 740 c 256,3,4
 159 740 159 740 127.5 774 c 128,-1,5
 96 808 96 808 96 858 c 256,6,7
 96 908 96 908 127.5 942 c 128,-1,8
 159 976 159 976 212 976 c 256,9,10
 265 976 265 976 296.5 942 c 128,-1,11
 328 908 328 908 328 858 c 256,0,1
324 84 m 0,12,13
 324 49 324 49 315 5 c 128,-1,14
 306 -39 306 -39 289 -85.5 c 128,-1,15
 272 -132 272 -132 247.5 -178.5 c 128,-1,16
 223 -225 223 -225 192 -266 c 0,17,18
 180 -284 180 -284 164 -284 c 0,19,20
 159 -284 159 -284 152.5 -282.5 c 128,-1,21
 146 -281 146 -281 140 -278 c 2,22,-1
 132 -274 l 2,23,24
 110 -261 110 -261 110 -248 c 0,25,26
 110 -239 110 -239 118 -226 c 0,27,28
 144 -179 144 -179 157 -139.5 c 128,-1,29
 170 -100 170 -100 170 -74 c 0,30,31
 170 -45 170 -45 159 -24 c 128,-1,32
 148 -3 148 -3 135 16.5 c 128,-1,33
 122 36 122 36 111 56.5 c 128,-1,34
 100 77 100 77 100 106 c 0,35,36
 100 128 100 128 107.5 149 c 128,-1,37
 115 170 115 170 130 185.5 c 128,-1,38
 145 201 145 201 166 210.5 c 128,-1,39
 187 220 187 220 214 220 c 0,40,41
 268 220 268 220 296 183.5 c 128,-1,42
 324 147 324 147 324 84 c 0,12,13
EndSplineSet
Validated: 1
EndChar

StartChar: less
Encoding: 60 60 31
Width: 1064
GlyphClass: 2
Flags: W
LayerCount: 2
Fore
SplineSet
826 910 m 2,0,1
 838 916 838 916 846 916 c 0,2,3
 865 916 865 916 876 896 c 2,4,-1
 900 852 l 2,5,6
 903 846 903 846 905.5 839.5 c 128,-1,7
 908 833 908 833 908 828 c 0,8,9
 908 815 908 815 888 804 c 2,10,-1
 286 482 l 1,11,-1
 888 160 l 2,12,13
 908 149 908 149 908 136 c 0,14,15
 908 131 908 131 905.5 124.5 c 128,-1,16
 903 118 903 118 900 112 c 2,17,-1
 876 68 l 2,18,19
 865 48 865 48 846 48 c 0,20,21
 838 48 838 48 826 54 c 2,22,-1
 178 402 l 2,23,24
 160 413 160 413 153 424.5 c 128,-1,25
 146 436 146 436 146 456 c 2,26,-1
 146 508 l 2,27,28
 146 528 146 528 153 539.5 c 128,-1,29
 160 551 160 551 178 562 c 2,30,-1
 826 910 l 2,0,1
EndSplineSet
Validated: 1
EndChar

StartChar: equal
Encoding: 61 61 32
Width: 1064
GlyphClass: 2
Flags: W
LayerCount: 2
Fore
SplineSet
148 236 m 2,0,1
 128 236 128 236 120 244 c 128,-1,2
 112 252 112 252 112 272 c 2,3,-1
 112 328 l 2,4,5
 112 348 112 348 120 356 c 128,-1,6
 128 364 128 364 148 364 c 2,7,-1
 916 364 l 2,8,9
 936 364 936 364 944 356 c 128,-1,10
 952 348 952 348 952 328 c 2,11,-1
 952 272 l 2,12,13
 952 252 952 252 944 244 c 128,-1,14
 936 236 936 236 916 236 c 2,15,-1
 148 236 l 2,0,1
148 596 m 2,16,17
 128 596 128 596 120 604 c 128,-1,18
 112 612 112 612 112 632 c 2,19,-1
 112 688 l 2,20,21
 112 708 112 708 120 716 c 128,-1,22
 128 724 128 724 148 724 c 2,23,-1
 916 724 l 2,24,25
 936 724 936 724 944 716 c 128,-1,26
 952 708 952 708 952 688 c 2,27,-1
 952 632 l 2,28,29
 952 612 952 612 944 604 c 128,-1,30
 936 596 936 596 916 596 c 2,31,-1
 148 596 l 2,16,17
EndSplineSet
Validated: 1
EndChar

StartChar: greater
Encoding: 62 62 33
Width: 1064
GlyphClass: 2
Flags: W
LayerCount: 2
Fore
SplineSet
238 54 m 2,0,1
 226 48 226 48 218 48 c 0,2,3
 199 48 199 48 188 68 c 2,4,-1
 164 112 l 2,5,6
 161 118 161 118 158.5 124.5 c 128,-1,7
 156 131 156 131 156 136 c 0,8,9
 156 149 156 149 176 160 c 2,10,-1
 778 482 l 1,11,-1
 176 804 l 2,12,13
 156 815 156 815 156 828 c 0,14,15
 156 833 156 833 158.5 839.5 c 128,-1,16
 161 846 161 846 164 852 c 2,17,-1
 188 896 l 2,18,19
 199 916 199 916 218 916 c 0,20,21
 226 916 226 916 238 910 c 2,22,-1
 886 562 l 2,23,24
 904 551 904 551 911 539.5 c 128,-1,25
 918 528 918 528 918 508 c 2,26,-1
 918 456 l 2,27,28
 918 436 918 436 911 424.5 c 128,-1,29
 904 413 904 413 886 402 c 2,30,-1
 238 54 l 2,0,1
EndSplineSet
Validated: 1
EndChar

StartChar: question
Encoding: 63 63 34
Width: 854
GlyphClass: 2
Flags: W
LayerCount: 2
Fore
SplineSet
358 360 m 2,0,1
 340 360 340 360 329.5 368 c 128,-1,2
 319 376 319 376 316 396 c 0,3,4
 311 422 311 422 308.5 446.5 c 128,-1,5
 306 471 306 471 306 492 c 0,6,7
 306 547 306 547 320.5 589 c 128,-1,8
 335 631 335 631 360.5 666 c 128,-1,9
 386 701 386 701 420.5 731 c 128,-1,10
 455 761 455 761 494 792 c 0,11,12
 528 818 528 818 555.5 842.5 c 128,-1,13
 583 867 583 867 602.5 894 c 128,-1,14
 622 921 622 921 633 952 c 128,-1,15
 644 983 644 983 644 1022 c 0,16,17
 644 1062 644 1062 631.5 1096 c 128,-1,18
 619 1130 619 1130 593 1155.5 c 128,-1,19
 567 1181 567 1181 526 1195.5 c 128,-1,20
 485 1210 485 1210 428 1210 c 0,21,22
 345 1210 345 1210 278.5 1181.5 c 128,-1,23
 212 1153 212 1153 162 1112 c 0,24,25
 134 1090 134 1090 112 1118 c 2,26,-1
 80 1162 l 2,27,28
 60 1190 60 1190 86 1216 c 0,29,30
 112 1241 112 1241 146.5 1264 c 128,-1,31
 181 1287 181 1287 224.5 1305 c 128,-1,32
 268 1323 268 1323 320.5 1333.5 c 128,-1,33
 373 1344 373 1344 436 1344 c 0,34,35
 530 1344 530 1344 600.5 1319.5 c 128,-1,36
 671 1295 671 1295 717.5 1252.5 c 128,-1,37
 764 1210 764 1210 787 1152.5 c 128,-1,38
 810 1095 810 1095 810 1028 c 0,39,40
 810 958 810 958 787.5 906 c 128,-1,41
 765 854 765 854 730.5 813 c 128,-1,42
 696 772 696 772 654.5 739.5 c 128,-1,43
 613 707 613 707 574 676 c 0,44,45
 533 644 533 644 504.5 614.5 c 128,-1,46
 476 585 476 585 456.5 553 c 128,-1,47
 437 521 437 521 425.5 483 c 128,-1,48
 414 445 414 445 408 396 c 0,49,50
 405 376 405 376 396.5 368 c 128,-1,51
 388 360 388 360 368 360 c 2,52,-1
 358 360 l 2,0,1
492 102 m 256,53,54
 492 52 492 52 460.5 18 c 128,-1,55
 429 -16 429 -16 376 -16 c 256,56,57
 323 -16 323 -16 291.5 18 c 128,-1,58
 260 52 260 52 260 102 c 256,59,60
 260 152 260 152 291.5 186 c 128,-1,61
 323 220 323 220 376 220 c 256,62,63
 429 220 429 220 460.5 186 c 128,-1,64
 492 152 492 152 492 102 c 256,53,54
EndSplineSet
Validated: 1
EndChar

StartChar: at
Encoding: 64 64 35
Width: 1618
GlyphClass: 2
Flags: W
LayerCount: 2
Fore
SplineSet
1138 -140 m 0,0,1
 1078 -173 1078 -173 989 -200.5 c 128,-1,2
 900 -228 900 -228 786 -228 c 0,3,4
 636 -228 636 -228 511 -175 c 128,-1,5
 386 -122 386 -122 296 -26.5 c 128,-1,6
 206 69 206 69 156 201.5 c 128,-1,7
 106 334 106 334 106 492 c 0,8,9
 106 652 106 652 157.5 784.5 c 128,-1,10
 209 917 209 917 303.5 1012 c 128,-1,11
 398 1107 398 1107 530.5 1159.5 c 128,-1,12
 663 1212 663 1212 826 1212 c 0,13,14
 981 1212 981 1212 1107.5 1164 c 128,-1,15
 1234 1116 1234 1116 1323.5 1030 c 128,-1,16
 1413 944 1413 944 1461.5 824.5 c 128,-1,17
 1510 705 1510 705 1510 562 c 0,18,19
 1510 476 1510 476 1491 392 c 128,-1,20
 1472 308 1472 308 1433 242 c 128,-1,21
 1394 176 1394 176 1333.5 135 c 128,-1,22
 1273 94 1273 94 1190 94 c 0,23,24
 1149 94 1149 94 1115.5 104 c 128,-1,25
 1082 114 1082 114 1057 131 c 128,-1,26
 1032 148 1032 148 1015 170.5 c 128,-1,27
 998 193 998 193 990 218 c 1,28,29
 957 174 957 174 900.5 144 c 128,-1,30
 844 114 844 114 760 114 c 0,31,32
 686 114 686 114 628.5 139.5 c 128,-1,33
 571 165 571 165 530.5 214 c 128,-1,34
 490 263 490 263 469 333.5 c 128,-1,35
 448 404 448 404 448 494 c 0,36,37
 448 583 448 583 469 654 c 128,-1,38
 490 725 490 725 530 774.5 c 128,-1,39
 570 824 570 824 628.5 850 c 128,-1,40
 687 876 687 876 762 876 c 0,41,42
 803 876 803 876 836.5 868.5 c 128,-1,43
 870 861 870 861 897 848 c 128,-1,44
 924 835 924 835 944 818 c 128,-1,45
 964 801 964 801 978 782 c 1,46,-1
 978 826 l 2,47,48
 978 846 978 846 986 854 c 128,-1,49
 994 862 994 862 1014 862 c 2,50,-1
 1064 862 l 2,51,52
 1084 862 1084 862 1092 854 c 128,-1,53
 1100 846 1100 846 1100 826 c 2,54,-1
 1100 306 l 2,55,56
 1100 253 1100 253 1124 222.5 c 128,-1,57
 1148 192 1148 192 1198 192 c 0,58,59
 1241 192 1241 192 1278 216 c 128,-1,60
 1315 240 1315 240 1342.5 285 c 128,-1,61
 1370 330 1370 330 1386 395.5 c 128,-1,62
 1402 461 1402 461 1402 544 c 0,63,64
 1402 677 1402 677 1360.5 783 c 128,-1,65
 1319 889 1319 889 1243.5 963 c 128,-1,66
 1168 1037 1168 1037 1062 1076.5 c 128,-1,67
 956 1116 956 1116 826 1116 c 0,68,69
 694 1116 694 1116 583 1074 c 128,-1,70
 472 1032 472 1032 391 952.5 c 128,-1,71
 310 873 310 873 265 756.5 c 128,-1,72
 220 640 220 640 220 492 c 0,73,74
 220 346 220 346 263.5 230.5 c 128,-1,75
 307 115 307 115 383.5 34.5 c 128,-1,76
 460 -46 460 -46 564 -89 c 128,-1,77
 668 -132 668 -132 790 -132 c 0,78,79
 882 -132 882 -132 958.5 -110 c 128,-1,80
 1035 -88 1035 -88 1092 -56 c 0,81,82
 1123 -39 1123 -39 1140 -70 c 2,83,-1
 1152 -92 l 2,84,85
 1169 -121 1169 -121 1138 -140 c 0,0,1
584 496 m 256,86,87
 584 356 584 356 638 287 c 128,-1,88
 692 218 692 218 790 218 c 0,89,90
 844 218 844 218 889 240.5 c 128,-1,91
 934 263 934 263 970 316 c 1,92,-1
 970 674 l 1,93,94
 934 728 934 728 889 751 c 128,-1,95
 844 774 844 774 790 774 c 0,96,97
 692 774 692 774 638 705 c 128,-1,98
 584 636 584 636 584 496 c 256,86,87
EndSplineSet
Validated: 1
EndChar

StartChar: A
Encoding: 65 65 36
Width: 1218
GlyphClass: 2
Flags: W
LayerCount: 2
Fore
SplineSet
86 0 m 2,0,1
 56 0 56 0 56 20 c 0,2,3
 56 26 56 26 57 31.5 c 128,-1,4
 58 37 58 37 60 42 c 0,5,6
 163 391 163 391 275.5 703.5 c 128,-1,7
 388 1016 388 1016 520 1292 c 0,8,9
 529 1310 529 1310 540.5 1317 c 128,-1,10
 552 1324 552 1324 572 1324 c 2,11,-1
 644 1324 l 2,12,13
 664 1324 664 1324 675.5 1317 c 128,-1,14
 687 1310 687 1310 696 1292 c 0,15,16
 823 1023 823 1023 940.5 708 c 128,-1,17
 1058 393 1058 393 1156 50 c 0,18,19
 1159 39 1159 39 1160.5 34 c 128,-1,20
 1162 29 1162 29 1162 24 c 0,21,22
 1162 0 1162 0 1130 0 c 2,23,-1
 1036 0 l 2,24,25
 998 0 998 0 990 34 c 0,26,27
 964 126 964 126 941.5 203 c 128,-1,28
 919 280 919 280 896 360 c 1,29,-1
 314 360 l 1,30,31
 290 280 290 280 267.5 201.5 c 128,-1,32
 245 123 245 123 220 30 c 0,33,34
 215 12 215 12 205.5 6 c 128,-1,35
 196 0 196 0 176 0 c 2,36,-1
 86 0 l 2,0,1
852 492 m 1,37,38
 793 675 793 675 731 839.5 c 128,-1,39
 669 1004 669 1004 604 1152 c 1,40,41
 539 1004 539 1004 478 839.5 c 128,-1,42
 417 675 417 675 358 492 c 1,43,-1
 852 492 l 1,37,38
EndSplineSet
Validated: 1
EndChar

StartChar: B
Encoding: 66 66 37
Width: 1146
GlyphClass: 2
Flags: W
LayerCount: 2
Fore
SplineSet
198 0 m 2,0,1
 178 0 178 0 170 8 c 128,-1,2
 162 16 162 16 162 36 c 2,3,-1
 162 1288 l 2,4,5
 162 1308 162 1308 170 1316 c 128,-1,6
 178 1324 178 1324 198 1324 c 2,7,-1
 552 1324 l 2,8,9
 673 1324 673 1324 758 1296.5 c 128,-1,10
 843 1269 843 1269 897 1221.5 c 128,-1,11
 951 1174 951 1174 975.5 1111 c 128,-1,12
 1000 1048 1000 1048 1000 978 c 0,13,14
 1000 883 1000 883 956.5 806 c 128,-1,15
 913 729 913 729 814 684 c 1,16,17
 879 665 879 665 926 633 c 128,-1,18
 973 601 973 601 1003 559 c 128,-1,19
 1033 517 1033 517 1047.5 466.5 c 128,-1,20
 1062 416 1062 416 1062 360 c 0,21,22
 1062 289 1062 289 1037 224 c 128,-1,23
 1012 159 1012 159 957.5 109.5 c 128,-1,24
 903 60 903 60 817 30 c 128,-1,25
 731 0 731 0 610 0 c 2,26,-1
 198 0 l 2,0,1
326 136 m 1,27,-1
 616 136 l 2,28,29
 692 136 692 136 745 154.5 c 128,-1,30
 798 173 798 173 831 204.5 c 128,-1,31
 864 236 864 236 879 278.5 c 128,-1,32
 894 321 894 321 894 368 c 0,33,34
 894 416 894 416 880 459 c 128,-1,35
 866 502 866 502 833.5 535 c 128,-1,36
 801 568 801 568 748.5 587 c 128,-1,37
 696 606 696 606 620 606 c 2,38,-1
 326 606 l 1,39,-1
 326 136 l 1,27,-1
326 738 m 1,40,-1
 560 738 l 2,41,42
 636 738 636 738 688 756 c 128,-1,43
 740 774 740 774 772 805.5 c 128,-1,44
 804 837 804 837 818 878 c 128,-1,45
 832 919 832 919 832 966 c 0,46,47
 832 1012 832 1012 818 1052.5 c 128,-1,48
 804 1093 804 1093 772 1123 c 128,-1,49
 740 1153 740 1153 688.5 1170.5 c 128,-1,50
 637 1188 637 1188 562 1188 c 2,51,-1
 326 1188 l 1,52,-1
 326 738 l 1,40,-1
EndSplineSet
Validated: 1
EndChar

StartChar: C
Encoding: 67 67 38
Width: 1194
GlyphClass: 2
Flags: W
LayerCount: 2
Fore
SplineSet
1096 124 m 0,0,1
 1011 49 1011 49 905.5 14.5 c 128,-1,2
 800 -20 800 -20 682 -20 c 0,3,4
 575 -20 575 -20 489.5 7 c 128,-1,5
 404 34 404 34 338.5 81 c 128,-1,6
 273 128 273 128 226.5 193 c 128,-1,7
 180 258 180 258 150 334 c 128,-1,8
 120 410 120 410 106 494 c 128,-1,9
 92 578 92 578 92 664 c 256,10,11
 92 750 92 750 106 834 c 128,-1,12
 120 918 120 918 150 993.5 c 128,-1,13
 180 1069 180 1069 227 1133 c 128,-1,14
 274 1197 274 1197 339.5 1244 c 128,-1,15
 405 1291 405 1291 490.5 1317.5 c 128,-1,16
 576 1344 576 1344 684 1344 c 0,17,18
 799 1344 799 1344 900 1313 c 128,-1,19
 1001 1282 1001 1282 1082 1214 c 0,20,21
 1109 1190 1109 1190 1086 1162 c 2,22,-1
 1040 1104 l 2,23,24
 1028 1087 1028 1087 1015.5 1086.5 c 128,-1,25
 1003 1086 1003 1086 988 1098 c 0,26,27
 929 1145 929 1145 852 1173.5 c 128,-1,28
 775 1202 775 1202 680 1202 c 0,29,30
 569 1202 569 1202 489.5 1161 c 128,-1,31
 410 1120 410 1120 359 1048 c 128,-1,32
 308 976 308 976 284 877.5 c 128,-1,33
 260 779 260 779 260 664 c 256,34,35
 260 549 260 549 284 450 c 128,-1,36
 308 351 308 351 359 278 c 128,-1,37
 410 205 410 205 489.5 163.5 c 128,-1,38
 569 122 569 122 680 122 c 0,39,40
 780 122 780 122 862 154.5 c 128,-1,41
 944 187 944 187 1006 240 c 0,42,43
 1033 264 1033 264 1054 234 c 2,44,-1
 1100 176 l 2,45,46
 1123 148 1123 148 1096 124 c 0,0,1
EndSplineSet
Validated: 1
EndChar

StartChar: D
Encoding: 68 68 39
Width: 1290
GlyphClass: 2
Flags: W
LayerCount: 2
Fore
SplineSet
198 0 m 2,0,1
 178 0 178 0 170 8 c 128,-1,2
 162 16 162 16 162 36 c 2,3,-1
 162 1288 l 2,4,5
 162 1308 162 1308 170 1316 c 128,-1,6
 178 1324 178 1324 198 1324 c 2,7,-1
 562 1324 l 2,8,9
 678 1324 678 1324 770 1298.5 c 128,-1,10
 862 1273 862 1273 932.5 1227 c 128,-1,11
 1003 1181 1003 1181 1053.5 1119 c 128,-1,12
 1104 1057 1104 1057 1136 983 c 128,-1,13
 1168 909 1168 909 1183 827.5 c 128,-1,14
 1198 746 1198 746 1198 662 c 256,15,16
 1198 578 1198 578 1183 496.5 c 128,-1,17
 1168 415 1168 415 1136 341 c 128,-1,18
 1104 267 1104 267 1053.5 205 c 128,-1,19
 1003 143 1003 143 932.5 97 c 128,-1,20
 862 51 862 51 769.5 25.5 c 128,-1,21
 677 0 677 0 562 0 c 2,22,-1
 198 0 l 2,0,1
326 1188 m 1,23,-1
 326 136 l 1,24,-1
 554 136 l 2,25,26
 680 136 680 136 770 175 c 128,-1,27
 860 214 860 214 918 283.5 c 128,-1,28
 976 353 976 353 1003 449.5 c 128,-1,29
 1030 546 1030 546 1030 662 c 0,30,31
 1030 777 1030 777 1003 874 c 128,-1,32
 976 971 976 971 918 1040.5 c 128,-1,33
 860 1110 860 1110 770 1149 c 128,-1,34
 680 1188 680 1188 554 1188 c 2,35,-1
 326 1188 l 1,23,-1
EndSplineSet
Validated: 1
EndChar

StartChar: E
Encoding: 69 69 40
Width: 1054
GlyphClass: 2
Flags: W
LayerCount: 2
Fore
SplineSet
198 0 m 2,0,1
 178 0 178 0 170 8 c 128,-1,2
 162 16 162 16 162 36 c 2,3,-1
 162 1288 l 2,4,5
 162 1308 162 1308 170 1316 c 128,-1,6
 178 1324 178 1324 198 1324 c 2,7,-1
 906 1324 l 2,8,9
 926 1324 926 1324 934 1316 c 128,-1,10
 942 1308 942 1308 942 1288 c 2,11,-1
 942 1224 l 2,12,13
 942 1204 942 1204 934 1196 c 128,-1,14
 926 1188 926 1188 906 1188 c 2,15,-1
 326 1188 l 1,16,-1
 326 756 l 1,17,-1
 842 756 l 2,18,19
 862 756 862 756 870 748 c 128,-1,20
 878 740 878 740 878 720 c 2,21,-1
 878 656 l 2,22,23
 878 636 878 636 870 628 c 128,-1,24
 862 620 862 620 842 620 c 2,25,-1
 326 620 l 1,26,-1
 326 136 l 1,27,-1
 906 136 l 2,28,29
 926 136 926 136 934 128 c 128,-1,30
 942 120 942 120 942 100 c 2,31,-1
 942 36 l 2,32,33
 942 16 942 16 934 8 c 128,-1,34
 926 0 926 0 906 0 c 2,35,-1
 198 0 l 2,0,1
EndSplineSet
Validated: 1
EndChar

StartChar: F
Encoding: 70 70 41
Width: 1004
GlyphClass: 2
Flags: W
LayerCount: 2
Fore
SplineSet
198 0 m 2,0,1
 178 0 178 0 170 8 c 128,-1,2
 162 16 162 16 162 36 c 2,3,-1
 162 1288 l 2,4,5
 162 1308 162 1308 170 1316 c 128,-1,6
 178 1324 178 1324 198 1324 c 2,7,-1
 892 1324 l 2,8,9
 912 1324 912 1324 920 1316 c 128,-1,10
 928 1308 928 1308 928 1288 c 2,11,-1
 928 1224 l 2,12,13
 928 1204 928 1204 920 1196 c 128,-1,14
 912 1188 912 1188 892 1188 c 2,15,-1
 326 1188 l 1,16,-1
 326 722 l 1,17,-1
 816 722 l 2,18,19
 836 722 836 722 844 714 c 128,-1,20
 852 706 852 706 852 686 c 2,21,-1
 852 622 l 2,22,23
 852 602 852 602 844 594 c 128,-1,24
 836 586 836 586 816 586 c 2,25,-1
 326 586 l 1,26,-1
 326 36 l 2,27,28
 326 16 326 16 318 8 c 128,-1,29
 310 0 310 0 290 0 c 2,30,-1
 198 0 l 2,0,1
EndSplineSet
Validated: 1
EndChar

StartChar: G
Encoding: 71 71 42
Width: 1320
GlyphClass: 2
Flags: W
LayerCount: 2
Fore
SplineSet
1142 92 m 0,0,1
 1047 36 1047 36 934 8 c 128,-1,2
 821 -20 821 -20 706 -20 c 0,3,4
 592 -20 592 -20 501.5 6.5 c 128,-1,5
 411 33 411 33 343 79.5 c 128,-1,6
 275 126 275 126 227 190 c 128,-1,7
 179 254 179 254 149 328.5 c 128,-1,8
 119 403 119 403 105.5 485.5 c 128,-1,9
 92 568 92 568 92 652 c 0,10,11
 92 738 92 738 106 822.5 c 128,-1,12
 120 907 120 907 150 984 c 128,-1,13
 180 1061 180 1061 226.5 1127 c 128,-1,14
 273 1193 273 1193 339.5 1241 c 128,-1,15
 406 1289 406 1289 492.5 1316.5 c 128,-1,16
 579 1344 579 1344 688 1344 c 0,17,18
 804 1344 804 1344 912.5 1309.5 c 128,-1,19
 1021 1275 1021 1275 1104 1200 c 0,20,21
 1131 1176 1131 1176 1108 1148 c 2,22,-1
 1062 1090 l 2,23,24
 1051 1075 1051 1075 1040 1073.5 c 128,-1,25
 1029 1072 1029 1072 1014 1084 c 0,26,27
 954 1135 954 1135 869.5 1168.5 c 128,-1,28
 785 1202 785 1202 682 1202 c 0,29,30
 570 1202 570 1202 490 1159 c 128,-1,31
 410 1116 410 1116 359 1041.5 c 128,-1,32
 308 967 308 967 284 867 c 128,-1,33
 260 767 260 767 260 652 c 0,34,35
 260 536 260 536 284.5 438 c 128,-1,36
 309 340 309 340 362.5 268.5 c 128,-1,37
 416 197 416 197 500.5 156.5 c 128,-1,38
 585 116 585 116 706 116 c 0,39,40
 741 116 741 116 781 120 c 128,-1,41
 821 124 821 124 861 132.5 c 128,-1,42
 901 141 901 141 939.5 154.5 c 128,-1,43
 978 168 978 168 1010 188 c 1,44,-1
 1010 570 l 1,45,-1
 732 570 l 2,46,47
 712 570 712 570 704 578 c 128,-1,48
 696 586 696 586 696 606 c 2,49,-1
 696 670 l 2,50,51
 696 690 696 690 704 698 c 128,-1,52
 712 706 712 706 732 706 c 2,53,-1
 1136 706 l 2,54,55
 1156 706 1156 706 1164 698 c 128,-1,56
 1172 690 1172 690 1172 670 c 2,57,-1
 1172 146 l 2,58,59
 1172 128 1172 128 1164.5 115.5 c 128,-1,60
 1157 103 1157 103 1142 92 c 0,0,1
EndSplineSet
Validated: 1
EndChar

StartChar: H
Encoding: 72 72 43
Width: 1336
GlyphClass: 2
Flags: W
LayerCount: 2
Fore
SplineSet
198 0 m 2,0,1
 178 0 178 0 170 8 c 128,-1,2
 162 16 162 16 162 36 c 2,3,-1
 162 1288 l 2,4,5
 162 1308 162 1308 170 1316 c 128,-1,6
 178 1324 178 1324 198 1324 c 2,7,-1
 290 1324 l 2,8,9
 310 1324 310 1324 318 1316 c 128,-1,10
 326 1308 326 1308 326 1288 c 2,11,-1
 326 736 l 1,12,-1
 1010 736 l 1,13,-1
 1010 1288 l 2,14,15
 1010 1308 1010 1308 1018 1316 c 128,-1,16
 1026 1324 1026 1324 1046 1324 c 2,17,-1
 1138 1324 l 2,18,19
 1158 1324 1158 1324 1166 1316 c 128,-1,20
 1174 1308 1174 1308 1174 1288 c 2,21,-1
 1174 36 l 2,22,23
 1174 16 1174 16 1166 8 c 128,-1,24
 1158 0 1158 0 1138 0 c 2,25,-1
 1046 0 l 2,26,27
 1026 0 1026 0 1018 8 c 128,-1,28
 1010 16 1010 16 1010 36 c 2,29,-1
 1010 600 l 1,30,-1
 326 600 l 1,31,-1
 326 36 l 2,32,33
 326 16 326 16 318 8 c 128,-1,34
 310 0 310 0 290 0 c 2,35,-1
 198 0 l 2,0,1
EndSplineSet
Validated: 1
EndChar

StartChar: I
Encoding: 73 73 44
Width: 488
GlyphClass: 2
Flags: W
LayerCount: 2
Fore
SplineSet
198 0 m 2,0,1
 178 0 178 0 170 8 c 128,-1,2
 162 16 162 16 162 36 c 2,3,-1
 162 1288 l 2,4,5
 162 1308 162 1308 170 1316 c 128,-1,6
 178 1324 178 1324 198 1324 c 2,7,-1
 290 1324 l 2,8,9
 310 1324 310 1324 318 1316 c 128,-1,10
 326 1308 326 1308 326 1288 c 2,11,-1
 326 36 l 2,12,13
 326 16 326 16 318 8 c 128,-1,14
 310 0 310 0 290 0 c 2,15,-1
 198 0 l 2,0,1
EndSplineSet
Validated: 1
EndChar

StartChar: J
Encoding: 74 74 45
Width: 904
GlyphClass: 2
Flags: W
LayerCount: 2
Fore
SplineSet
754 438 m 1,0,1
 754 330 754 330 727 245 c 128,-1,2
 700 160 700 160 649 101 c 128,-1,3
 598 42 598 42 523 11 c 128,-1,4
 448 -20 448 -20 352 -20 c 0,5,6
 260 -20 260 -20 187 6 c 128,-1,7
 114 32 114 32 66 74 c 0,8,9
 39 95 39 95 58 126 c 2,10,-1
 98 184 l 2,11,12
 110 201 110 201 120.5 202.5 c 128,-1,13
 131 204 131 204 146 192 c 0,14,15
 184 160 184 160 235 140 c 128,-1,16
 286 120 286 120 348 120 c 0,17,18
 466 120 466 120 528 203 c 128,-1,19
 590 286 590 286 590 446 c 2,20,-1
 590 1288 l 2,21,22
 590 1308 590 1308 598 1316 c 128,-1,23
 606 1324 606 1324 626 1324 c 2,24,-1
 718 1324 l 2,25,26
 738 1324 738 1324 746 1316 c 128,-1,27
 754 1308 754 1308 754 1288 c 2,28,-1
 754 438 l 1,29,-1
 754 438 l 1,0,1
EndSplineSet
Validated: 5
EndChar

StartChar: K
Encoding: 75 75 46
Width: 1160
GlyphClass: 2
Flags: W
LayerCount: 2
Fore
SplineSet
984 0 m 2,0,1
 964 0 964 0 952.5 7 c 128,-1,2
 941 14 941 14 932 32 c 0,3,4
 897 107 897 107 850 188.5 c 128,-1,5
 803 270 803 270 748.5 351 c 128,-1,6
 694 432 694 432 633 508.5 c 128,-1,7
 572 585 572 585 508 650 c 1,8,9
 464 611 464 611 417.5 576.5 c 128,-1,10
 371 542 371 542 326 510 c 1,11,-1
 326 36 l 2,12,13
 326 16 326 16 318 8 c 128,-1,14
 310 0 310 0 290 0 c 2,15,-1
 198 0 l 2,16,17
 178 0 178 0 170 8 c 128,-1,18
 162 16 162 16 162 36 c 2,19,-1
 162 1288 l 2,20,21
 162 1308 162 1308 170 1316 c 128,-1,22
 178 1324 178 1324 198 1324 c 2,23,-1
 290 1324 l 2,24,25
 310 1324 310 1324 318 1316 c 128,-1,26
 326 1308 326 1308 326 1288 c 2,27,-1
 326 670 l 1,28,29
 402 726 402 726 480.5 803.5 c 128,-1,30
 559 881 559 881 632.5 965.5 c 128,-1,31
 706 1050 706 1050 769.5 1135.5 c 128,-1,32
 833 1221 833 1221 878 1294 c 0,33,34
 889 1311 889 1311 900.5 1317.5 c 128,-1,35
 912 1324 912 1324 932 1324 c 2,36,-1
 1038 1324 l 2,37,38
 1055 1324 1055 1324 1060 1315.5 c 128,-1,39
 1065 1307 1065 1307 1056 1292 c 0,40,41
 973 1150 973 1150 862 1012 c 128,-1,42
 751 874 751 874 624 752 c 1,43,44
 694 681 694 681 765.5 592 c 128,-1,45
 837 503 837 503 901.5 408 c 128,-1,46
 966 313 966 313 1021.5 216.5 c 128,-1,47
 1077 120 1077 120 1116 34 c 0,48,49
 1128 0 1128 0 1094 0 c 2,50,-1
 984 0 l 2,0,1
EndSplineSet
Validated: 1
EndChar

StartChar: L
Encoding: 76 76 47
Width: 940
GlyphClass: 2
Flags: W
LayerCount: 2
Fore
SplineSet
198 0 m 2,0,1
 178 0 178 0 170 8 c 128,-1,2
 162 16 162 16 162 36 c 2,3,-1
 162 1288 l 2,4,5
 162 1308 162 1308 170 1316 c 128,-1,6
 178 1324 178 1324 198 1324 c 2,7,-1
 290 1324 l 2,8,9
 310 1324 310 1324 318 1316 c 128,-1,10
 326 1308 326 1308 326 1288 c 2,11,-1
 326 136 l 1,12,-1
 870 136 l 2,13,14
 890 136 890 136 898 128 c 128,-1,15
 906 120 906 120 906 100 c 2,16,-1
 906 36 l 2,17,18
 906 16 906 16 898 8 c 128,-1,19
 890 0 890 0 870 0 c 2,20,-1
 198 0 l 2,0,1
EndSplineSet
Validated: 1
EndChar

StartChar: M
Encoding: 77 77 48
Width: 1554
GlyphClass: 2
Flags: W
LayerCount: 2
Fore
SplineSet
198 0 m 2,0,1
 178 0 178 0 170 8 c 128,-1,2
 162 16 162 16 162 36 c 2,3,-1
 162 1288 l 2,4,5
 162 1308 162 1308 170 1316 c 128,-1,6
 178 1324 178 1324 198 1324 c 2,7,-1
 322 1324 l 2,8,9
 342 1324 342 1324 353.5 1317 c 128,-1,10
 365 1310 365 1310 376 1292 c 2,11,-1
 780 586 l 1,12,-1
 1186 1292 l 2,13,14
 1197 1310 1197 1310 1208.5 1317 c 128,-1,15
 1220 1324 1220 1324 1240 1324 c 2,16,-1
 1356 1324 l 2,17,18
 1376 1324 1376 1324 1384 1316 c 128,-1,19
 1392 1308 1392 1308 1392 1288 c 2,20,-1
 1392 36 l 2,21,22
 1392 16 1392 16 1384 8 c 128,-1,23
 1376 0 1376 0 1356 0 c 2,24,-1
 1278 0 l 2,25,26
 1258 0 1258 0 1250 8 c 128,-1,27
 1242 16 1242 16 1242 36 c 2,28,-1
 1242 1128 l 1,29,-1
 844 434 l 2,30,31
 833 416 833 416 821.5 409 c 128,-1,32
 810 402 810 402 790 402 c 2,33,-1
 764 402 l 2,34,35
 744 402 744 402 732.5 409 c 128,-1,36
 721 416 721 416 710 434 c 2,37,-1
 312 1128 l 1,38,-1
 312 36 l 2,39,40
 312 16 312 16 304 8 c 128,-1,41
 296 0 296 0 276 0 c 2,42,-1
 198 0 l 2,0,1
EndSplineSet
Validated: 1
EndChar

StartChar: N
Encoding: 78 78 49
Width: 1340
GlyphClass: 2
Flags: W
LayerCount: 2
Fore
SplineSet
198 0 m 2,0,1
 178 0 178 0 170 8 c 128,-1,2
 162 16 162 16 162 36 c 2,3,-1
 162 1288 l 2,4,5
 162 1308 162 1308 170 1316 c 128,-1,6
 178 1324 178 1324 198 1324 c 2,7,-1
 310 1324 l 2,8,9
 330 1324 330 1324 342.5 1317.5 c 128,-1,10
 355 1311 355 1311 364 1294 c 2,11,-1
 1028 208 l 1,12,-1
 1028 1288 l 2,13,14
 1028 1308 1028 1308 1036 1316 c 128,-1,15
 1044 1324 1044 1324 1064 1324 c 2,16,-1
 1142 1324 l 2,17,18
 1162 1324 1162 1324 1170 1316 c 128,-1,19
 1178 1308 1178 1308 1178 1288 c 2,20,-1
 1178 36 l 2,21,22
 1178 16 1178 16 1170 8 c 128,-1,23
 1162 0 1162 0 1142 0 c 2,24,-1
 1030 0 l 2,25,26
 1010 0 1010 0 997.5 6.5 c 128,-1,27
 985 13 985 13 976 30 c 2,28,-1
 312 1116 l 1,29,-1
 312 36 l 2,30,31
 312 16 312 16 304 8 c 128,-1,32
 296 0 296 0 276 0 c 2,33,-1
 198 0 l 2,0,1
EndSplineSet
Validated: 1
EndChar

StartChar: O
Encoding: 79 79 50
Width: 1388
GlyphClass: 2
Flags: W
LayerCount: 2
Fore
SplineSet
260 662 m 256,0,1
 260 547 260 547 287 447.5 c 128,-1,2
 314 348 314 348 368 274.5 c 128,-1,3
 422 201 422 201 503.5 158.5 c 128,-1,4
 585 116 585 116 694 116 c 256,5,6
 803 116 803 116 884.5 158.5 c 128,-1,7
 966 201 966 201 1020 274.5 c 128,-1,8
 1074 348 1074 348 1101 447.5 c 128,-1,9
 1128 547 1128 547 1128 662 c 256,10,11
 1128 777 1128 777 1101 876.5 c 128,-1,12
 1074 976 1074 976 1020 1049.5 c 128,-1,13
 966 1123 966 1123 884.5 1165.5 c 128,-1,14
 803 1208 803 1208 694 1208 c 256,15,16
 585 1208 585 1208 503.5 1165.5 c 128,-1,17
 422 1123 422 1123 368 1049.5 c 128,-1,18
 314 976 314 976 287 876.5 c 128,-1,19
 260 777 260 777 260 662 c 256,0,1
1296 662 m 0,20,21
 1296 521 1296 521 1255.5 397 c 128,-1,22
 1215 273 1215 273 1138 180 c 128,-1,23
 1061 87 1061 87 949 33.5 c 128,-1,24
 837 -20 837 -20 694 -20 c 0,25,26
 548 -20 548 -20 436 33 c 128,-1,27
 324 86 324 86 247.5 178.5 c 128,-1,28
 171 271 171 271 131.5 395 c 128,-1,29
 92 519 92 519 92 662 c 0,30,31
 92 803 92 803 132.5 927 c 128,-1,32
 173 1051 173 1051 250 1144 c 128,-1,33
 327 1237 327 1237 439 1290.5 c 128,-1,34
 551 1344 551 1344 694 1344 c 0,35,36
 839 1344 839 1344 951.5 1291 c 128,-1,37
 1064 1238 1064 1238 1140.5 1145.5 c 128,-1,38
 1217 1053 1217 1053 1256.5 928.5 c 128,-1,39
 1296 804 1296 804 1296 662 c 0,20,21
EndSplineSet
Validated: 1
EndChar

StartChar: P
Encoding: 80 80 51
Width: 1090
GlyphClass: 2
Flags: W
LayerCount: 2
Fore
SplineSet
198 0 m 2,0,1
 178 0 178 0 170 8 c 128,-1,2
 162 16 162 16 162 36 c 2,3,-1
 162 1288 l 2,4,5
 162 1308 162 1308 170 1316 c 128,-1,6
 178 1324 178 1324 198 1324 c 2,7,-1
 566 1324 l 2,8,9
 693 1324 693 1324 781.5 1289.5 c 128,-1,10
 870 1255 870 1255 925.5 1197 c 128,-1,11
 981 1139 981 1139 1006.5 1064 c 128,-1,12
 1032 989 1032 989 1032 908 c 0,13,14
 1032 825 1032 825 1005.5 748.5 c 128,-1,15
 979 672 979 672 922.5 613.5 c 128,-1,16
 866 555 866 555 778 520.5 c 128,-1,17
 690 486 690 486 568 486 c 2,18,-1
 326 486 l 1,19,-1
 326 36 l 2,20,21
 326 16 326 16 318 8 c 128,-1,22
 310 0 310 0 290 0 c 2,23,-1
 198 0 l 2,0,1
326 622 m 1,24,-1
 558 622 l 2,25,26
 646 622 646 622 704.5 644.5 c 128,-1,27
 763 667 763 667 798.5 705.5 c 128,-1,28
 834 744 834 744 849 795 c 128,-1,29
 864 846 864 846 864 904 c 256,30,31
 864 962 864 962 848.5 1013.5 c 128,-1,32
 833 1065 833 1065 797 1104 c 128,-1,33
 761 1143 761 1143 702.5 1165.5 c 128,-1,34
 644 1188 644 1188 558 1188 c 2,35,-1
 326 1188 l 1,36,-1
 326 622 l 1,24,-1
EndSplineSet
Validated: 1
EndChar

StartChar: Q
Encoding: 81 81 52
Width: 1388
GlyphClass: 2
Flags: W
LayerCount: 2
Fore
SplineSet
1004 -340 m 0,0,1
 933 -340 933 -340 876 -321.5 c 128,-1,2
 819 -303 819 -303 774 -264 c 128,-1,3
 729 -225 729 -225 697 -164 c 128,-1,4
 665 -103 665 -103 646 -18 c 1,5,6
 512 -9 512 -9 408.5 47 c 128,-1,7
 305 103 305 103 234.5 194.5 c 128,-1,8
 164 286 164 286 128 405.5 c 128,-1,9
 92 525 92 525 92 662 c 0,10,11
 92 803 92 803 132.5 927 c 128,-1,12
 173 1051 173 1051 250 1144 c 128,-1,13
 327 1237 327 1237 439 1290.5 c 128,-1,14
 551 1344 551 1344 694 1344 c 0,15,16
 839 1344 839 1344 951.5 1291 c 128,-1,17
 1064 1238 1064 1238 1140.5 1145.5 c 128,-1,18
 1217 1053 1217 1053 1256.5 928.5 c 128,-1,19
 1296 804 1296 804 1296 662 c 0,20,21
 1296 534 1296 534 1263 420 c 128,-1,22
 1230 306 1230 306 1166.5 216 c 128,-1,23
 1103 126 1103 126 1010.5 66.5 c 128,-1,24
 918 7 918 7 800 -12 c 1,25,26
 830 -113 830 -113 881 -162.5 c 128,-1,27
 932 -212 932 -212 1016 -212 c 0,28,29
 1042 -212 1042 -212 1061.5 -208 c 128,-1,30
 1081 -204 1081 -204 1098 -198 c 0,31,32
 1118 -190 1118 -190 1128.5 -194 c 128,-1,33
 1139 -198 1139 -198 1148 -216 c 2,34,-1
 1172 -262 l 2,35,36
 1190 -292 1190 -292 1156 -310 c 0,37,38
 1126 -324 1126 -324 1089 -332 c 128,-1,39
 1052 -340 1052 -340 1004 -340 c 0,0,1
260 662 m 256,40,41
 260 547 260 547 287 447.5 c 128,-1,42
 314 348 314 348 368 274.5 c 128,-1,43
 422 201 422 201 503.5 158.5 c 128,-1,44
 585 116 585 116 694 116 c 256,45,46
 803 116 803 116 884.5 158.5 c 128,-1,47
 966 201 966 201 1020 274.5 c 128,-1,48
 1074 348 1074 348 1101 447.5 c 128,-1,49
 1128 547 1128 547 1128 662 c 256,50,51
 1128 777 1128 777 1101 876.5 c 128,-1,52
 1074 976 1074 976 1020 1049.5 c 128,-1,53
 966 1123 966 1123 884.5 1165.5 c 128,-1,54
 803 1208 803 1208 694 1208 c 256,55,56
 585 1208 585 1208 503.5 1165.5 c 128,-1,57
 422 1123 422 1123 368 1049.5 c 128,-1,58
 314 976 314 976 287 876.5 c 128,-1,59
 260 777 260 777 260 662 c 256,40,41
EndSplineSet
Validated: 1
EndChar

StartChar: R
Encoding: 82 82 53
Width: 1134
GlyphClass: 2
Flags: W
LayerCount: 2
Fore
SplineSet
198 0 m 2,0,1
 178 0 178 0 170 8 c 128,-1,2
 162 16 162 16 162 36 c 2,3,-1
 162 1288 l 2,4,5
 162 1308 162 1308 170 1316 c 128,-1,6
 178 1324 178 1324 198 1324 c 2,7,-1
 552 1324 l 2,8,9
 679 1324 679 1324 768 1292 c 128,-1,10
 857 1260 857 1260 912.5 1206 c 128,-1,11
 968 1152 968 1152 993 1082 c 128,-1,12
 1018 1012 1018 1012 1018 936 c 0,13,14
 1018 870 1018 870 998 810 c 128,-1,15
 978 750 978 750 938.5 701 c 128,-1,16
 899 652 899 652 839 616.5 c 128,-1,17
 779 581 779 581 700 564 c 1,18,19
 764 511 764 511 820.5 446 c 128,-1,20
 877 381 877 381 923.5 311 c 128,-1,21
 970 241 970 241 1007.5 170 c 128,-1,22
 1045 99 1045 99 1072 34 c 0,23,24
 1087 0 1087 0 1050 0 c 2,25,-1
 942 0 l 2,26,27
 922 0 922 0 911 7 c 128,-1,28
 900 14 900 14 892 34 c 0,29,30
 869 89 869 89 835.5 153 c 128,-1,31
 802 217 802 217 756.5 284 c 128,-1,32
 711 351 711 351 653.5 416.5 c 128,-1,33
 596 482 596 482 526 540 c 1,34,-1
 326 540 l 1,35,-1
 326 36 l 2,36,37
 326 16 326 16 318 8 c 128,-1,38
 310 0 310 0 290 0 c 2,39,-1
 198 0 l 2,0,1
326 676 m 1,40,-1
 558 676 l 2,41,42
 640 676 640 676 696 696 c 128,-1,43
 752 716 752 716 786.5 750.5 c 128,-1,44
 821 785 821 785 835.5 831 c 128,-1,45
 850 877 850 877 850 930 c 0,46,47
 850 982 850 982 835.5 1029 c 128,-1,48
 821 1076 821 1076 787.5 1111.5 c 128,-1,49
 754 1147 754 1147 698 1167.5 c 128,-1,50
 642 1188 642 1188 560 1188 c 2,51,-1
 326 1188 l 1,52,-1
 326 676 l 1,40,-1
EndSplineSet
Validated: 1
EndChar

StartChar: S
Encoding: 83 83 54
Width: 1044
GlyphClass: 2
Flags: W
LayerCount: 2
Fore
SplineSet
956 352 m 0,0,1
 956 266 956 266 924 197 c 128,-1,2
 892 128 892 128 832.5 80 c 128,-1,3
 773 32 773 32 689 6 c 128,-1,4
 605 -20 605 -20 502 -20 c 0,5,6
 434 -20 434 -20 375.5 -9.5 c 128,-1,7
 317 1 317 1 267.5 19 c 128,-1,8
 218 37 218 37 178 61 c 128,-1,9
 138 85 138 85 108 112 c 0,10,11
 82 135 82 135 102 164 c 2,12,-1
 150 224 l 2,13,14
 162 239 162 239 173.5 240.5 c 128,-1,15
 185 242 185 242 200 230 c 0,16,17
 260 180 260 180 334.5 151 c 128,-1,18
 409 122 409 122 504 122 c 0,19,20
 640 122 640 122 715 180.5 c 128,-1,21
 790 239 790 239 790 342 c 0,22,23
 790 396 790 396 768.5 434 c 128,-1,24
 747 472 747 472 708.5 500 c 128,-1,25
 670 528 670 528 617.5 548.5 c 128,-1,26
 565 569 565 569 504 588 c 0,27,28
 460 601 460 601 413.5 617 c 128,-1,29
 367 633 367 633 322.5 654.5 c 128,-1,30
 278 676 278 676 238 704 c 128,-1,31
 198 732 198 732 168.5 770.5 c 128,-1,32
 139 809 139 809 121.5 859 c 128,-1,33
 104 909 104 909 104 974 c 0,34,35
 104 1061 104 1061 136.5 1129.5 c 128,-1,36
 169 1198 169 1198 228 1246 c 128,-1,37
 287 1294 287 1294 370 1319 c 128,-1,38
 453 1344 453 1344 554 1344 c 0,39,40
 675 1344 675 1344 763.5 1313 c 128,-1,41
 852 1282 852 1282 908 1238 c 0,42,43
 936 1215 936 1215 916 1186 c 2,44,-1
 874 1126 l 2,45,46
 852 1098 852 1098 824 1118 c 0,47,48
 773 1156 773 1156 706 1179 c 128,-1,49
 639 1202 639 1202 550 1202 c 0,50,51
 473 1202 473 1202 420 1184 c 128,-1,52
 367 1166 367 1166 333.5 1135.5 c 128,-1,53
 300 1105 300 1105 285 1065 c 128,-1,54
 270 1025 270 1025 270 982 c 0,55,56
 270 928 270 928 291.5 889.5 c 128,-1,57
 313 851 313 851 350.5 822.5 c 128,-1,58
 388 794 388 794 440 773.5 c 128,-1,59
 492 753 492 753 554 734 c 0,60,61
 620 714 620 714 691 688 c 128,-1,62
 762 662 762 662 821 619.5 c 128,-1,63
 880 577 880 577 918 513 c 128,-1,64
 956 449 956 449 956 352 c 0,0,1
EndSplineSet
Validated: 1
EndChar

StartChar: T
Encoding: 84 84 55
Width: 1000
GlyphClass: 2
Flags: W
LayerCount: 2
Fore
SplineSet
454 0 m 2,0,1
 434 0 434 0 426 8 c 128,-1,2
 418 16 418 16 418 36 c 2,3,-1
 418 1188 l 1,4,-1
 66 1188 l 2,5,6
 46 1188 46 1188 38 1196 c 128,-1,7
 30 1204 30 1204 30 1224 c 2,8,-1
 30 1288 l 2,9,10
 30 1308 30 1308 38 1316 c 128,-1,11
 46 1324 46 1324 66 1324 c 2,12,-1
 934 1324 l 2,13,14
 954 1324 954 1324 962 1316 c 128,-1,15
 970 1308 970 1308 970 1288 c 2,16,-1
 970 1224 l 2,17,18
 970 1204 970 1204 962 1196 c 128,-1,19
 954 1188 954 1188 934 1188 c 2,20,-1
 582 1188 l 1,21,-1
 582 36 l 2,22,23
 582 16 582 16 574 8 c 128,-1,24
 566 0 566 0 546 0 c 2,25,-1
 454 0 l 2,0,1
EndSplineSet
Validated: 1
EndChar

StartChar: U
Encoding: 85 85 56
Width: 1272
GlyphClass: 2
Flags: W
LayerCount: 2
Fore
SplineSet
1126 512 m 1,0,1
 1126 383 1126 383 1092.5 283.5 c 128,-1,2
 1059 184 1059 184 996 116.5 c 128,-1,3
 933 49 933 49 842 14.5 c 128,-1,4
 751 -20 751 -20 636 -20 c 256,5,6
 521 -20 521 -20 430 14.5 c 128,-1,7
 339 49 339 49 276 116.5 c 128,-1,8
 213 184 213 184 179.5 283.5 c 128,-1,9
 146 383 146 383 146 512 c 2,10,-1
 146 1288 l 2,11,12
 146 1308 146 1308 154 1316 c 128,-1,13
 162 1324 162 1324 182 1324 c 2,14,-1
 274 1324 l 2,15,16
 294 1324 294 1324 302 1316 c 128,-1,17
 310 1308 310 1308 310 1288 c 2,18,-1
 310 506 l 2,19,20
 310 314 310 314 396.5 216 c 128,-1,21
 483 118 483 118 636 118 c 256,22,23
 789 118 789 118 875.5 216 c 128,-1,24
 962 314 962 314 962 506 c 2,25,-1
 962 1288 l 2,26,27
 962 1308 962 1308 970 1316 c 128,-1,28
 978 1324 978 1324 998 1324 c 2,29,-1
 1090 1324 l 2,30,31
 1110 1324 1110 1324 1118 1316 c 128,-1,32
 1126 1308 1126 1308 1126 1288 c 2,33,-1
 1126 512 l 1,34,-1
 1126 512 l 1,0,1
EndSplineSet
Validated: 5
EndChar

StartChar: V
Encoding: 86 86 57
Width: 1174
GlyphClass: 2
Flags: W
LayerCount: 2
Fore
SplineSet
552 0 m 2,0,1
 532 0 532 0 520.5 7 c 128,-1,2
 509 14 509 14 500 32 c 0,3,4
 375 298 375 298 261.5 611 c 128,-1,5
 148 924 148 924 60 1274 c 0,6,7
 58 1280 58 1280 56 1288 c 128,-1,8
 54 1296 54 1296 54 1304 c 0,9,10
 54 1313 54 1313 60.5 1318.5 c 128,-1,11
 67 1324 67 1324 84 1324 c 2,12,-1
 188 1324 l 2,13,14
 208 1324 208 1324 217.5 1316 c 128,-1,15
 227 1308 227 1308 232 1288 c 0,16,17
 304 974 304 974 396.5 697.5 c 128,-1,18
 489 421 489 421 590 186 c 1,19,20
 694 421 694 421 786 697.5 c 128,-1,21
 878 974 878 974 952 1288 c 0,22,23
 957 1308 957 1308 966.5 1316 c 128,-1,24
 976 1324 976 1324 996 1324 c 2,25,-1
 1090 1324 l 2,26,27
 1120 1324 1120 1324 1120 1302 c 0,28,29
 1120 1296 1120 1296 1118 1287 c 128,-1,30
 1116 1278 1116 1278 1114 1272 c 0,31,32
 1028 923 1028 923 913.5 610.5 c 128,-1,33
 799 298 799 298 674 32 c 0,34,35
 665 14 665 14 653.5 7 c 128,-1,36
 642 0 642 0 622 0 c 2,37,-1
 552 0 l 2,0,1
EndSplineSet
Validated: 1
EndChar

StartChar: W
Encoding: 87 87 58
Width: 1872
GlyphClass: 2
Flags: W
LayerCount: 2
Fore
SplineSet
1776 1324 m 2,0,1
 1794 1324 1794 1324 1800 1314.5 c 128,-1,2
 1806 1305 1806 1305 1806 1294 c 0,3,4
 1806 1289 1806 1289 1805 1282.5 c 128,-1,5
 1804 1276 1804 1276 1802 1268 c 0,6,7
 1781 1161 1781 1161 1755 1048 c 128,-1,8
 1729 935 1729 935 1699.5 822.5 c 128,-1,9
 1670 710 1670 710 1637.5 600 c 128,-1,10
 1605 490 1605 490 1571.5 388 c 128,-1,11
 1538 286 1538 286 1504 195.5 c 128,-1,12
 1470 105 1470 105 1438 32 c 0,13,14
 1430 15 1430 15 1419 7.5 c 128,-1,15
 1408 0 1408 0 1388 0 c 2,16,-1
 1320 0 l 2,17,18
 1300 0 1300 0 1288.5 7 c 128,-1,19
 1277 14 1277 14 1268 32 c 0,20,21
 1212 151 1212 151 1162 278 c 128,-1,22
 1112 405 1112 405 1070 534.5 c 128,-1,23
 1028 664 1028 664 994 794 c 128,-1,24
 960 924 960 924 936 1050 c 1,25,26
 913 924 913 924 879 794 c 128,-1,27
 845 664 845 664 803 534.5 c 128,-1,28
 761 405 761 405 710.5 278 c 128,-1,29
 660 151 660 151 604 32 c 0,30,31
 595 14 595 14 583.5 7 c 128,-1,32
 572 0 572 0 552 0 c 2,33,-1
 484 0 l 2,34,35
 464 0 464 0 453 7.5 c 128,-1,36
 442 15 442 15 434 32 c 0,37,38
 403 106 403 106 369.5 197 c 128,-1,39
 336 288 336 288 302.5 390.5 c 128,-1,40
 269 493 269 493 236.5 603.5 c 128,-1,41
 204 714 204 714 174 826.5 c 128,-1,42
 144 939 144 939 117.5 1051 c 128,-1,43
 91 1163 91 1163 70 1268 c 0,44,45
 68 1276 68 1276 67 1282.5 c 128,-1,46
 66 1289 66 1289 66 1294 c 0,47,48
 66 1305 66 1305 72 1314.5 c 128,-1,49
 78 1324 78 1324 96 1324 c 2,50,-1
 192 1324 l 2,51,52
 212 1324 212 1324 221.5 1316 c 128,-1,53
 231 1308 231 1308 234 1288 c 0,54,55
 257 1149 257 1149 290 999 c 128,-1,56
 323 849 323 849 361.5 702 c 128,-1,57
 400 555 400 555 441.5 418 c 128,-1,58
 483 281 483 281 524 168 c 1,59,60
 556 244 556 244 589 330.5 c 128,-1,61
 622 417 622 417 654 510.5 c 128,-1,62
 686 604 686 604 715.5 702.5 c 128,-1,63
 745 801 745 801 771 900.5 c 128,-1,64
 797 1000 797 1000 818 1097.5 c 128,-1,65
 839 1195 839 1195 854 1288 c 0,66,67
 857 1308 857 1308 866.5 1316 c 128,-1,68
 876 1324 876 1324 896 1324 c 2,69,-1
 976 1324 l 2,70,71
 996 1324 996 1324 1005.5 1316 c 128,-1,72
 1015 1308 1015 1308 1018 1288 c 0,73,74
 1041 1149 1041 1149 1077.5 999 c 128,-1,75
 1114 849 1114 849 1158 702 c 128,-1,76
 1202 555 1202 555 1251 418 c 128,-1,77
 1300 281 1300 281 1348 168 c 1,78,79
 1375 244 1375 244 1403.5 330.5 c 128,-1,80
 1432 417 1432 417 1459 510.5 c 128,-1,81
 1486 604 1486 604 1512 702.5 c 128,-1,82
 1538 801 1538 801 1561 900.5 c 128,-1,83
 1584 1000 1584 1000 1603.5 1097.5 c 128,-1,84
 1623 1195 1623 1195 1638 1288 c 0,85,86
 1641 1308 1641 1308 1650.5 1316 c 128,-1,87
 1660 1324 1660 1324 1680 1324 c 2,88,-1
 1776 1324 l 2,0,1
EndSplineSet
Validated: 1
EndChar

StartChar: X
Encoding: 88 88 59
Width: 1134
GlyphClass: 2
Flags: W
LayerCount: 2
Fore
SplineSet
90 0 m 2,0,1
 62 0 62 0 62 20 c 0,2,3
 62 26 62 26 63 32 c 128,-1,4
 64 38 64 38 66 44 c 0,5,6
 84 116 84 116 125 197 c 128,-1,7
 166 278 166 278 220.5 362 c 128,-1,8
 275 446 275 446 339 530.5 c 128,-1,9
 403 615 403 615 468 694 c 1,10,11
 412 765 412 765 358.5 840.5 c 128,-1,12
 305 916 305 916 259 991 c 128,-1,13
 213 1066 213 1066 177.5 1138 c 128,-1,14
 142 1210 142 1210 122 1274 c 0,15,16
 120 1279 120 1279 118 1287.5 c 128,-1,17
 116 1296 116 1296 116 1302 c 0,18,19
 116 1324 116 1324 144 1324 c 2,20,-1
 238 1324 l 2,21,22
 259 1324 259 1324 269.5 1316 c 128,-1,23
 280 1308 280 1308 286 1288 c 0,24,25
 319 1178 319 1178 394 1055 c 128,-1,26
 469 932 469 932 572 796 c 1,27,28
 675 932 675 932 748 1056 c 128,-1,29
 821 1180 821 1180 856 1290 c 0,30,31
 862 1310 862 1310 872.5 1317 c 128,-1,32
 883 1324 883 1324 904 1324 c 2,33,-1
 984 1324 l 2,34,35
 1001 1324 1001 1324 1007.5 1318.5 c 128,-1,36
 1014 1313 1014 1313 1014 1304 c 0,37,38
 1014 1297 1014 1297 1008 1276 c 0,39,40
 989 1211 989 1211 954 1138 c 128,-1,41
 919 1065 919 1065 873.5 989 c 128,-1,42
 828 913 828 913 774 837 c 128,-1,43
 720 761 720 761 664 690 c 1,44,45
 728 613 728 613 790 530.5 c 128,-1,46
 852 448 852 448 905 365.5 c 128,-1,47
 958 283 958 283 999.5 203.5 c 128,-1,48
 1041 124 1041 124 1064 54 c 0,49,50
 1066 49 1066 49 1068 41 c 128,-1,51
 1070 33 1070 33 1070 24 c 0,52,53
 1070 13 1070 13 1063 6.5 c 128,-1,54
 1056 0 1056 0 1042 0 c 2,55,-1
 952 0 l 2,56,57
 931 0 931 0 920.5 7 c 128,-1,58
 910 14 910 14 904 34 c 0,59,60
 866 153 866 153 776 290.5 c 128,-1,61
 686 428 686 428 562 586 c 1,62,63
 437 428 437 428 349 290.5 c 128,-1,64
 261 153 261 153 220 34 c 0,65,66
 214 14 214 14 203.5 7 c 128,-1,67
 193 0 193 0 172 0 c 2,68,-1
 90 0 l 2,0,1
EndSplineSet
Validated: 1
EndChar

StartChar: Y
Encoding: 89 89 60
Width: 1072
GlyphClass: 2
Flags: W
LayerCount: 2
Fore
SplineSet
490 0 m 2,0,1
 470 0 470 0 462 8 c 128,-1,2
 454 16 454 16 454 36 c 2,3,-1
 454 470 l 1,4,5
 400 552 400 552 342 650.5 c 128,-1,6
 284 749 284 749 228.5 855.5 c 128,-1,7
 173 962 173 962 123 1072.5 c 128,-1,8
 73 1183 73 1183 34 1290 c 0,9,10
 22 1324 22 1324 58 1324 c 2,11,-1
 158 1324 l 2,12,13
 195 1324 195 1324 206 1290 c 0,14,15
 240 1195 240 1195 281 1099.5 c 128,-1,16
 322 1004 322 1004 365.5 914.5 c 128,-1,17
 409 825 409 825 454 744.5 c 128,-1,18
 499 664 499 664 542 600 c 1,19,20
 584 664 584 664 628 744.5 c 128,-1,21
 672 825 672 825 715.5 914.5 c 128,-1,22
 759 1004 759 1004 800 1099.5 c 128,-1,23
 841 1195 841 1195 876 1290 c 0,24,25
 887 1324 887 1324 924 1324 c 2,26,-1
 1014 1324 l 2,27,28
 1050 1324 1050 1324 1038 1290 c 0,29,30
 999 1183 999 1183 949 1072.5 c 128,-1,31
 899 962 899 962 843.5 856 c 128,-1,32
 788 750 788 750 730.5 652 c 128,-1,33
 673 554 673 554 618 472 c 1,34,-1
 618 36 l 2,35,36
 618 16 618 16 610 8 c 128,-1,37
 602 0 602 0 582 0 c 2,38,-1
 490 0 l 2,0,1
EndSplineSet
Validated: 1
EndChar

StartChar: Z
Encoding: 90 90 61
Width: 1062
GlyphClass: 2
Flags: W
LayerCount: 2
Fore
SplineSet
124 0 m 2,0,1
 104 0 104 0 96 8 c 128,-1,2
 88 16 88 16 88 36 c 2,3,-1
 88 92 l 2,4,5
 88 106 88 106 92 123 c 128,-1,6
 96 140 96 140 102 154 c 0,7,8
 121 193 121 193 157 253 c 128,-1,9
 193 313 193 313 239.5 385 c 128,-1,10
 286 457 286 457 340.5 538 c 128,-1,11
 395 619 395 619 450 700 c 128,-1,12
 505 781 505 781 558 858 c 128,-1,13
 611 935 611 935 654.5 1000 c 128,-1,14
 698 1065 698 1065 729.5 1113.5 c 128,-1,15
 761 1162 761 1162 774 1186 c 1,16,-1
 158 1186 l 2,17,18
 138 1186 138 1186 130 1194 c 128,-1,19
 122 1202 122 1202 122 1222 c 2,20,-1
 122 1288 l 2,21,22
 122 1308 122 1308 130 1316 c 128,-1,23
 138 1324 138 1324 158 1324 c 2,24,-1
 916 1324 l 2,25,26
 936 1324 936 1324 944 1316 c 128,-1,27
 952 1308 952 1308 952 1288 c 2,28,-1
 952 1232 l 2,29,30
 952 1218 952 1218 948 1201 c 128,-1,31
 944 1184 944 1184 938 1170 c 0,32,33
 919 1131 919 1131 883 1071 c 128,-1,34
 847 1011 847 1011 800.5 939 c 128,-1,35
 754 867 754 867 699.5 786 c 128,-1,36
 645 705 645 705 590 624 c 128,-1,37
 535 543 535 543 482 466 c 128,-1,38
 429 389 429 389 385.5 324 c 128,-1,39
 342 259 342 259 310.5 210.5 c 128,-1,40
 279 162 279 162 266 138 c 1,41,-1
 950 138 l 2,42,43
 970 138 970 138 978 130 c 128,-1,44
 986 122 986 122 986 102 c 2,45,-1
 986 36 l 2,46,47
 986 16 986 16 978 8 c 128,-1,48
 970 0 970 0 950 0 c 2,49,-1
 124 0 l 2,0,1
EndSplineSet
Validated: 1
EndChar

StartChar: bracketleft
Encoding: 91 91 62
Width: 552
GlyphClass: 2
Flags: W
LayerCount: 2
Fore
SplineSet
202 -196 m 2,0,1
 182 -196 182 -196 174 -188 c 128,-1,2
 166 -180 166 -180 166 -160 c 2,3,-1
 166 1444 l 2,4,5
 166 1464 166 1464 174 1472 c 128,-1,6
 182 1480 182 1480 202 1480 c 2,7,-1
 446 1480 l 2,8,9
 466 1480 466 1480 474 1472 c 128,-1,10
 482 1464 482 1464 482 1444 c 2,11,-1
 482 1420 l 2,12,13
 482 1400 482 1400 474 1392 c 128,-1,14
 466 1384 466 1384 446 1384 c 2,15,-1
 302 1384 l 1,16,-1
 302 -100 l 1,17,-1
 446 -100 l 2,18,19
 466 -100 466 -100 474 -108 c 128,-1,20
 482 -116 482 -116 482 -136 c 2,21,-1
 482 -160 l 2,22,23
 482 -180 482 -180 474 -188 c 128,-1,24
 466 -196 466 -196 446 -196 c 2,25,-1
 202 -196 l 2,0,1
EndSplineSet
Validated: 1
EndChar

StartChar: backslash
Encoding: 92 92 63
Width: 604
GlyphClass: 2
Flags: W
LayerCount: 2
Fore
SplineSet
534 -136 m 2,0,1
 536 -141 536 -141 537 -148.5 c 128,-1,2
 538 -156 538 -156 538 -158 c 0,3,4
 538 -180 538 -180 510 -180 c 2,5,-1
 458 -180 l 2,6,7
 420 -180 420 -180 412 -146 c 2,8,-1
 -28 1460 l 2,9,10
 -30 1465 -30 1465 -31 1472.5 c 128,-1,11
 -32 1480 -32 1480 -32 1482 c 0,12,13
 -32 1504 -32 1504 -4 1504 c 2,14,-1
 48 1504 l 2,15,16
 85 1504 85 1504 94 1470 c 2,17,-1
 534 -136 l 2,0,1
EndSplineSet
Validated: 1
EndChar

StartChar: bracketright
Encoding: 93 93 64
Width: 552
GlyphClass: 2
Flags: W
LayerCount: 2
Fore
SplineSet
106 -196 m 2,0,1
 86 -196 86 -196 78 -188 c 128,-1,2
 70 -180 70 -180 70 -160 c 2,3,-1
 70 -136 l 2,4,5
 70 -116 70 -116 78 -108 c 128,-1,6
 86 -100 86 -100 106 -100 c 2,7,-1
 250 -100 l 1,8,-1
 250 1384 l 1,9,-1
 106 1384 l 2,10,11
 86 1384 86 1384 78 1392 c 128,-1,12
 70 1400 70 1400 70 1420 c 2,13,-1
 70 1444 l 2,14,15
 70 1464 70 1464 78 1472 c 128,-1,16
 86 1480 86 1480 106 1480 c 2,17,-1
 350 1480 l 2,18,19
 370 1480 370 1480 378 1472 c 128,-1,20
 386 1464 386 1464 386 1444 c 2,21,-1
 386 -160 l 2,22,23
 386 -180 386 -180 378 -188 c 128,-1,24
 370 -196 370 -196 350 -196 c 2,25,-1
 106 -196 l 2,0,1
EndSplineSet
Validated: 1
EndChar

StartChar: asciicircum
Encoding: 94 94 65
Width: 1060
GlyphClass: 2
Flags: W
LayerCount: 2
Fore
SplineSet
550 1324 m 2,0,1
 571 1324 571 1324 583 1317.5 c 128,-1,2
 595 1311 595 1311 606 1294 c 2,3,-1
 962 790 l 2,4,5
 972 777 972 777 972 766 c 0,6,7
 972 751 972 751 956 740 c 2,8,-1
 916 710 l 2,9,10
 901 698 901 698 888 698 c 256,11,12
 875 698 875 698 864 714 c 2,13,-1
 530 1186 l 1,14,-1
 196 714 l 2,15,16
 185 698 185 698 172 698 c 256,17,18
 159 698 159 698 144 710 c 2,19,-1
 104 740 l 2,20,21
 88 751 88 751 88 766 c 0,22,23
 88 777 88 777 98 790 c 2,24,-1
 454 1294 l 2,25,26
 465 1311 465 1311 477 1317.5 c 128,-1,27
 489 1324 489 1324 510 1324 c 2,28,-1
 550 1324 l 2,0,1
EndSplineSet
Validated: 1
EndChar

StartChar: underscore
Encoding: 95 95 66
Width: 880
GlyphClass: 2
Flags: W
LayerCount: 2
Fore
SplineSet
120 -120 m 2,0,1
 100 -120 100 -120 92 -112 c 128,-1,2
 84 -104 84 -104 84 -84 c 2,3,-1
 84 -36 l 2,4,5
 84 -16 84 -16 92 -8 c 128,-1,6
 100 0 100 0 120 0 c 2,7,-1
 760 0 l 2,8,9
 780 0 780 0 788 -8 c 128,-1,10
 796 -16 796 -16 796 -36 c 2,11,-1
 796 -84 l 2,12,13
 796 -104 796 -104 788 -112 c 128,-1,14
 780 -120 780 -120 760 -120 c 2,15,-1
 120 -120 l 2,0,1
EndSplineSet
Validated: 1
EndChar

StartChar: grave
Encoding: 96 96 67
Width: 584
GlyphClass: 2
Flags: W
LayerCount: 2
Fore
SplineSet
456 1178 m 2,0,1
 464 1170 464 1170 468 1164 c 128,-1,2
 472 1158 472 1158 472 1150 c 0,3,4
 472 1141 472 1141 462 1128 c 2,5,-1
 440 1100 l 2,6,7
 427 1084 427 1084 414 1084 c 0,8,9
 403 1084 403 1084 388 1096 c 2,10,-1
 128 1292 l 2,11,12
 114 1303 114 1303 114 1316 c 256,13,14
 114 1329 114 1329 124 1342 c 2,15,-1
 158 1384 l 2,16,17
 164 1392 164 1392 171 1395 c 128,-1,18
 178 1398 178 1398 184 1398 c 256,19,20
 190 1398 190 1398 196 1396 c 128,-1,21
 202 1394 202 1394 210 1388 c 2,22,-1
 456 1178 l 2,0,1
EndSplineSet
Validated: 1
Substitution2: "'aalt' Access All Alternates in Latin lookup 0 subtable" grave.case
EndChar

StartChar: a
Encoding: 97 97 68
Width: 1010
GlyphClass: 2
Flags: W
LayerCount: 2
Fore
SplineSet
748 0 m 2,0,1
 728 0 728 0 720 8 c 128,-1,2
 712 16 712 16 712 36 c 2,3,-1
 712 122 l 1,4,5
 692 96 692 96 665.5 71 c 128,-1,6
 639 46 639 46 603 25.5 c 128,-1,7
 567 5 567 5 520.5 -7.5 c 128,-1,8
 474 -20 474 -20 414 -20 c 0,9,10
 336 -20 336 -20 276 2 c 128,-1,11
 216 24 216 24 175.5 63 c 128,-1,12
 135 102 135 102 114.5 155 c 128,-1,13
 94 208 94 208 94 270 c 0,14,15
 94 333 94 333 116.5 387 c 128,-1,16
 139 441 139 441 186 481 c 128,-1,17
 233 521 233 521 305 543.5 c 128,-1,18
 377 566 377 566 476 566 c 0,19,20
 547 566 547 566 605 555.5 c 128,-1,21
 663 545 663 545 702 528 c 1,22,-1
 702 608 l 2,23,24
 702 652 702 652 693.5 695 c 128,-1,25
 685 738 685 738 660.5 772 c 128,-1,26
 636 806 636 806 591.5 827 c 128,-1,27
 547 848 547 848 476 848 c 0,28,29
 410 848 410 848 343.5 828.5 c 128,-1,30
 277 809 277 809 226 768 c 0,31,32
 209 756 209 756 198.5 757.5 c 128,-1,33
 188 759 188 759 176 776 c 2,34,-1
 144 822 l 2,35,36
 125 853 125 853 152 874 c 0,37,38
 214 925 214 925 301.5 952.5 c 128,-1,39
 389 980 389 980 490 980 c 0,40,41
 587 980 587 980 657 954.5 c 128,-1,42
 727 929 727 929 771.5 883 c 128,-1,43
 816 837 816 837 837 773 c 128,-1,44
 858 709 858 709 858 632 c 2,45,-1
 858 36 l 2,46,47
 858 16 858 16 850 8 c 128,-1,48
 842 0 842 0 822 0 c 2,49,-1
 748 0 l 2,0,1
440 106 m 0,50,51
 515 106 515 106 583 138 c 128,-1,52
 651 170 651 170 702 244 c 1,53,-1
 702 414 l 1,54,55
 682 423 682 423 656 429 c 128,-1,56
 630 435 630 435 602 439 c 128,-1,57
 574 443 574 443 546 444.5 c 128,-1,58
 518 446 518 446 496 446 c 0,59,60
 428 446 428 446 381.5 433 c 128,-1,61
 335 420 335 420 306.5 397.5 c 128,-1,62
 278 375 278 375 265 343 c 128,-1,63
 252 311 252 311 252 274 c 0,64,65
 252 244 252 244 260.5 214 c 128,-1,66
 269 184 269 184 290.5 160 c 128,-1,67
 312 136 312 136 348 121 c 128,-1,68
 384 106 384 106 440 106 c 0,50,51
EndSplineSet
Validated: 1
Substitution2: "'ordn' Ordinals in Latin lookup 4 subtable" ordfeminine
EndChar

StartChar: b
Encoding: 98 98 69
Width: 1070
GlyphClass: 2
Flags: W
LayerCount: 2
Fore
SplineSet
190 0 m 2,0,1
 170 0 170 0 162 8 c 128,-1,2
 154 16 154 16 154 36 c 2,3,-1
 154 1400 l 2,4,5
 154 1420 154 1420 162 1428 c 128,-1,6
 170 1436 170 1436 190 1436 c 2,7,-1
 274 1436 l 2,8,9
 294 1436 294 1436 302 1428 c 128,-1,10
 310 1420 310 1420 310 1400 c 2,11,-1
 310 858 l 1,12,13
 328 883 328 883 353 905 c 128,-1,14
 378 927 378 927 411 943.5 c 128,-1,15
 444 960 444 960 485.5 970 c 128,-1,16
 527 980 527 980 578 980 c 0,17,18
 671 980 671 980 745.5 946.5 c 128,-1,19
 820 913 820 913 872.5 849 c 128,-1,20
 925 785 925 785 953.5 692.5 c 128,-1,21
 982 600 982 600 982 482 c 0,22,23
 982 365 982 365 953.5 272 c 128,-1,24
 925 179 925 179 872.5 114 c 128,-1,25
 820 49 820 49 745.5 14.5 c 128,-1,26
 671 -20 671 -20 578 -20 c 0,27,28
 525 -20 525 -20 482.5 -9.5 c 128,-1,29
 440 1 440 1 406 19.5 c 128,-1,30
 372 38 372 38 345.5 62.5 c 128,-1,31
 319 87 319 87 300 116 c 1,32,-1
 300 36 l 2,33,34
 300 16 300 16 292 8 c 128,-1,35
 284 0 284 0 264 0 c 2,36,-1
 190 0 l 2,0,1
310 238 m 1,37,38
 355 167 355 167 417.5 136.5 c 128,-1,39
 480 106 480 106 548 106 c 0,40,41
 609 106 609 106 659.5 129.5 c 128,-1,42
 710 153 710 153 745.5 199.5 c 128,-1,43
 781 246 781 246 800.5 316 c 128,-1,44
 820 386 820 386 820 480 c 256,45,46
 820 574 820 574 800.5 644 c 128,-1,47
 781 714 781 714 745.5 760.5 c 128,-1,48
 710 807 710 807 659.5 830.5 c 128,-1,49
 609 854 609 854 548 854 c 0,50,51
 480 854 480 854 417.5 823.5 c 128,-1,52
 355 793 355 793 310 722 c 1,53,-1
 310 238 l 1,37,38
EndSplineSet
Validated: 1
EndChar

StartChar: c
Encoding: 99 99 70
Width: 904
GlyphClass: 2
Flags: W
LayerCount: 2
Fore
SplineSet
802 72 m 0,0,1
 743 24 743 24 669.5 2 c 128,-1,2
 596 -20 596 -20 516 -20 c 0,3,4
 401 -20 401 -20 320 21.5 c 128,-1,5
 239 63 239 63 187.5 132 c 128,-1,6
 136 201 136 201 112 290 c 128,-1,7
 88 379 88 379 88 474 c 0,8,9
 88 537 88 537 98.5 599 c 128,-1,10
 109 661 109 661 132 717 c 128,-1,11
 155 773 155 773 190 821.5 c 128,-1,12
 225 870 225 870 274 905 c 128,-1,13
 323 940 323 940 386.5 960 c 128,-1,14
 450 980 450 980 530 980 c 0,15,16
 604 980 604 980 674.5 960.5 c 128,-1,17
 745 941 745 941 802 896 c 0,18,19
 828 873 828 873 810 844 c 2,20,-1
 774 790 l 2,21,22
 763 773 763 773 753 771.5 c 128,-1,23
 743 770 743 770 728 782 c 0,24,25
 686 817 686 817 635 832.5 c 128,-1,26
 584 848 584 848 528 848 c 0,27,28
 452 848 452 848 399 818.5 c 128,-1,29
 346 789 346 789 313 738.5 c 128,-1,30
 280 688 280 688 265 621 c 128,-1,31
 250 554 250 554 250 478 c 0,32,33
 250 403 250 403 264.5 336.5 c 128,-1,34
 279 270 279 270 311.5 220 c 128,-1,35
 344 170 344 170 395 141 c 128,-1,36
 446 112 446 112 520 112 c 0,37,38
 571 112 571 112 626 128 c 128,-1,39
 681 144 681 144 728 182 c 0,40,41
 743 194 743 194 753.5 192.5 c 128,-1,42
 764 191 764 191 776 174 c 2,43,-1
 810 124 l 2,44,45
 829 93 829 93 802 72 c 0,0,1
EndSplineSet
Validated: 1
EndChar

StartChar: d
Encoding: 100 100 71
Width: 1068
GlyphClass: 2
Flags: W
LayerCount: 2
Fore
SplineSet
804 0 m 2,0,1
 784 0 784 0 776 8 c 128,-1,2
 768 16 768 16 768 36 c 2,3,-1
 768 116 l 1,4,5
 749 87 749 87 723.5 62.5 c 128,-1,6
 698 38 698 38 663.5 19.5 c 128,-1,7
 629 1 629 1 586 -9.5 c 128,-1,8
 543 -20 543 -20 490 -20 c 0,9,10
 396 -20 396 -20 321.5 13.5 c 128,-1,11
 247 47 247 47 195 111 c 128,-1,12
 143 175 143 175 115.5 267.5 c 128,-1,13
 88 360 88 360 88 478 c 0,14,15
 88 595 88 595 115.5 688 c 128,-1,16
 143 781 143 781 195 846 c 128,-1,17
 247 911 247 911 321.5 945.5 c 128,-1,18
 396 980 396 980 490 980 c 0,19,20
 542 980 542 980 583.5 970 c 128,-1,21
 625 960 625 960 658 943.5 c 128,-1,22
 691 927 691 927 716 905 c 128,-1,23
 741 883 741 883 758 858 c 1,24,-1
 758 1400 l 2,25,26
 758 1420 758 1420 766 1428 c 128,-1,27
 774 1436 774 1436 794 1436 c 2,28,-1
 878 1436 l 2,29,30
 898 1436 898 1436 906 1428 c 128,-1,31
 914 1420 914 1420 914 1400 c 2,32,-1
 914 36 l 2,33,34
 914 16 914 16 906 8 c 128,-1,35
 898 0 898 0 878 0 c 2,36,-1
 804 0 l 2,0,1
250 480 m 256,37,38
 250 386 250 386 269.5 316 c 128,-1,39
 289 246 289 246 324.5 199.5 c 128,-1,40
 360 153 360 153 409.5 129.5 c 128,-1,41
 459 106 459 106 520 106 c 0,42,43
 589 106 589 106 651 136.5 c 128,-1,44
 713 167 713 167 758 238 c 1,45,-1
 758 722 l 1,46,47
 713 793 713 793 651 823.5 c 128,-1,48
 589 854 589 854 520 854 c 0,49,50
 459 854 459 854 409.5 830.5 c 128,-1,51
 360 807 360 807 324.5 760.5 c 128,-1,52
 289 714 289 714 269.5 644 c 128,-1,53
 250 574 250 574 250 480 c 256,37,38
EndSplineSet
Validated: 1
EndChar

StartChar: e
Encoding: 101 101 72
Width: 1016
GlyphClass: 2
Flags: W
LayerCount: 2
Fore
SplineSet
932 458 m 2,0,1
 932 428 932 428 902 428 c 2,2,-1
 248 428 l 1,3,4
 252 362 252 362 271 304.5 c 128,-1,5
 290 247 290 247 326 204 c 128,-1,6
 362 161 362 161 416.5 136.5 c 128,-1,7
 471 112 471 112 548 112 c 0,8,9
 610 112 610 112 670 128.5 c 128,-1,10
 730 145 730 145 778 180 c 0,11,12
 795 192 795 192 805.5 190.5 c 128,-1,13
 816 189 816 189 828 172 c 2,14,-1
 860 124 l 2,15,16
 869 109 869 109 867 96.5 c 128,-1,17
 865 84 865 84 850 72 c 0,18,19
 790 24 790 24 712 2 c 128,-1,20
 634 -20 634 -20 546 -20 c 0,21,22
 423 -20 423 -20 336 21.5 c 128,-1,23
 249 63 249 63 194 132 c 128,-1,24
 139 201 139 201 113.5 291 c 128,-1,25
 88 381 88 381 88 478 c 0,26,27
 88 578 88 578 114 669 c 128,-1,28
 140 760 140 760 193 829 c 128,-1,29
 246 898 246 898 326.5 939 c 128,-1,30
 407 980 407 980 516 980 c 0,31,32
 631 980 631 980 710 935.5 c 128,-1,33
 789 891 789 891 838.5 820.5 c 128,-1,34
 888 750 888 750 910 663.5 c 128,-1,35
 932 577 932 577 932 492 c 2,36,-1
 932 458 l 2,0,1
778 544 m 1,37,38
 773 608 773 608 755 664.5 c 128,-1,39
 737 721 737 721 704.5 763.5 c 128,-1,40
 672 806 672 806 625 831 c 128,-1,41
 578 856 578 856 514 856 c 0,42,43
 452 856 452 856 405 832.5 c 128,-1,44
 358 809 358 809 325 767.5 c 128,-1,45
 292 726 292 726 273 668.5 c 128,-1,46
 254 611 254 611 248 544 c 1,47,-1
 778 544 l 1,37,38
EndSplineSet
Validated: 1
EndChar

StartChar: f
Encoding: 102 102 73
Width: 590
GlyphClass: 2
Flags: W
LayerCount: 2
Fore
SplineSet
70 838 m 2,0,1
 50 838 50 838 42 846 c 128,-1,2
 34 854 34 854 34 874 c 2,3,-1
 34 924 l 2,4,5
 34 944 34 944 42 952 c 128,-1,6
 50 960 50 960 70 960 c 2,7,-1
 198 960 l 1,8,-1
 198 1058 l 2,9,10
 198 1168 198 1168 221 1244 c 128,-1,11
 244 1320 244 1320 285.5 1367 c 128,-1,12
 327 1414 327 1414 385 1435 c 128,-1,13
 443 1456 443 1456 514 1456 c 0,14,15
 564 1456 564 1456 604.5 1447.5 c 128,-1,16
 645 1439 645 1439 678 1422 c 0,17,18
 708 1404 708 1404 694 1372 c 2,19,-1
 672 1318 l 2,20,21
 663 1300 663 1300 653 1295.5 c 128,-1,22
 643 1291 643 1291 626 1300 c 0,23,24
 578 1324 578 1324 520 1324 c 0,25,26
 482 1324 482 1324 451 1311.5 c 128,-1,27
 420 1299 420 1299 398.5 1270.5 c 128,-1,28
 377 1242 377 1242 365.5 1194 c 128,-1,29
 354 1146 354 1146 354 1076 c 2,30,-1
 354 960 l 1,31,-1
 570 960 l 2,32,33
 590 960 590 960 598 952 c 128,-1,34
 606 944 606 944 606 924 c 2,35,-1
 606 874 l 2,36,37
 606 854 606 854 598 846 c 128,-1,38
 590 838 590 838 570 838 c 2,39,-1
 354 838 l 1,40,-1
 354 36 l 2,41,42
 354 16 354 16 346 8 c 128,-1,43
 338 0 338 0 318 0 c 2,44,-1
 234 0 l 2,45,46
 214 0 214 0 206 8 c 128,-1,47
 198 16 198 16 198 36 c 2,48,-1
 198 838 l 1,49,-1
 70 838 l 2,0,1
EndSplineSet
Validated: 1
EndChar

StartChar: g
Encoding: 103 103 74
Width: 966
GlyphClass: 2
Flags: W
LayerCount: 2
Fore
SplineSet
932 -96 m 0,0,1
 932 -165 932 -165 901.5 -224.5 c 128,-1,2
 871 -284 871 -284 811.5 -327.5 c 128,-1,3
 752 -371 752 -371 664.5 -395.5 c 128,-1,4
 577 -420 577 -420 462 -420 c 0,5,6
 367 -420 367 -420 290 -402.5 c 128,-1,7
 213 -385 213 -385 158.5 -351 c 128,-1,8
 104 -317 104 -317 74 -268 c 128,-1,9
 44 -219 44 -219 44 -156 c 0,10,11
 44 -78 44 -78 87.5 -26.5 c 128,-1,12
 131 25 131 25 202 54 c 1,13,14
 163 71 163 71 138.5 103.5 c 128,-1,15
 114 136 114 136 114 186 c 0,16,17
 114 218 114 218 125 245 c 128,-1,18
 136 272 136 272 154 293.5 c 128,-1,19
 172 315 172 315 194.5 332 c 128,-1,20
 217 349 217 349 240 362 c 1,21,22
 205 387 205 387 180 418.5 c 128,-1,23
 155 450 155 450 139 486 c 128,-1,24
 123 522 123 522 115.5 560.5 c 128,-1,25
 108 599 108 599 108 638 c 0,26,27
 108 702 108 702 128 763.5 c 128,-1,28
 148 825 148 825 190.5 873 c 128,-1,29
 233 921 233 921 299.5 950.5 c 128,-1,30
 366 980 366 980 460 980 c 0,31,32
 501 980 501 980 533 974.5 c 128,-1,33
 565 969 565 969 592 960 c 1,34,-1
 884 960 l 2,35,36
 904 960 904 960 912 952 c 128,-1,37
 920 944 920 944 920 924 c 2,38,-1
 920 874 l 2,39,40
 920 854 920 854 911 846 c 128,-1,41
 902 838 902 838 884 838 c 0,42,43
 846 838 846 838 804 843 c 128,-1,44
 762 848 762 848 732 856 c 1,45,46
 783 812 783 812 804.5 760 c 128,-1,47
 826 708 826 708 826 642 c 0,48,49
 826 577 826 577 806.5 515.5 c 128,-1,50
 787 454 787 454 744 406 c 128,-1,51
 701 358 701 358 632 329 c 128,-1,52
 563 300 563 300 464 300 c 0,53,54
 376 300 376 300 310 324 c 1,55,56
 250 267 250 267 250 212 c 0,57,58
 250 201 250 201 253.5 189.5 c 128,-1,59
 257 178 257 178 270.5 169 c 128,-1,60
 284 160 284 160 309 154 c 128,-1,61
 334 148 334 148 378 148 c 2,62,-1
 620 148 l 2,63,64
 685 148 685 148 742 133.5 c 128,-1,65
 799 119 799 119 841 89 c 128,-1,66
 883 59 883 59 907.5 13 c 128,-1,67
 932 -33 932 -33 932 -96 c 0,0,1
196 -136 m 0,68,69
 196 -170 196 -170 208.5 -201 c 128,-1,70
 221 -232 221 -232 251.5 -256 c 128,-1,71
 282 -280 282 -280 333.5 -294 c 128,-1,72
 385 -308 385 -308 464 -308 c 0,73,74
 545 -308 545 -308 604 -292.5 c 128,-1,75
 663 -277 663 -277 701 -250.5 c 128,-1,76
 739 -224 739 -224 757.5 -188.5 c 128,-1,77
 776 -153 776 -153 776 -112 c 0,78,79
 776 -84 776 -84 766.5 -60 c 128,-1,80
 757 -36 757 -36 735 -18 c 128,-1,81
 713 0 713 0 677 10 c 128,-1,82
 641 20 641 20 588 20 c 2,83,-1
 306 20 l 1,84,85
 247 -7 247 -7 221.5 -46.5 c 128,-1,86
 196 -86 196 -86 196 -136 c 0,68,69
262 640 m 0,87,88
 262 590 262 590 275.5 548.5 c 128,-1,89
 289 507 289 507 315 476.5 c 128,-1,90
 341 446 341 446 379.5 429 c 128,-1,91
 418 412 418 412 468 412 c 256,92,93
 518 412 518 412 556.5 429 c 128,-1,94
 595 446 595 446 621 476.5 c 128,-1,95
 647 507 647 507 660.5 548.5 c 128,-1,96
 674 590 674 590 674 640 c 0,97,98
 674 689 674 689 660.5 730.5 c 128,-1,99
 647 772 647 772 621 802.5 c 128,-1,100
 595 833 595 833 556.5 850.5 c 128,-1,101
 518 868 518 868 468 868 c 256,102,103
 418 868 418 868 379.5 850.5 c 128,-1,104
 341 833 341 833 315 802.5 c 128,-1,105
 289 772 289 772 275.5 730.5 c 128,-1,106
 262 689 262 689 262 640 c 0,87,88
EndSplineSet
Validated: 1
EndChar

StartChar: h
Encoding: 104 104 75
Width: 1078
GlyphClass: 2
Flags: W
LayerCount: 2
Fore
SplineSet
190 0 m 2,0,1
 170 0 170 0 162 8 c 128,-1,2
 154 16 154 16 154 36 c 2,3,-1
 154 1400 l 2,4,5
 154 1420 154 1420 162 1428 c 128,-1,6
 170 1436 170 1436 190 1436 c 2,7,-1
 274 1436 l 2,8,9
 294 1436 294 1436 302 1428 c 128,-1,10
 310 1420 310 1420 310 1400 c 2,11,-1
 310 854 l 1,12,13
 331 879 331 879 358 901.5 c 128,-1,14
 385 924 385 924 419.5 941.5 c 128,-1,15
 454 959 454 959 497.5 969.5 c 128,-1,16
 541 980 541 980 594 980 c 0,17,18
 684 980 684 980 747.5 950.5 c 128,-1,19
 811 921 811 921 851 871 c 128,-1,20
 891 821 891 821 909.5 755 c 128,-1,21
 928 689 928 689 928 616 c 2,22,-1
 928 36 l 2,23,24
 928 16 928 16 920 8 c 128,-1,25
 912 0 912 0 892 0 c 2,26,-1
 808 0 l 2,27,28
 788 0 788 0 780 8 c 128,-1,29
 772 16 772 16 772 36 c 2,30,-1
 772 602 l 2,31,32
 772 644 772 644 763.5 688 c 128,-1,33
 755 732 755 732 732 768 c 128,-1,34
 709 804 709 804 668.5 827 c 128,-1,35
 628 850 628 850 564 850 c 0,36,37
 532 850 532 850 498.5 843.5 c 128,-1,38
 465 837 465 837 432 822 c 128,-1,39
 399 807 399 807 367.5 782.5 c 128,-1,40
 336 758 336 758 310 722 c 1,41,-1
 310 36 l 2,42,43
 310 16 310 16 302 8 c 128,-1,44
 294 0 294 0 274 0 c 2,45,-1
 190 0 l 2,0,1
EndSplineSet
Validated: 1
EndChar

StartChar: i
Encoding: 105 105 76
Width: 464
GlyphClass: 2
Flags: W
LayerCount: 2
Fore
SplineSet
190 0 m 2,0,1
 170 0 170 0 162 8 c 128,-1,2
 154 16 154 16 154 36 c 2,3,-1
 154 924 l 2,4,5
 154 944 154 944 162 952 c 128,-1,6
 170 960 170 960 190 960 c 2,7,-1
 274 960 l 2,8,9
 294 960 294 960 302 952 c 128,-1,10
 310 944 310 944 310 924 c 2,11,-1
 310 36 l 2,12,13
 310 16 310 16 302 8 c 128,-1,14
 294 0 294 0 274 0 c 2,15,-1
 190 0 l 2,0,1
338 1306 m 256,16,17
 338 1261 338 1261 310 1229.5 c 128,-1,18
 282 1198 282 1198 232 1198 c 256,19,20
 182 1198 182 1198 154 1229.5 c 128,-1,21
 126 1261 126 1261 126 1306 c 256,22,23
 126 1351 126 1351 154 1382.5 c 128,-1,24
 182 1414 182 1414 232 1414 c 256,25,26
 282 1414 282 1414 310 1382.5 c 128,-1,27
 338 1351 338 1351 338 1306 c 256,16,17
EndSplineSet
Validated: 1
Substitution2: "'locl' Localized Forms in Latin lookup 1 subtable" i.trk
Substitution2: "'aalt' Access All Alternates in Latin lookup 0 subtable" i.trk
EndChar

StartChar: j
Encoding: 106 106 77
Width: 464
GlyphClass: 2
Flags: W
LayerCount: 2
Fore
SplineSet
310 -90 m 2,0,1
 310 -256 310 -256 240.5 -338 c 128,-1,2
 171 -420 171 -420 40 -420 c 0,3,4
 2 -420 2 -420 -35 -413.5 c 128,-1,5
 -72 -407 -72 -407 -104 -390 c 0,6,7
 -136 -375 -136 -375 -124 -342 c 2,8,-1
 -102 -290 l 2,9,10
 -93 -272 -93 -272 -83.5 -267.5 c 128,-1,11
 -74 -263 -74 -263 -54 -272 c 0,12,13
 -19 -288 -19 -288 22 -288 c 0,14,15
 94 -288 94 -288 124 -234 c 128,-1,16
 154 -180 154 -180 154 -80 c 2,17,-1
 154 924 l 2,18,19
 154 944 154 944 162 952 c 128,-1,20
 170 960 170 960 190 960 c 2,21,-1
 274 960 l 2,22,23
 294 960 294 960 302 952 c 128,-1,24
 310 944 310 944 310 924 c 2,25,-1
 310 -90 l 2,0,1
338 1306 m 256,26,27
 338 1261 338 1261 310 1229.5 c 128,-1,28
 282 1198 282 1198 232 1198 c 256,29,30
 182 1198 182 1198 154 1229.5 c 128,-1,31
 126 1261 126 1261 126 1306 c 256,32,33
 126 1351 126 1351 154 1382.5 c 128,-1,34
 182 1414 182 1414 232 1414 c 256,35,36
 282 1414 282 1414 310 1382.5 c 128,-1,37
 338 1351 338 1351 338 1306 c 256,26,27
EndSplineSet
Validated: 1
EndChar

StartChar: k
Encoding: 107 107 78
Width: 958
GlyphClass: 2
Flags: W
LayerCount: 2
Fore
SplineSet
800 0 m 2,0,1
 780 0 780 0 768.5 7 c 128,-1,2
 757 14 757 14 748 32 c 0,3,4
 719 84 719 84 683.5 141 c 128,-1,5
 648 198 648 198 607 254.5 c 128,-1,6
 566 311 566 311 520.5 364 c 128,-1,7
 475 417 475 417 428 462 c 1,8,9
 399 439 399 439 369.5 418.5 c 128,-1,10
 340 398 340 398 310 378 c 1,11,-1
 310 36 l 2,12,13
 310 16 310 16 302 8 c 128,-1,14
 294 0 294 0 274 0 c 2,15,-1
 190 0 l 2,16,17
 170 0 170 0 162 8 c 128,-1,18
 154 16 154 16 154 36 c 2,19,-1
 154 1400 l 2,20,21
 154 1420 154 1420 162 1428 c 128,-1,22
 170 1436 170 1436 190 1436 c 2,23,-1
 274 1436 l 2,24,25
 294 1436 294 1436 302 1428 c 128,-1,26
 310 1420 310 1420 310 1400 c 2,27,-1
 310 528 l 1,28,29
 365 567 365 567 420 616.5 c 128,-1,30
 475 666 475 666 525.5 720 c 128,-1,31
 576 774 576 774 620 828 c 128,-1,32
 664 882 664 882 696 930 c 0,33,34
 708 947 708 947 720.5 953.5 c 128,-1,35
 733 960 733 960 754 960 c 2,36,-1
 852 960 l 2,37,38
 869 960 869 960 873 952 c 128,-1,39
 877 944 877 944 868 930 c 0,40,41
 803 830 803 830 717.5 732.5 c 128,-1,42
 632 635 632 635 532 546 c 1,43,44
 587 494 587 494 643 431 c 128,-1,45
 699 368 699 368 749.5 300.5 c 128,-1,46
 800 233 800 233 843 164 c 128,-1,47
 886 95 886 95 916 32 c 0,48,49
 932 0 932 0 896 0 c 2,50,-1
 800 0 l 2,0,1
EndSplineSet
Validated: 1
EndChar

StartChar: l
Encoding: 108 108 79
Width: 464
GlyphClass: 2
Flags: W
LayerCount: 2
Fore
SplineSet
190 0 m 2,0,1
 170 0 170 0 162 8 c 128,-1,2
 154 16 154 16 154 36 c 2,3,-1
 154 1400 l 2,4,5
 154 1420 154 1420 162 1428 c 128,-1,6
 170 1436 170 1436 190 1436 c 2,7,-1
 274 1436 l 2,8,9
 294 1436 294 1436 302 1428 c 128,-1,10
 310 1420 310 1420 310 1400 c 2,11,-1
 310 36 l 2,12,13
 310 16 310 16 302 8 c 128,-1,14
 294 0 294 0 274 0 c 2,15,-1
 190 0 l 2,0,1
EndSplineSet
Validated: 1
EndChar

StartChar: m
Encoding: 109 109 80
Width: 1652
GlyphClass: 2
Flags: W
LayerCount: 2
Fore
SplineSet
190 0 m 2,0,1
 170 0 170 0 162 8 c 128,-1,2
 154 16 154 16 154 36 c 2,3,-1
 154 924 l 2,4,5
 154 944 154 944 162 952 c 128,-1,6
 170 960 170 960 190 960 c 2,7,-1
 264 960 l 2,8,9
 284 960 284 960 292 952 c 128,-1,10
 300 944 300 944 300 924 c 2,11,-1
 300 844 l 1,12,13
 319 869 319 869 345.5 893.5 c 128,-1,14
 372 918 372 918 406.5 937.5 c 128,-1,15
 441 957 441 957 485 968.5 c 128,-1,16
 529 980 529 980 584 980 c 0,17,18
 687 980 687 980 753.5 938.5 c 128,-1,19
 820 897 820 897 856 828 c 1,20,21
 881 859 881 859 913.5 886.5 c 128,-1,22
 946 914 946 914 986 935 c 128,-1,23
 1026 956 1026 956 1074 968 c 128,-1,24
 1122 980 1122 980 1178 980 c 0,25,26
 1266 980 1266 980 1328 950.5 c 128,-1,27
 1390 921 1390 921 1428.5 871.5 c 128,-1,28
 1467 822 1467 822 1484.5 755.5 c 128,-1,29
 1502 689 1502 689 1502 616 c 2,30,-1
 1502 36 l 2,31,32
 1502 16 1502 16 1494 8 c 128,-1,33
 1486 0 1486 0 1466 0 c 2,34,-1
 1382 0 l 2,35,36
 1362 0 1362 0 1354 8 c 128,-1,37
 1346 16 1346 16 1346 36 c 2,38,-1
 1346 602 l 2,39,40
 1346 644 1346 644 1338 688 c 128,-1,41
 1330 732 1330 732 1308.5 768 c 128,-1,42
 1287 804 1287 804 1248 827 c 128,-1,43
 1209 850 1209 850 1148 850 c 0,44,45
 1119 850 1119 850 1086.5 843.5 c 128,-1,46
 1054 837 1054 837 1022.5 822 c 128,-1,47
 991 807 991 807 961 782.5 c 128,-1,48
 931 758 931 758 906 722 c 1,49,-1
 906 36 l 2,50,51
 906 16 906 16 898 8 c 128,-1,52
 890 0 890 0 870 0 c 2,53,-1
 786 0 l 2,54,55
 766 0 766 0 758 8 c 128,-1,56
 750 16 750 16 750 36 c 2,57,-1
 750 602 l 2,58,59
 750 644 750 644 742 688 c 128,-1,60
 734 732 734 732 712 768 c 128,-1,61
 690 804 690 804 651.5 827 c 128,-1,62
 613 850 613 850 552 850 c 0,63,64
 522 850 522 850 489.5 843.5 c 128,-1,65
 457 837 457 837 425.5 822 c 128,-1,66
 394 807 394 807 364.5 782.5 c 128,-1,67
 335 758 335 758 310 722 c 1,68,-1
 310 36 l 2,69,70
 310 16 310 16 302 8 c 128,-1,71
 294 0 294 0 274 0 c 2,72,-1
 190 0 l 2,0,1
EndSplineSet
Validated: 1
EndChar

StartChar: n
Encoding: 110 110 81
Width: 1078
GlyphClass: 2
Flags: W
LayerCount: 2
Fore
SplineSet
190 0 m 2,0,1
 170 0 170 0 162 8 c 128,-1,2
 154 16 154 16 154 36 c 2,3,-1
 154 924 l 2,4,5
 154 944 154 944 162 952 c 128,-1,6
 170 960 170 960 190 960 c 2,7,-1
 264 960 l 2,8,9
 284 960 284 960 292 952 c 128,-1,10
 300 944 300 944 300 924 c 2,11,-1
 300 844 l 1,12,13
 320 869 320 869 347.5 893.5 c 128,-1,14
 375 918 375 918 411 937.5 c 128,-1,15
 447 957 447 957 493 968.5 c 128,-1,16
 539 980 539 980 596 980 c 0,17,18
 685 980 685 980 748 950.5 c 128,-1,19
 811 921 811 921 851 871.5 c 128,-1,20
 891 822 891 822 909.5 755.5 c 128,-1,21
 928 689 928 689 928 616 c 2,22,-1
 928 36 l 2,23,24
 928 16 928 16 920 8 c 128,-1,25
 912 0 912 0 892 0 c 2,26,-1
 808 0 l 2,27,28
 788 0 788 0 780 8 c 128,-1,29
 772 16 772 16 772 36 c 2,30,-1
 772 602 l 2,31,32
 772 644 772 644 763.5 688 c 128,-1,33
 755 732 755 732 732 768 c 128,-1,34
 709 804 709 804 668.5 827 c 128,-1,35
 628 850 628 850 564 850 c 0,36,37
 532 850 532 850 498.5 843.5 c 128,-1,38
 465 837 465 837 432 822 c 128,-1,39
 399 807 399 807 367.5 782.5 c 128,-1,40
 336 758 336 758 310 722 c 1,41,-1
 310 36 l 2,42,43
 310 16 310 16 302 8 c 128,-1,44
 294 0 294 0 274 0 c 2,45,-1
 190 0 l 2,0,1
EndSplineSet
Validated: 1
EndChar

StartChar: o
Encoding: 111 111 82
Width: 1060
GlyphClass: 2
Flags: W
LayerCount: 2
Fore
SplineSet
250 480 m 256,0,1
 250 406 250 406 265.5 338 c 128,-1,2
 281 270 281 270 315 218 c 128,-1,3
 349 166 349 166 402 135 c 128,-1,4
 455 104 455 104 530 104 c 256,5,6
 605 104 605 104 658 135 c 128,-1,7
 711 166 711 166 745 218 c 128,-1,8
 779 270 779 270 794.5 338 c 128,-1,9
 810 406 810 406 810 480 c 256,10,11
 810 554 810 554 794.5 622 c 128,-1,12
 779 690 779 690 745 742 c 128,-1,13
 711 794 711 794 658 825 c 128,-1,14
 605 856 605 856 530 856 c 256,15,16
 455 856 455 856 402 825 c 128,-1,17
 349 794 349 794 315 742 c 128,-1,18
 281 690 281 690 265.5 622 c 128,-1,19
 250 554 250 554 250 480 c 256,0,1
972 480 m 256,20,21
 972 383 972 383 946 293 c 128,-1,22
 920 203 920 203 866 133.5 c 128,-1,23
 812 64 812 64 728.5 22 c 128,-1,24
 645 -20 645 -20 530 -20 c 0,25,26
 412 -20 412 -20 328.5 22 c 128,-1,27
 245 64 245 64 191.5 133.5 c 128,-1,28
 138 203 138 203 113 293 c 128,-1,29
 88 383 88 383 88 480 c 256,30,31
 88 577 88 577 113.5 667 c 128,-1,32
 139 757 139 757 193 826.5 c 128,-1,33
 247 896 247 896 330.5 938 c 128,-1,34
 414 980 414 980 530 980 c 0,35,36
 648 980 648 980 731.5 938 c 128,-1,37
 815 896 815 896 868.5 826.5 c 128,-1,38
 922 757 922 757 947 667 c 128,-1,39
 972 577 972 577 972 480 c 256,20,21
EndSplineSet
Validated: 1
Substitution2: "'ordn' Ordinals in Latin lookup 4 subtable" ordmasculine
EndChar

StartChar: p
Encoding: 112 112 83
Width: 1070
GlyphClass: 2
Flags: W
LayerCount: 2
Fore
SplineSet
190 -400 m 2,0,1
 170 -400 170 -400 162 -392 c 128,-1,2
 154 -384 154 -384 154 -364 c 2,3,-1
 154 924 l 2,4,5
 154 944 154 944 162 952 c 128,-1,6
 170 960 170 960 190 960 c 2,7,-1
 264 960 l 2,8,9
 284 960 284 960 292 952 c 128,-1,10
 300 944 300 944 300 924 c 2,11,-1
 300 844 l 1,12,13
 319 872 319 872 345.5 897 c 128,-1,14
 372 922 372 922 406 940.5 c 128,-1,15
 440 959 440 959 482.5 969.5 c 128,-1,16
 525 980 525 980 578 980 c 0,17,18
 671 980 671 980 745.5 946.5 c 128,-1,19
 820 913 820 913 872.5 849 c 128,-1,20
 925 785 925 785 953.5 692.5 c 128,-1,21
 982 600 982 600 982 482 c 0,22,23
 982 365 982 365 953.5 272 c 128,-1,24
 925 179 925 179 872.5 114 c 128,-1,25
 820 49 820 49 745.5 14.5 c 128,-1,26
 671 -20 671 -20 578 -20 c 0,27,28
 527 -20 527 -20 485.5 -10 c 128,-1,29
 444 0 444 0 411 16.5 c 128,-1,30
 378 33 378 33 353 55 c 128,-1,31
 328 77 328 77 310 102 c 1,32,-1
 310 -364 l 2,33,34
 310 -384 310 -384 302 -392 c 128,-1,35
 294 -400 294 -400 274 -400 c 2,36,-1
 190 -400 l 2,0,1
310 238 m 1,37,38
 355 167 355 167 417.5 136.5 c 128,-1,39
 480 106 480 106 548 106 c 0,40,41
 609 106 609 106 659.5 129.5 c 128,-1,42
 710 153 710 153 745.5 199.5 c 128,-1,43
 781 246 781 246 800.5 316 c 128,-1,44
 820 386 820 386 820 480 c 256,45,46
 820 574 820 574 800.5 644 c 128,-1,47
 781 714 781 714 745.5 760.5 c 128,-1,48
 710 807 710 807 659.5 830.5 c 128,-1,49
 609 854 609 854 548 854 c 0,50,51
 480 854 480 854 417.5 823.5 c 128,-1,52
 355 793 355 793 310 722 c 1,53,-1
 310 238 l 1,37,38
EndSplineSet
Validated: 1
EndChar

StartChar: q
Encoding: 113 113 84
Width: 1068
GlyphClass: 2
Flags: W
LayerCount: 2
Fore
SplineSet
794 -400 m 2,0,1
 774 -400 774 -400 766 -392 c 128,-1,2
 758 -384 758 -384 758 -364 c 2,3,-1
 758 102 l 1,4,5
 741 77 741 77 716 55 c 128,-1,6
 691 33 691 33 658 16.5 c 128,-1,7
 625 0 625 0 583.5 -10 c 128,-1,8
 542 -20 542 -20 490 -20 c 0,9,10
 396 -20 396 -20 321.5 13.5 c 128,-1,11
 247 47 247 47 195 111 c 128,-1,12
 143 175 143 175 115.5 267.5 c 128,-1,13
 88 360 88 360 88 478 c 0,14,15
 88 595 88 595 115.5 688 c 128,-1,16
 143 781 143 781 195 846 c 128,-1,17
 247 911 247 911 321.5 945.5 c 128,-1,18
 396 980 396 980 490 980 c 0,19,20
 543 980 543 980 586 969.5 c 128,-1,21
 629 959 629 959 663.5 940.5 c 128,-1,22
 698 922 698 922 723.5 897 c 128,-1,23
 749 872 749 872 768 844 c 1,24,-1
 768 924 l 2,25,26
 768 944 768 944 776 952 c 128,-1,27
 784 960 784 960 804 960 c 2,28,-1
 878 960 l 2,29,30
 898 960 898 960 906 952 c 128,-1,31
 914 944 914 944 914 924 c 2,32,-1
 914 -364 l 2,33,34
 914 -384 914 -384 906 -392 c 128,-1,35
 898 -400 898 -400 878 -400 c 2,36,-1
 794 -400 l 2,0,1
250 480 m 256,37,38
 250 386 250 386 269.5 316 c 128,-1,39
 289 246 289 246 324.5 199.5 c 128,-1,40
 360 153 360 153 409.5 129.5 c 128,-1,41
 459 106 459 106 520 106 c 0,42,43
 589 106 589 106 651 136.5 c 128,-1,44
 713 167 713 167 758 238 c 1,45,-1
 758 722 l 1,46,47
 713 793 713 793 651 823.5 c 128,-1,48
 589 854 589 854 520 854 c 0,49,50
 459 854 459 854 409.5 830.5 c 128,-1,51
 360 807 360 807 324.5 760.5 c 128,-1,52
 289 714 289 714 269.5 644 c 128,-1,53
 250 574 250 574 250 480 c 256,37,38
EndSplineSet
Validated: 1
EndChar

StartChar: r
Encoding: 114 114 85
Width: 708
GlyphClass: 2
Flags: W
LayerCount: 2
Fore
SplineSet
190 0 m 2,0,1
 170 0 170 0 162 8 c 128,-1,2
 154 16 154 16 154 36 c 2,3,-1
 154 924 l 2,4,5
 154 944 154 944 162 952 c 128,-1,6
 170 960 170 960 190 960 c 2,7,-1
 264 960 l 2,8,9
 284 960 284 960 292 952 c 128,-1,10
 300 944 300 944 300 924 c 2,11,-1
 300 834 l 1,12,13
 320 860 320 860 345.5 886 c 128,-1,14
 371 912 371 912 404 933 c 128,-1,15
 437 954 437 954 478 967 c 128,-1,16
 519 980 519 980 572 980 c 0,17,18
 592 980 592 980 613.5 978 c 128,-1,19
 635 976 635 976 656 970 c 0,20,21
 691 960 691 960 682 926 c 2,22,-1
 666 852 l 2,23,24
 661 832 661 832 652.5 826.5 c 128,-1,25
 644 821 644 821 624 826 c 0,26,27
 582 838 582 838 540 838 c 0,28,29
 511 838 511 838 480.5 832 c 128,-1,30
 450 826 450 826 420 812.5 c 128,-1,31
 390 799 390 799 361.5 776.5 c 128,-1,32
 333 754 333 754 310 722 c 1,33,-1
 310 36 l 2,34,35
 310 16 310 16 302 8 c 128,-1,36
 294 0 294 0 274 0 c 2,37,-1
 190 0 l 2,0,1
EndSplineSet
Validated: 1
EndChar

StartChar: s
Encoding: 115 115 86
Width: 890
GlyphClass: 2
Flags: W
LayerCount: 2
Fore
SplineSet
802 262 m 0,0,1
 802 195 802 195 774 142.5 c 128,-1,2
 746 90 746 90 696.5 54 c 128,-1,3
 647 18 647 18 580 -1 c 128,-1,4
 513 -20 513 -20 436 -20 c 0,5,6
 321 -20 321 -20 238.5 11 c 128,-1,7
 156 42 156 42 106 84 c 0,8,9
 78 106 78 106 100 134 c 2,10,-1
 138 184 l 2,11,12
 150 199 150 199 161.5 201 c 128,-1,13
 173 203 173 203 188 192 c 0,14,15
 238 153 238 153 299 130.5 c 128,-1,16
 360 108 360 108 438 108 c 0,17,18
 481 108 481 108 518.5 117 c 128,-1,19
 556 126 556 126 584.5 144 c 128,-1,20
 613 162 613 162 629.5 189 c 128,-1,21
 646 216 646 216 646 252 c 0,22,23
 646 292 646 292 629 318.5 c 128,-1,24
 612 345 612 345 582 363.5 c 128,-1,25
 552 382 552 382 512.5 394.5 c 128,-1,26
 473 407 473 407 428 418 c 0,27,28
 394 426 394 426 356.5 435.5 c 128,-1,29
 319 445 319 445 283 458.5 c 128,-1,30
 247 472 247 472 214 491 c 128,-1,31
 181 510 181 510 156 538.5 c 128,-1,32
 131 567 131 567 116.5 606.5 c 128,-1,33
 102 646 102 646 102 700 c 0,34,35
 102 764 102 764 129 816 c 128,-1,36
 156 868 156 868 204 904.5 c 128,-1,37
 252 941 252 941 319 960.5 c 128,-1,38
 386 980 386 980 466 980 c 0,39,40
 566 980 566 980 640 957.5 c 128,-1,41
 714 935 714 935 762 900 c 0,42,43
 790 880 790 880 772 850 c 2,44,-1
 736 798 l 2,45,46
 725 781 725 781 715 779 c 128,-1,47
 705 777 705 777 688 788 c 0,48,49
 646 817 646 817 590.5 834.5 c 128,-1,50
 535 852 535 852 464 852 c 0,51,52
 413 852 413 852 374.5 840.5 c 128,-1,53
 336 829 336 829 310 809.5 c 128,-1,54
 284 790 284 790 271 763.5 c 128,-1,55
 258 737 258 737 258 706 c 0,56,57
 258 665 258 665 275.5 639.5 c 128,-1,58
 293 614 293 614 322.5 597.5 c 128,-1,59
 352 581 352 581 391 570.5 c 128,-1,60
 430 560 430 560 474 550 c 0,61,62
 531 536 531 536 589.5 518 c 128,-1,63
 648 500 648 500 695 468.5 c 128,-1,64
 742 437 742 437 772 387.5 c 128,-1,65
 802 338 802 338 802 262 c 0,0,1
EndSplineSet
Validated: 1
EndChar

StartChar: t
Encoding: 116 116 87
Width: 710
GlyphClass: 2
Flags: W
LayerCount: 2
Fore
SplineSet
66 838 m 2,0,1
 46 838 46 838 38 846 c 128,-1,2
 30 854 30 854 30 874 c 2,3,-1
 30 924 l 2,4,5
 30 944 30 944 38 952 c 128,-1,6
 46 960 46 960 66 960 c 2,7,-1
 194 960 l 1,8,-1
 194 1182 l 2,9,10
 194 1202 194 1202 202 1210 c 128,-1,11
 210 1218 210 1218 230 1218 c 2,12,-1
 314 1218 l 2,13,14
 334 1218 334 1218 342 1210 c 128,-1,15
 350 1202 350 1202 350 1182 c 2,16,-1
 350 960 l 1,17,-1
 622 960 l 2,18,19
 642 960 642 960 650 952 c 128,-1,20
 658 944 658 944 658 924 c 2,21,-1
 658 874 l 2,22,23
 658 854 658 854 650 846 c 128,-1,24
 642 838 642 838 622 838 c 2,25,-1
 350 838 l 1,26,-1
 350 274 l 2,27,28
 350 194 350 194 377.5 152 c 128,-1,29
 405 110 405 110 476 110 c 0,30,31
 509 110 509 110 536.5 118.5 c 128,-1,32
 564 127 564 127 590 142 c 0,33,34
 607 151 607 151 616.5 148 c 128,-1,35
 626 145 626 145 634 128 c 2,36,-1
 656 76 l 2,37,38
 670 42 670 42 640 24 c 0,39,40
 598 0 598 0 552 -10 c 128,-1,41
 506 -20 506 -20 456 -20 c 0,42,43
 393 -20 393 -20 344 -5 c 128,-1,44
 295 10 295 10 262 44.5 c 128,-1,45
 229 79 229 79 211.5 133.5 c 128,-1,46
 194 188 194 188 194 268 c 2,47,-1
 194 838 l 1,48,-1
 66 838 l 2,0,1
EndSplineSet
Validated: 1
EndChar

StartChar: u
Encoding: 117 117 88
Width: 1066
GlyphClass: 2
Flags: W
LayerCount: 2
Fore
SplineSet
766 116 m 1,0,1
 746 90 746 90 719 66 c 128,-1,2
 692 42 692 42 657 22.5 c 128,-1,3
 622 3 622 3 577 -8.5 c 128,-1,4
 532 -20 532 -20 476 -20 c 0,5,6
 388 -20 388 -20 326 9.5 c 128,-1,7
 264 39 264 39 225 88.5 c 128,-1,8
 186 138 186 138 168 204 c 128,-1,9
 150 270 150 270 150 344 c 2,10,-1
 150 924 l 2,11,12
 150 944 150 944 158 952 c 128,-1,13
 166 960 166 960 186 960 c 2,14,-1
 270 960 l 2,15,16
 290 960 290 960 298 952 c 128,-1,17
 306 944 306 944 306 924 c 2,18,-1
 306 358 l 2,19,20
 306 316 306 316 315 272 c 128,-1,21
 324 228 324 228 346.5 192 c 128,-1,22
 369 156 369 156 408 133 c 128,-1,23
 447 110 447 110 508 110 c 0,24,25
 539 110 539 110 572 116.5 c 128,-1,26
 605 123 605 123 637.5 138 c 128,-1,27
 670 153 670 153 700 177.5 c 128,-1,28
 730 202 730 202 756 238 c 1,29,-1
 756 924 l 2,30,31
 756 944 756 944 764 952 c 128,-1,32
 772 960 772 960 792 960 c 2,33,-1
 876 960 l 2,34,35
 896 960 896 960 904 952 c 128,-1,36
 912 944 912 944 912 924 c 2,37,-1
 912 36 l 2,38,39
 912 16 912 16 904 8 c 128,-1,40
 896 0 896 0 876 0 c 2,41,-1
 802 0 l 2,42,43
 782 0 782 0 774 8 c 128,-1,44
 766 16 766 16 766 36 c 2,45,-1
 766 116 l 1,46,-1
 766 116 l 1,0,1
EndSplineSet
Validated: 5
EndChar

StartChar: v
Encoding: 118 118 89
Width: 918
GlyphClass: 2
Flags: W
LayerCount: 2
Fore
SplineSet
430 0 m 2,0,1
 410 0 410 0 397.5 7 c 128,-1,2
 385 14 385 14 376 32 c 0,3,4
 330 113 330 113 283.5 216 c 128,-1,5
 237 319 237 319 194.5 433 c 128,-1,6
 152 547 152 547 115 666.5 c 128,-1,7
 78 786 78 786 52 900 c 0,8,9
 50 906 50 906 48 918 c 128,-1,10
 46 930 46 930 46 936 c 0,11,12
 46 947 46 947 52.5 953.5 c 128,-1,13
 59 960 59 960 76 960 c 2,14,-1
 164 960 l 2,15,16
 184 960 184 960 193.5 953 c 128,-1,17
 203 946 203 946 206 926 c 0,18,19
 225 828 225 828 254 725.5 c 128,-1,20
 283 623 283 623 317 524 c 128,-1,21
 351 425 351 425 388.5 333.5 c 128,-1,22
 426 242 426 242 464 168 c 1,23,24
 503 242 503 242 541 333.5 c 128,-1,25
 579 425 579 425 613.5 524.5 c 128,-1,26
 648 624 648 624 677 727 c 128,-1,27
 706 830 706 830 726 928 c 0,28,29
 729 943 729 943 738 951.5 c 128,-1,30
 747 960 747 960 768 960 c 2,31,-1
 842 960 l 2,32,33
 872 960 872 960 872 938 c 0,34,35
 872 932 872 932 870.5 924.5 c 128,-1,36
 869 917 869 917 866 902 c 0,37,38
 843 787 843 787 806.5 667 c 128,-1,39
 770 547 770 547 726.5 433 c 128,-1,40
 683 319 683 319 635.5 216 c 128,-1,41
 588 113 588 113 542 32 c 0,42,43
 533 14 533 14 520.5 7 c 128,-1,44
 508 0 508 0 488 0 c 2,45,-1
 430 0 l 2,0,1
EndSplineSet
Validated: 1
EndChar

StartChar: w
Encoding: 119 119 90
Width: 1476
GlyphClass: 2
Flags: W
LayerCount: 2
Fore
SplineSet
1396 960 m 2,0,1
 1426 960 1426 960 1426 934 c 0,2,3
 1426 928 1426 928 1425 921 c 128,-1,4
 1424 914 1424 914 1422 906 c 0,5,6
 1399 792 1399 792 1367.5 671 c 128,-1,7
 1336 550 1336 550 1299 434.5 c 128,-1,8
 1262 319 1262 319 1222 215 c 128,-1,9
 1182 111 1182 111 1142 32 c 0,10,11
 1134 17 1134 17 1122 8.5 c 128,-1,12
 1110 0 1110 0 1090 0 c 2,13,-1
 1014 0 l 2,14,15
 994 0 994 0 983 7.5 c 128,-1,16
 972 15 972 15 964 32 c 0,17,18
 878 231 878 231 823 399.5 c 128,-1,19
 768 568 768 568 738 724 c 1,20,21
 709 568 709 568 653.5 400 c 128,-1,22
 598 232 598 232 514 34 c 0,23,24
 506 16 506 16 495 8 c 128,-1,25
 484 0 484 0 464 0 c 2,26,-1
 386 0 l 2,27,28
 349 0 349 0 334 32 c 0,29,30
 296 113 296 113 256 217 c 128,-1,31
 216 321 216 321 178.5 436 c 128,-1,32
 141 551 141 551 108.5 671.5 c 128,-1,33
 76 792 76 792 54 906 c 0,34,35
 52 914 52 914 51 921 c 128,-1,36
 50 928 50 928 50 934 c 0,37,38
 50 960 50 960 80 960 c 2,39,-1
 166 960 l 2,40,41
 186 960 186 960 195.5 952 c 128,-1,42
 205 944 205 944 208 924 c 0,43,44
 225 826 225 826 250 721.5 c 128,-1,45
 275 617 275 617 304.5 516 c 128,-1,46
 334 415 334 415 365.5 322 c 128,-1,47
 397 229 397 229 428 156 c 1,48,49
 462 229 462 229 496 322 c 128,-1,50
 530 415 530 415 561.5 516 c 128,-1,51
 593 617 593 617 619 721.5 c 128,-1,52
 645 826 645 826 662 924 c 0,53,54
 665 944 665 944 674.5 952 c 128,-1,55
 684 960 684 960 704 960 c 2,56,-1
 772 960 l 2,57,58
 792 960 792 960 801.5 952 c 128,-1,59
 811 944 811 944 814 924 c 0,60,61
 832 826 832 826 858.5 721.5 c 128,-1,62
 885 617 885 617 916.5 516 c 128,-1,63
 948 415 948 415 982 322 c 128,-1,64
 1016 229 1016 229 1050 156 c 1,65,66
 1081 229 1081 229 1112.5 322 c 128,-1,67
 1144 415 1144 415 1173.5 516 c 128,-1,68
 1203 617 1203 617 1228 721.5 c 128,-1,69
 1253 826 1253 826 1270 924 c 0,70,71
 1273 944 1273 944 1282.5 952 c 128,-1,72
 1292 960 1292 960 1312 960 c 2,73,-1
 1396 960 l 2,0,1
EndSplineSet
Validated: 1
EndChar

StartChar: x
Encoding: 120 120 91
Width: 916
GlyphClass: 2
Flags: W
LayerCount: 2
Fore
SplineSet
834 960 m 2,0,1
 860 960 860 960 860 942 c 0,2,3
 860 934 860 934 857 924.5 c 128,-1,4
 854 915 854 915 852 910 c 0,5,6
 834 863 834 863 803 810.5 c 128,-1,7
 772 758 772 758 732 703 c 128,-1,8
 692 648 692 648 646 592 c 128,-1,9
 600 536 600 536 552 482 c 1,10,11
 602 426 602 426 650 368.5 c 128,-1,12
 698 311 698 311 738.5 254 c 128,-1,13
 779 197 779 197 811 143.5 c 128,-1,14
 843 90 843 90 862 44 c 0,15,16
 865 36 865 36 866.5 31 c 128,-1,17
 868 26 868 26 868 18 c 0,18,19
 868 0 868 0 842 0 c 2,20,-1
 750 0 l 2,21,22
 729 0 729 0 718.5 7 c 128,-1,23
 708 14 708 14 700 34 c 0,24,25
 670 109 670 109 607 198 c 128,-1,26
 544 287 544 287 452 390 c 1,27,28
 361 287 361 287 298 198 c 128,-1,29
 235 109 235 109 202 34 c 0,30,31
 194 14 194 14 183.5 7 c 128,-1,32
 173 0 173 0 152 0 c 2,33,-1
 74 0 l 2,34,35
 48 0 48 0 48 18 c 0,36,37
 48 26 48 26 49.5 31 c 128,-1,38
 51 36 51 36 54 44 c 0,39,40
 73 90 73 90 104.5 143.5 c 128,-1,41
 136 197 136 197 176.5 254 c 128,-1,42
 217 311 217 311 264.5 368.5 c 128,-1,43
 312 426 312 426 362 482 c 1,44,45
 314 536 314 536 267.5 593 c 128,-1,46
 221 650 221 650 181 705.5 c 128,-1,47
 141 761 141 761 110.5 812.5 c 128,-1,48
 80 864 80 864 64 908 c 0,49,50
 62 913 62 913 59 921 c 128,-1,51
 56 929 56 929 56 940 c 0,52,53
 56 960 56 960 82 960 c 2,54,-1
 172 960 l 2,55,56
 193 960 193 960 203.5 953 c 128,-1,57
 214 946 214 946 222 926 c 0,58,59
 251 851 251 851 311.5 763 c 128,-1,60
 372 675 372 675 460 574 c 1,61,62
 551 675 551 675 612.5 763 c 128,-1,63
 674 851 674 851 706 926 c 0,64,65
 714 946 714 946 724.5 953 c 128,-1,66
 735 960 735 960 756 960 c 2,67,-1
 834 960 l 2,0,1
EndSplineSet
Validated: 1
EndChar

StartChar: y
Encoding: 121 121 92
Width: 918
GlyphClass: 2
Flags: W
LayerCount: 2
Fore
SplineSet
382 20 m 1,0,1
 333 105 333 105 285 210.5 c 128,-1,2
 237 316 237 316 193.5 431.5 c 128,-1,3
 150 547 150 547 113 666.5 c 128,-1,4
 76 786 76 786 50 900 c 0,5,6
 48 906 48 906 46 918 c 128,-1,7
 44 930 44 930 44 936 c 0,8,9
 44 947 44 947 50.5 953.5 c 128,-1,10
 57 960 57 960 74 960 c 2,11,-1
 162 960 l 2,12,13
 182 960 182 960 191.5 953 c 128,-1,14
 201 946 201 946 204 926 c 0,15,16
 223 828 223 828 252 725.5 c 128,-1,17
 281 623 281 623 315 524 c 128,-1,18
 349 425 349 425 386.5 333.5 c 128,-1,19
 424 242 424 242 462 168 c 1,20,21
 501 242 501 242 539 333.5 c 128,-1,22
 577 425 577 425 611.5 524.5 c 128,-1,23
 646 624 646 624 675 727 c 128,-1,24
 704 830 704 830 724 928 c 0,25,26
 727 943 727 943 736 951.5 c 128,-1,27
 745 960 745 960 766 960 c 2,28,-1
 840 960 l 2,29,30
 870 960 870 960 870 938 c 0,31,32
 870 932 870 932 868.5 924.5 c 128,-1,33
 867 917 867 917 864 902 c 0,34,35
 837 766 837 766 792 625.5 c 128,-1,36
 747 485 747 485 694 354 c 0,37,38
 646 234 646 234 589.5 123 c 128,-1,39
 533 12 533 12 468.5 -84 c 128,-1,40
 404 -180 404 -180 330 -258 c 128,-1,41
 256 -336 256 -336 174 -390 c 0,42,43
 161 -400 161 -400 146 -400 c 0,44,45
 129 -400 129 -400 118 -384 c 2,46,-1
 82 -334 l 2,47,48
 72 -321 72 -321 72 -310 c 0,49,50
 72 -295 72 -295 92 -282 c 0,51,52
 138 -248 138 -248 175.5 -216.5 c 128,-1,53
 213 -185 213 -185 247.5 -150 c 128,-1,54
 282 -115 282 -115 314.5 -74 c 128,-1,55
 347 -33 347 -33 382 20 c 1,0,1
EndSplineSet
Validated: 1
EndChar

StartChar: z
Encoding: 122 122 93
Width: 876
GlyphClass: 2
Flags: W
LayerCount: 2
Fore
SplineSet
762 824 m 0,0,1
 740 785 740 785 698.5 724.5 c 128,-1,2
 657 664 657 664 605.5 593.5 c 128,-1,3
 554 523 554 523 498.5 449 c 128,-1,4
 443 375 443 375 395 310 c 128,-1,5
 347 245 347 245 311.5 194.5 c 128,-1,6
 276 144 276 144 264 122 c 1,7,-1
 764 122 l 2,8,9
 784 122 784 122 792 114 c 128,-1,10
 800 106 800 106 800 86 c 2,11,-1
 800 36 l 2,12,13
 800 16 800 16 792 8 c 128,-1,14
 784 0 784 0 764 0 c 2,15,-1
 120 0 l 2,16,17
 100 0 100 0 92 8 c 128,-1,18
 84 16 84 16 84 36 c 2,19,-1
 84 76 l 2,20,21
 84 90 84 90 88 107 c 128,-1,22
 92 124 92 124 100 136 c 0,23,24
 121 175 121 175 163 235.5 c 128,-1,25
 205 296 205 296 256.5 366.5 c 128,-1,26
 308 437 308 437 363 511 c 128,-1,27
 418 585 418 585 466.5 650 c 128,-1,28
 515 715 515 715 550.5 765 c 128,-1,29
 586 815 586 815 598 838 c 1,30,-1
 144 838 l 2,31,32
 124 838 124 838 116 846 c 128,-1,33
 108 854 108 854 108 874 c 2,34,-1
 108 924 l 2,35,36
 108 944 108 944 116 952 c 128,-1,37
 124 960 124 960 144 960 c 2,38,-1
 742 960 l 2,39,40
 762 960 762 960 770 952 c 128,-1,41
 778 944 778 944 778 924 c 2,42,-1
 778 884 l 2,43,44
 778 870 778 870 774 853 c 128,-1,45
 770 836 770 836 762 824 c 0,0,1
EndSplineSet
Validated: 1
EndChar

StartChar: braceleft
Encoding: 123 123 94
Width: 552
GlyphClass: 2
Flags: W
LayerCount: 2
Fore
SplineSet
332 996 m 1,0,1
 332 905 332 905 321.5 840.5 c 128,-1,2
 311 776 311 776 290 732 c 0,3,4
 276 703 276 703 256 681.5 c 128,-1,5
 236 660 236 660 212 642 c 1,6,7
 236 624 236 624 256 602.5 c 128,-1,8
 276 581 276 581 290 552 c 0,9,10
 311 508 311 508 321.5 443.5 c 128,-1,11
 332 379 332 379 332 288 c 2,12,-1
 332 112 l 2,13,14
 332 71 332 71 334.5 42 c 128,-1,15
 337 13 337 13 341.5 -7 c 128,-1,16
 346 -27 346 -27 352 -39.5 c 128,-1,17
 358 -52 358 -52 364 -60 c 0,18,19
 379 -80 379 -80 402.5 -90 c 128,-1,20
 426 -100 426 -100 464 -100 c 0,21,22
 484 -100 484 -100 492 -108 c 128,-1,23
 500 -116 500 -116 500 -136 c 2,24,-1
 500 -160 l 2,25,26
 500 -180 500 -180 492 -188 c 128,-1,27
 484 -196 484 -196 464 -196 c 2,28,-1
 456 -196 l 2,29,30
 431 -196 431 -196 405 -193.5 c 128,-1,31
 379 -191 379 -191 354 -184.5 c 128,-1,32
 329 -178 329 -178 306.5 -166 c 128,-1,33
 284 -154 284 -154 266 -134 c 0,34,35
 233 -99 233 -99 214.5 -35 c 128,-1,36
 196 29 196 29 196 126 c 2,37,-1
 196 308 l 2,38,39
 196 376 196 376 190 429.5 c 128,-1,40
 184 483 184 483 169 519.5 c 128,-1,41
 154 556 154 556 128 575 c 128,-1,42
 102 594 102 594 62 594 c 0,43,44
 44 594 44 594 36 602 c 128,-1,45
 28 610 28 610 28 630 c 2,46,-1
 28 654 l 2,47,48
 28 674 28 674 36 682 c 128,-1,49
 44 690 44 690 62 690 c 0,50,51
 102 690 102 690 128 709 c 128,-1,52
 154 728 154 728 169 764.5 c 128,-1,53
 184 801 184 801 190 854.5 c 128,-1,54
 196 908 196 908 196 976 c 2,55,-1
 196 1158 l 2,56,57
 196 1255 196 1255 214.5 1319 c 128,-1,58
 233 1383 233 1383 266 1418 c 0,59,60
 284 1437 284 1437 306.5 1449.5 c 128,-1,61
 329 1462 329 1462 354 1468.5 c 128,-1,62
 379 1475 379 1475 405 1477.5 c 128,-1,63
 431 1480 431 1480 456 1480 c 2,64,-1
 464 1480 l 2,65,66
 484 1480 484 1480 492 1472 c 128,-1,67
 500 1464 500 1464 500 1444 c 2,68,-1
 500 1420 l 2,69,70
 500 1400 500 1400 492 1392 c 128,-1,71
 484 1384 484 1384 464 1384 c 0,72,73
 426 1384 426 1384 402.5 1374 c 128,-1,74
 379 1364 379 1364 364 1344 c 0,75,76
 358 1336 358 1336 352 1323.5 c 128,-1,77
 346 1311 346 1311 341.5 1291 c 128,-1,78
 337 1271 337 1271 334.5 1242 c 128,-1,79
 332 1213 332 1213 332 1172 c 2,80,-1
 332 996 l 1,81,-1
 332 996 l 1,0,1
EndSplineSet
Validated: 5
EndChar

StartChar: bar
Encoding: 124 124 95
Width: 616
GlyphClass: 2
Flags: W
LayerCount: 2
Fore
SplineSet
276 -196 m 2,0,1
 256 -196 256 -196 248 -188 c 128,-1,2
 240 -180 240 -180 240 -160 c 2,3,-1
 240 1446 l 2,4,5
 240 1466 240 1466 248 1474 c 128,-1,6
 256 1482 256 1482 276 1482 c 2,7,-1
 340 1482 l 2,8,9
 360 1482 360 1482 368 1474 c 128,-1,10
 376 1466 376 1466 376 1446 c 2,11,-1
 376 -160 l 2,12,13
 376 -180 376 -180 368 -188 c 128,-1,14
 360 -196 360 -196 340 -196 c 2,15,-1
 276 -196 l 2,0,1
EndSplineSet
Validated: 1
EndChar

StartChar: braceright
Encoding: 125 125 96
Width: 552
GlyphClass: 2
Flags: W
LayerCount: 2
Fore
SplineSet
220 288 m 1,0,1
 220 379 220 379 230.5 443.5 c 128,-1,2
 241 508 241 508 262 552 c 0,3,4
 276 581 276 581 296 602.5 c 128,-1,5
 316 624 316 624 340 642 c 1,6,7
 316 660 316 660 296 681.5 c 128,-1,8
 276 703 276 703 262 732 c 0,9,10
 241 776 241 776 230.5 840.5 c 128,-1,11
 220 905 220 905 220 996 c 2,12,-1
 220 1172 l 2,13,14
 220 1213 220 1213 217 1242 c 128,-1,15
 214 1271 214 1271 209.5 1291 c 128,-1,16
 205 1311 205 1311 199.5 1323.5 c 128,-1,17
 194 1336 194 1336 188 1344 c 0,18,19
 173 1364 173 1364 149.5 1374 c 128,-1,20
 126 1384 126 1384 88 1384 c 0,21,22
 68 1384 68 1384 60 1392 c 128,-1,23
 52 1400 52 1400 52 1420 c 2,24,-1
 52 1444 l 2,25,26
 52 1464 52 1464 60 1472 c 128,-1,27
 68 1480 68 1480 88 1480 c 2,28,-1
 96 1480 l 2,29,30
 121 1480 121 1480 147 1477.5 c 128,-1,31
 173 1475 173 1475 198 1468.5 c 128,-1,32
 223 1462 223 1462 245.5 1449.5 c 128,-1,33
 268 1437 268 1437 286 1418 c 0,34,35
 319 1383 319 1383 337.5 1319 c 128,-1,36
 356 1255 356 1255 356 1158 c 2,37,-1
 356 976 l 2,38,39
 356 908 356 908 362 854.5 c 128,-1,40
 368 801 368 801 383 764.5 c 128,-1,41
 398 728 398 728 424 709 c 128,-1,42
 450 690 450 690 490 690 c 0,43,44
 508 690 508 690 516 682 c 128,-1,45
 524 674 524 674 524 654 c 2,46,-1
 524 630 l 2,47,48
 524 610 524 610 516 602 c 128,-1,49
 508 594 508 594 490 594 c 0,50,51
 450 594 450 594 424 575 c 128,-1,52
 398 556 398 556 383 519.5 c 128,-1,53
 368 483 368 483 362 429.5 c 128,-1,54
 356 376 356 376 356 308 c 2,55,-1
 356 126 l 2,56,57
 356 29 356 29 337.5 -35 c 128,-1,58
 319 -99 319 -99 286 -134 c 0,59,60
 268 -154 268 -154 245.5 -166 c 128,-1,61
 223 -178 223 -178 198 -184.5 c 128,-1,62
 173 -191 173 -191 147 -193.5 c 128,-1,63
 121 -196 121 -196 96 -196 c 2,64,-1
 88 -196 l 2,65,66
 68 -196 68 -196 60 -188 c 128,-1,67
 52 -180 52 -180 52 -160 c 2,68,-1
 52 -136 l 2,69,70
 52 -116 52 -116 60 -108 c 128,-1,71
 68 -100 68 -100 88 -100 c 0,72,73
 126 -100 126 -100 149.5 -90 c 128,-1,74
 173 -80 173 -80 188 -60 c 0,75,76
 194 -52 194 -52 199.5 -39.5 c 128,-1,77
 205 -27 205 -27 209.5 -7 c 128,-1,78
 214 13 214 13 217 42 c 128,-1,79
 220 71 220 71 220 112 c 2,80,-1
 220 288 l 1,81,-1
 220 288 l 1,0,1
EndSplineSet
Validated: 5
EndChar

StartChar: asciitilde
Encoding: 126 126 97
Width: 1064
GlyphClass: 2
Flags: W
LayerCount: 2
Fore
SplineSet
710 336 m 0,0,1
 669 336 669 336 634.5 348 c 128,-1,2
 600 360 600 360 569.5 378 c 128,-1,3
 539 396 539 396 511 417 c 128,-1,4
 483 438 483 438 456 456 c 128,-1,5
 429 474 429 474 401.5 486 c 128,-1,6
 374 498 374 498 344 498 c 0,7,8
 299 498 299 498 263 469.5 c 128,-1,9
 227 441 227 441 200 388 c 0,10,11
 195 379 195 379 190 372.5 c 128,-1,12
 185 366 185 366 176 366 c 0,13,14
 166 366 166 366 150 374 c 2,15,-1
 114 392 l 2,16,17
 103 398 103 398 99.5 403 c 128,-1,18
 96 408 96 408 96 416 c 256,19,20
 96 424 96 424 98.5 431 c 128,-1,21
 101 438 101 438 104 446 c 0,22,23
 121 489 121 489 147.5 522.5 c 128,-1,24
 174 556 174 556 207 579 c 128,-1,25
 240 602 240 602 277.5 614 c 128,-1,26
 315 626 315 626 354 626 c 0,27,28
 394 626 394 626 429 614 c 128,-1,29
 464 602 464 602 494.5 584 c 128,-1,30
 525 566 525 566 553 545 c 128,-1,31
 581 524 581 524 608 506 c 128,-1,32
 635 488 635 488 662.5 476 c 128,-1,33
 690 464 690 464 720 464 c 0,34,35
 765 464 765 464 801 492.5 c 128,-1,36
 837 521 837 521 864 574 c 0,37,38
 869 583 869 583 874 589.5 c 128,-1,39
 879 596 879 596 888 596 c 0,40,41
 898 596 898 596 914 588 c 2,42,-1
 950 570 l 2,43,44
 961 564 961 564 964.5 559 c 128,-1,45
 968 554 968 554 968 546 c 256,46,47
 968 538 968 538 965.5 531 c 128,-1,48
 963 524 963 524 960 516 c 0,49,50
 943 473 943 473 916.5 439.5 c 128,-1,51
 890 406 890 406 857 383 c 128,-1,52
 824 360 824 360 786.5 348 c 128,-1,53
 749 336 749 336 710 336 c 0,0,1
EndSplineSet
Validated: 1
EndChar

StartChar: exclamdown
Encoding: 161 161 99
Width: 524
GlyphClass: 2
Flags: W
LayerCount: 2
Fore
SplineSet
370 -324 m 2,0,1
 373 -360 373 -360 336 -360 c 2,2,-1
 188 -360 l 2,3,4
 151 -360 151 -360 154 -324 c 2,5,-1
 222 568 l 2,6,7
 224 588 224 588 232 596 c 128,-1,8
 240 604 240 604 260 604 c 2,9,-1
 264 604 l 2,10,11
 284 604 284 604 292 596 c 128,-1,12
 300 588 300 588 302 568 c 2,13,-1
 370 -324 l 2,0,1
378 862 m 256,14,15
 378 812 378 812 346.5 778 c 128,-1,16
 315 744 315 744 262 744 c 256,17,18
 209 744 209 744 177.5 778 c 128,-1,19
 146 812 146 812 146 862 c 256,20,21
 146 912 146 912 177.5 946 c 128,-1,22
 209 980 209 980 262 980 c 256,23,24
 315 980 315 980 346.5 946 c 128,-1,25
 378 912 378 912 378 862 c 256,14,15
EndSplineSet
Validated: 1
EndChar

StartChar: cent
Encoding: 162 162 100
Width: 1064
GlyphClass: 2
Flags: W
LayerCount: 2
Fore
SplineSet
574 -128 m 2,0,1
 554 -128 554 -128 546 -120 c 128,-1,2
 538 -112 538 -112 538 -92 c 2,3,-1
 538 22 l 1,4,5
 436 33 436 33 363.5 78 c 128,-1,6
 291 123 291 123 245 190.5 c 128,-1,7
 199 258 199 258 177.5 341 c 128,-1,8
 156 424 156 424 156 512 c 0,9,10
 156 598 156 598 177 681.5 c 128,-1,11
 198 765 198 765 244 834 c 128,-1,12
 290 903 290 903 362.5 950.5 c 128,-1,13
 435 998 435 998 538 1012 c 1,14,-1
 538 1128 l 2,15,16
 538 1148 538 1148 546 1156 c 128,-1,17
 554 1164 554 1164 574 1164 c 2,18,-1
 618 1164 l 2,19,20
 638 1164 638 1164 646 1156 c 128,-1,21
 654 1148 654 1148 654 1128 c 2,22,-1
 654 1016 l 1,23,24
 723 1011 723 1011 788.5 992 c 128,-1,25
 854 973 854 973 908 932 c 0,26,27
 936 912 936 912 918 882 c 2,28,-1
 882 828 l 2,29,30
 871 811 871 811 861 809.5 c 128,-1,31
 851 808 851 808 834 820 c 0,32,33
 795 849 795 849 749.5 865 c 128,-1,34
 704 881 704 881 654 886 c 1,35,-1
 654 150 l 1,36,37
 701 155 701 155 747 172.5 c 128,-1,38
 793 190 793 190 834 220 c 0,39,40
 851 232 851 232 861.5 230.5 c 128,-1,41
 872 229 872 229 884 212 c 2,42,-1
 916 162 l 2,43,44
 936 133 936 133 908 110 c 0,45,46
 855 69 855 69 790.5 47.5 c 128,-1,47
 726 26 726 26 654 20 c 1,48,-1
 654 -92 l 2,49,50
 654 -112 654 -112 646 -120 c 128,-1,51
 638 -128 638 -128 618 -128 c 2,52,-1
 574 -128 l 2,0,1
538 880 m 1,53,54
 477 866 477 866 434 832.5 c 128,-1,55
 391 799 391 799 364 750.5 c 128,-1,56
 337 702 337 702 324.5 642 c 128,-1,57
 312 582 312 582 312 516 c 256,58,59
 312 450 312 450 324.5 390.5 c 128,-1,60
 337 331 337 331 364 283 c 128,-1,61
 391 235 391 235 434 202 c 128,-1,62
 477 169 477 169 538 156 c 1,63,-1
 538 880 l 1,53,54
EndSplineSet
Validated: 1
EndChar

StartChar: sterling
Encoding: 163 163 101
Width: 1064
GlyphClass: 2
Flags: W
LayerCount: 2
Fore
SplineSet
148 598 m 2,0,1
 128 598 128 598 120 606 c 128,-1,2
 112 614 112 614 112 634 c 2,3,-1
 112 690 l 2,4,5
 112 710 112 710 120 718 c 128,-1,6
 128 726 128 726 148 726 c 2,7,-1
 278 726 l 1,8,9
 257 777 257 777 240.5 835.5 c 128,-1,10
 224 894 224 894 224 966 c 0,11,12
 224 1046 224 1046 248.5 1115 c 128,-1,13
 273 1184 273 1184 323 1235 c 128,-1,14
 373 1286 373 1286 449 1315 c 128,-1,15
 525 1344 525 1344 628 1344 c 0,16,17
 740 1344 740 1344 824 1314.5 c 128,-1,18
 908 1285 908 1285 962 1244 c 0,19,20
 990 1221 990 1221 970 1192 c 2,21,-1
 934 1138 l 2,22,23
 923 1123 923 1123 912 1120.5 c 128,-1,24
 901 1118 901 1118 886 1130 c 0,25,26
 835 1165 835 1165 770.5 1187.5 c 128,-1,27
 706 1210 706 1210 628 1210 c 0,28,29
 500 1210 500 1210 438 1148 c 128,-1,30
 376 1086 376 1086 376 974 c 0,31,32
 376 942 376 942 380.5 909 c 128,-1,33
 385 876 385 876 392.5 843.5 c 128,-1,34
 400 811 400 811 409.5 781 c 128,-1,35
 419 751 419 751 430 726 c 1,36,-1
 796 726 l 2,37,38
 816 726 816 726 824 718 c 128,-1,39
 832 710 832 710 832 690 c 2,40,-1
 832 634 l 2,41,42
 832 614 832 614 824 606 c 128,-1,43
 816 598 816 598 796 598 c 2,44,-1
 478 598 l 1,45,46
 489 562 489 562 492.5 524 c 128,-1,47
 496 486 496 486 496 450 c 0,48,49
 496 397 496 397 483.5 348.5 c 128,-1,50
 471 300 471 300 448.5 259 c 128,-1,51
 426 218 426 218 395.5 185.5 c 128,-1,52
 365 153 365 153 330 132 c 1,53,-1
 938 132 l 2,54,55
 958 132 958 132 966 124 c 128,-1,56
 974 116 974 116 974 96 c 2,57,-1
 974 36 l 2,58,59
 974 16 974 16 966 8 c 128,-1,60
 958 0 958 0 938 0 c 2,61,-1
 178 0 l 2,62,63
 158 0 158 0 150 8 c 128,-1,64
 142 16 142 16 142 36 c 2,65,-1
 142 98 l 2,66,67
 142 119 142 119 149 130.5 c 128,-1,68
 156 142 156 142 174 154 c 0,69,70
 267 208 267 208 308.5 289 c 128,-1,71
 350 370 350 370 350 462 c 0,72,73
 350 498 350 498 344.5 532 c 128,-1,74
 339 566 339 566 328 598 c 1,75,-1
 148 598 l 2,0,1
EndSplineSet
Validated: 1
EndChar

StartChar: currency
Encoding: 164 164 102
Width: 1064
GlyphClass: 2
Flags: W
LayerCount: 2
Fore
SplineSet
88 232 m 2,0,1
 62 258 62 258 88 284 c 2,2,-1
 200 396 l 1,3,4
 155 450 155 450 133.5 519 c 128,-1,5
 112 588 112 588 112 662 c 256,6,7
 112 736 112 736 133.5 804 c 128,-1,8
 155 872 155 872 200 928 c 1,9,-1
 88 1040 l 2,10,11
 62 1066 62 1066 88 1092 c 2,12,-1
 134 1138 l 2,13,14
 160 1164 160 1164 186 1138 c 2,15,-1
 308 1016 l 1,16,17
 353 1040 353 1040 408.5 1053 c 128,-1,18
 464 1066 464 1066 532 1066 c 256,19,20
 600 1066 600 1066 655.5 1053 c 128,-1,21
 711 1040 711 1040 756 1016 c 1,22,-1
 878 1138 l 2,23,24
 904 1164 904 1164 930 1138 c 2,25,-1
 976 1092 l 2,26,27
 1002 1066 1002 1066 976 1040 c 2,28,-1
 864 928 l 1,29,30
 909 872 909 872 930.5 804 c 128,-1,31
 952 736 952 736 952 662 c 256,32,33
 952 588 952 588 930.5 519 c 128,-1,34
 909 450 909 450 864 396 c 1,35,-1
 976 284 l 2,36,37
 1002 258 1002 258 976 232 c 2,38,-1
 930 186 l 2,39,40
 904 160 904 160 878 186 c 2,41,-1
 756 308 l 1,42,43
 711 284 711 284 655.5 271 c 128,-1,44
 600 258 600 258 532 258 c 256,45,46
 464 258 464 258 408.5 271 c 128,-1,47
 353 284 353 284 308 308 c 1,48,-1
 186 186 l 2,49,50
 160 160 160 160 134 186 c 2,51,-1
 88 232 l 2,0,1
270 662 m 256,52,53
 270 606 270 606 285 555.5 c 128,-1,54
 300 505 300 505 331.5 467 c 128,-1,55
 363 429 363 429 412.5 406.5 c 128,-1,56
 462 384 462 384 532 384 c 256,57,58
 602 384 602 384 651.5 406.5 c 128,-1,59
 701 429 701 429 732.5 467 c 128,-1,60
 764 505 764 505 779 555.5 c 128,-1,61
 794 606 794 606 794 662 c 256,62,63
 794 718 794 718 779 768.5 c 128,-1,64
 764 819 764 819 732.5 857 c 128,-1,65
 701 895 701 895 651.5 917.5 c 128,-1,66
 602 940 602 940 532 940 c 256,67,68
 462 940 462 940 412.5 917.5 c 128,-1,69
 363 895 363 895 331.5 857 c 128,-1,70
 300 819 300 819 285 768.5 c 128,-1,71
 270 718 270 718 270 662 c 256,52,53
EndSplineSet
Validated: 1
EndChar

StartChar: yen
Encoding: 165 165 103
Width: 1064
GlyphClass: 2
Flags: W
LayerCount: 2
Fore
SplineSet
128 510 m 2,0,1
 108 510 108 510 100 518 c 128,-1,2
 92 526 92 526 92 546 c 2,3,-1
 92 600 l 2,4,5
 92 620 92 620 100 628 c 128,-1,6
 108 636 108 636 128 636 c 2,7,-1
 374 636 l 1,8,9
 332 708 332 708 290 787.5 c 128,-1,10
 248 867 248 867 208.5 951 c 128,-1,11
 169 1035 169 1035 133.5 1120.5 c 128,-1,12
 98 1206 98 1206 70 1290 c 0,13,14
 58 1324 58 1324 94 1324 c 2,15,-1
 190 1324 l 2,16,17
 210 1324 210 1324 220 1316 c 128,-1,18
 230 1308 230 1308 238 1290 c 0,19,20
 268 1200 268 1200 303 1109.5 c 128,-1,21
 338 1019 338 1019 376 934.5 c 128,-1,22
 414 850 414 850 454 773.5 c 128,-1,23
 494 697 494 697 534 636 c 1,24,25
 572 697 572 697 612.5 773.5 c 128,-1,26
 653 850 653 850 692 934.5 c 128,-1,27
 731 1019 731 1019 767.5 1109.5 c 128,-1,28
 804 1200 804 1200 836 1290 c 0,29,30
 847 1324 847 1324 884 1324 c 2,31,-1
 970 1324 l 2,32,33
 1006 1324 1006 1324 994 1290 c 0,34,35
 965 1207 965 1207 929 1121.5 c 128,-1,36
 893 1036 893 1036 853.5 952 c 128,-1,37
 814 868 814 868 772 788 c 128,-1,38
 730 708 730 708 688 636 c 1,39,-1
 936 636 l 2,40,41
 956 636 956 636 964 628 c 128,-1,42
 972 620 972 620 972 600 c 2,43,-1
 972 546 l 2,44,45
 972 526 972 526 964 518 c 128,-1,46
 956 510 956 510 936 510 c 2,47,-1
 612 510 l 1,48,-1
 612 352 l 1,49,-1
 936 352 l 2,50,51
 956 352 956 352 964 344 c 128,-1,52
 972 336 972 336 972 316 c 2,53,-1
 972 262 l 2,54,55
 972 242 972 242 964 234 c 128,-1,56
 956 226 956 226 936 226 c 2,57,-1
 612 226 l 1,58,-1
 612 36 l 2,59,60
 612 16 612 16 604 8 c 128,-1,61
 596 0 596 0 576 0 c 2,62,-1
 488 0 l 2,63,64
 468 0 468 0 460 8 c 128,-1,65
 452 16 452 16 452 36 c 2,66,-1
 452 226 l 1,67,-1
 128 226 l 2,68,69
 108 226 108 226 100 234 c 128,-1,70
 92 242 92 242 92 262 c 2,71,-1
 92 316 l 2,72,73
 92 336 92 336 100 344 c 128,-1,74
 108 352 108 352 128 352 c 2,75,-1
 452 352 l 1,76,-1
 452 510 l 1,77,-1
 128 510 l 2,0,1
EndSplineSet
Validated: 1
EndChar

StartChar: brokenbar
Encoding: 166 166 104
Width: 616
GlyphClass: 2
Flags: W
LayerCount: 2
Fore
SplineSet
276 852 m 2,0,1
 256 852 256 852 248 860 c 128,-1,2
 240 868 240 868 240 888 c 2,3,-1
 240 1446 l 2,4,5
 240 1466 240 1466 248 1474 c 128,-1,6
 256 1482 256 1482 276 1482 c 2,7,-1
 340 1482 l 2,8,9
 360 1482 360 1482 368 1474 c 128,-1,10
 376 1466 376 1466 376 1446 c 2,11,-1
 376 888 l 2,12,13
 376 868 376 868 368 860 c 128,-1,14
 360 852 360 852 340 852 c 2,15,-1
 276 852 l 2,0,1
276 -196 m 2,16,17
 256 -196 256 -196 248 -188 c 128,-1,18
 240 -180 240 -180 240 -160 c 2,19,-1
 240 398 l 2,20,21
 240 418 240 418 248 426 c 128,-1,22
 256 434 256 434 276 434 c 2,23,-1
 340 434 l 2,24,25
 360 434 360 434 368 426 c 128,-1,26
 376 418 376 418 376 398 c 2,27,-1
 376 -160 l 2,28,29
 376 -180 376 -180 368 -188 c 128,-1,30
 360 -196 360 -196 340 -196 c 2,31,-1
 276 -196 l 2,16,17
EndSplineSet
Validated: 1
EndChar

StartChar: section
Encoding: 167 167 105
Width: 984
GlyphClass: 2
Flags: W
LayerCount: 2
Fore
SplineSet
542 832 m 0,0,1
 582 819 582 819 624 803.5 c 128,-1,2
 666 788 666 788 705 768 c 128,-1,3
 744 748 744 748 779 722.5 c 128,-1,4
 814 697 814 697 840 663 c 128,-1,5
 866 629 866 629 881 586 c 128,-1,6
 896 543 896 543 896 488 c 0,7,8
 896 387 896 387 847.5 317 c 128,-1,9
 799 247 799 247 716 208 c 1,10,11
 769 170 769 170 803.5 115.5 c 128,-1,12
 838 61 838 61 838 -20 c 0,13,14
 838 -92 838 -92 809 -150 c 128,-1,15
 780 -208 780 -208 727.5 -248.5 c 128,-1,16
 675 -289 675 -289 600 -310.5 c 128,-1,17
 525 -332 525 -332 434 -332 c 0,18,19
 325 -332 325 -332 246 -306 c 128,-1,20
 167 -280 167 -280 116 -244 c 0,21,22
 88 -224 88 -224 106 -194 c 2,23,-1
 140 -144 l 2,24,25
 160 -112 160 -112 188 -134 c 0,26,27
 235 -166 235 -166 296 -186 c 128,-1,28
 357 -206 357 -206 440 -206 c 0,29,30
 507 -206 507 -206 554.5 -192 c 128,-1,31
 602 -178 602 -178 631.5 -153.5 c 128,-1,32
 661 -129 661 -129 674.5 -96.5 c 128,-1,33
 688 -64 688 -64 688 -26 c 0,34,35
 688 19 688 19 671 50 c 128,-1,36
 654 81 654 81 622.5 104 c 128,-1,37
 591 127 591 127 547 144.5 c 128,-1,38
 503 162 503 162 450 180 c 0,39,40
 387 202 387 202 324 227.5 c 128,-1,41
 261 253 261 253 210 292 c 128,-1,42
 159 331 159 331 127.5 386.5 c 128,-1,43
 96 442 96 442 96 524 c 0,44,45
 96 624 96 624 144.5 694.5 c 128,-1,46
 193 765 193 765 276 804 c 1,47,48
 222 840 222 840 188 895.5 c 128,-1,49
 154 951 154 951 154 1034 c 0,50,51
 154 1105 154 1105 181 1162.5 c 128,-1,52
 208 1220 208 1220 258 1260.5 c 128,-1,53
 308 1301 308 1301 378.5 1322.5 c 128,-1,54
 449 1344 449 1344 536 1344 c 0,55,56
 633 1344 633 1344 707 1320.5 c 128,-1,57
 781 1297 781 1297 828 1264 c 0,58,59
 856 1244 856 1244 838 1214 c 2,60,-1
 804 1164 l 2,61,62
 784 1132 784 1132 756 1154 c 0,63,64
 714 1181 714 1181 658 1199.5 c 128,-1,65
 602 1218 602 1218 530 1218 c 0,66,67
 468 1218 468 1218 425 1204 c 128,-1,68
 382 1190 382 1190 355 1166 c 128,-1,69
 328 1142 328 1142 316 1109.5 c 128,-1,70
 304 1077 304 1077 304 1040 c 0,71,72
 304 994 304 994 320.5 963 c 128,-1,73
 337 932 337 932 368 909 c 128,-1,74
 399 886 399 886 443 868.5 c 128,-1,75
 487 851 487 851 542 832 c 0,0,1
746 474 m 0,76,77
 746 523 746 523 726.5 559 c 128,-1,78
 707 595 707 595 673 622 c 128,-1,79
 639 649 639 649 594 669 c 128,-1,80
 549 689 549 689 498 706 c 0,81,82
 468 715 468 715 438 726.5 c 128,-1,83
 408 738 408 738 378 750 c 1,84,85
 346 737 346 737 321.5 714 c 128,-1,86
 297 691 297 691 280.5 662.5 c 128,-1,87
 264 634 264 634 255 601.5 c 128,-1,88
 246 569 246 569 246 538 c 0,89,90
 246 488 246 488 265.5 452.5 c 128,-1,91
 285 417 285 417 319 390 c 128,-1,92
 353 363 353 363 398 343 c 128,-1,93
 443 323 443 323 494 306 c 0,94,95
 524 295 524 295 554 284.5 c 128,-1,96
 584 274 584 274 614 262 c 1,97,98
 645 275 645 275 670 298 c 128,-1,99
 695 321 695 321 711.5 349.5 c 128,-1,100
 728 378 728 378 737 410 c 128,-1,101
 746 442 746 442 746 474 c 0,76,77
EndSplineSet
Validated: 1
EndChar

StartChar: dieresis
Encoding: 168 168 106
Width: 752
GlyphClass: 2
Flags: W
LayerCount: 2
Fore
SplineSet
296 1234 m 256,0,1
 296 1192 296 1192 270.5 1163 c 128,-1,2
 245 1134 245 1134 198 1134 c 256,3,4
 151 1134 151 1134 125.5 1163 c 128,-1,5
 100 1192 100 1192 100 1234 c 256,6,7
 100 1276 100 1276 125.5 1305 c 128,-1,8
 151 1334 151 1334 198 1334 c 256,9,10
 245 1334 245 1334 270.5 1305 c 128,-1,11
 296 1276 296 1276 296 1234 c 256,0,1
652 1234 m 256,12,13
 652 1192 652 1192 626.5 1163 c 128,-1,14
 601 1134 601 1134 554 1134 c 256,15,16
 507 1134 507 1134 481.5 1163 c 128,-1,17
 456 1192 456 1192 456 1234 c 256,18,19
 456 1276 456 1276 481.5 1305 c 128,-1,20
 507 1334 507 1334 554 1334 c 256,21,22
 601 1334 601 1334 626.5 1305 c 128,-1,23
 652 1276 652 1276 652 1234 c 256,12,13
EndSplineSet
Validated: 1
Substitution2: "'aalt' Access All Alternates in Latin lookup 0 subtable" dieresis.case
EndChar

StartChar: copyright
Encoding: 169 169 107
Width: 1584
GlyphClass: 2
Flags: W
LayerCount: 2
Fore
SplineSet
1042 332 m 0,0,1
 992 291 992 291 931 272.5 c 128,-1,2
 870 254 870 254 802 254 c 0,3,4
 704 254 704 254 635 289 c 128,-1,5
 566 324 566 324 521.5 381.5 c 128,-1,6
 477 439 477 439 456.5 512 c 128,-1,7
 436 585 436 585 436 662 c 256,8,9
 436 739 436 739 456.5 812.5 c 128,-1,10
 477 886 477 886 521.5 943 c 128,-1,11
 566 1000 566 1000 636 1035 c 128,-1,12
 706 1070 706 1070 804 1070 c 0,13,14
 869 1070 869 1070 926.5 1053 c 128,-1,15
 984 1036 984 1036 1032 1000 c 0,16,17
 1060 978 1060 978 1038 950 c 2,18,-1
 1010 914 l 2,19,20
 998 899 998 899 986.5 897 c 128,-1,21
 975 895 975 895 958 906 c 0,22,23
 926 929 926 929 889.5 941.5 c 128,-1,24
 853 954 853 954 802 954 c 0,25,26
 745 954 745 954 703 932 c 128,-1,27
 661 910 661 910 634 871 c 128,-1,28
 607 832 607 832 593.5 778.5 c 128,-1,29
 580 725 580 725 580 662 c 0,30,31
 580 600 580 600 593.5 547 c 128,-1,32
 607 494 607 494 634 454.5 c 128,-1,33
 661 415 661 415 703 392.5 c 128,-1,34
 745 370 745 370 802 370 c 0,35,36
 858 370 858 370 897.5 384.5 c 128,-1,37
 937 399 937 399 972 426 c 0,38,39
 987 438 987 438 998 436.5 c 128,-1,40
 1009 435 1009 435 1020 420 c 2,41,-1
 1048 384 l 2,42,43
 1069 353 1069 353 1042 332 c 0,0,1
792 1236 m 256,44,45
 671 1236 671 1236 567.5 1192 c 128,-1,46
 464 1148 464 1148 387.5 1071 c 128,-1,47
 311 994 311 994 267.5 889 c 128,-1,48
 224 784 224 784 224 662 c 256,49,50
 224 540 224 540 267.5 435 c 128,-1,51
 311 330 311 330 387.5 253 c 128,-1,52
 464 176 464 176 567.5 132 c 128,-1,53
 671 88 671 88 792 88 c 256,54,55
 913 88 913 88 1016.5 132 c 128,-1,56
 1120 176 1120 176 1196.5 253 c 128,-1,57
 1273 330 1273 330 1316.5 435 c 128,-1,58
 1360 540 1360 540 1360 662 c 256,59,60
 1360 784 1360 784 1316.5 889 c 128,-1,61
 1273 994 1273 994 1196.5 1071 c 128,-1,62
 1120 1148 1120 1148 1016.5 1192 c 128,-1,63
 913 1236 913 1236 792 1236 c 256,44,45
792 -20 m 256,64,65
 696 -20 696 -20 607.5 3.5 c 128,-1,66
 519 27 519 27 443 71 c 128,-1,67
 367 115 367 115 305 176.5 c 128,-1,68
 243 238 243 238 199.5 313.5 c 128,-1,69
 156 389 156 389 132 477 c 128,-1,70
 108 565 108 565 108 662 c 0,71,72
 108 758 108 758 132 846.5 c 128,-1,73
 156 935 156 935 199.5 1010.5 c 128,-1,74
 243 1086 243 1086 305 1147.5 c 128,-1,75
 367 1209 367 1209 443 1253 c 128,-1,76
 519 1297 519 1297 607 1320.5 c 128,-1,77
 695 1344 695 1344 792 1344 c 256,78,79
 889 1344 889 1344 977 1320.5 c 128,-1,80
 1065 1297 1065 1297 1141 1253 c 128,-1,81
 1217 1209 1217 1209 1279 1147.5 c 128,-1,82
 1341 1086 1341 1086 1384.5 1010.5 c 128,-1,83
 1428 935 1428 935 1452 846.5 c 128,-1,84
 1476 758 1476 758 1476 662 c 256,85,86
 1476 566 1476 566 1452 477.5 c 128,-1,87
 1428 389 1428 389 1384.5 313.5 c 128,-1,88
 1341 238 1341 238 1279 176.5 c 128,-1,89
 1217 115 1217 115 1141 71 c 128,-1,90
 1065 27 1065 27 976.5 3.5 c 128,-1,91
 888 -20 888 -20 792 -20 c 256,64,65
EndSplineSet
Validated: 1
EndChar

StartChar: ordfeminine
Encoding: 170 170 108
Width: 678
GlyphClass: 2
Flags: W
LayerCount: 2
Fore
SplineSet
518 756 m 2,0,1
 498 756 498 756 490 764 c 128,-1,2
 482 772 482 772 482 792 c 2,3,-1
 482 842 l 1,4,5
 467 823 467 823 448 805 c 128,-1,6
 429 787 429 787 403.5 772.5 c 128,-1,7
 378 758 378 758 345.5 749 c 128,-1,8
 313 740 313 740 270 740 c 0,9,10
 214 740 214 740 170.5 756 c 128,-1,11
 127 772 127 772 97 800 c 128,-1,12
 67 828 67 828 51.5 866 c 128,-1,13
 36 904 36 904 36 948 c 0,14,15
 36 995 36 995 53.5 1035 c 128,-1,16
 71 1075 71 1075 106 1104 c 128,-1,17
 141 1133 141 1133 193.5 1149.5 c 128,-1,18
 246 1166 246 1166 316 1166 c 0,19,20
 366 1166 366 1166 406.5 1158 c 128,-1,21
 447 1150 447 1150 474 1138 c 1,22,-1
 474 1190 l 2,23,24
 474 1218 474 1218 468 1247 c 128,-1,25
 462 1276 462 1276 445.5 1299.5 c 128,-1,26
 429 1323 429 1323 398 1337.5 c 128,-1,27
 367 1352 367 1352 318 1352 c 0,28,29
 219 1352 219 1352 146 1294 c 0,30,31
 129 1283 129 1283 118.5 1285 c 128,-1,32
 108 1287 108 1287 96 1304 c 2,33,-1
 78 1330 l 2,34,35
 59 1361 59 1361 86 1382 c 0,36,37
 130 1415 130 1415 190.5 1435.5 c 128,-1,38
 251 1456 251 1456 328 1456 c 0,39,40
 400 1456 400 1456 452 1438 c 128,-1,41
 504 1420 504 1420 537 1387 c 128,-1,42
 570 1354 570 1354 586 1308.5 c 128,-1,43
 602 1263 602 1263 602 1208 c 2,44,-1
 602 792 l 2,45,46
 602 772 602 772 594 764 c 128,-1,47
 586 756 586 756 566 756 c 2,48,-1
 518 756 l 2,0,1
292 846 m 0,49,50
 345 846 345 846 393 868.5 c 128,-1,51
 441 891 441 891 474 944 c 1,52,-1
 474 1044 l 1,53,54
 460 1051 460 1051 441.5 1055 c 128,-1,55
 423 1059 423 1059 403.5 1061.5 c 128,-1,56
 384 1064 384 1064 365.5 1065 c 128,-1,57
 347 1066 347 1066 334 1066 c 0,58,59
 244 1066 244 1066 205 1034.5 c 128,-1,60
 166 1003 166 1003 166 952 c 0,61,62
 166 933 166 933 172 914 c 128,-1,63
 178 895 178 895 192.5 880 c 128,-1,64
 207 865 207 865 231 855.5 c 128,-1,65
 255 846 255 846 292 846 c 0,49,50
EndSplineSet
Validated: 1
EndChar

StartChar: logicalnot
Encoding: 172 172 110
Width: 1064
GlyphClass: 2
Flags: W
LayerCount: 2
Fore
SplineSet
928 36 m 2,0,1
 928 16 928 16 920 8 c 128,-1,2
 912 0 912 0 892 0 c 2,3,-1
 826 0 l 2,4,5
 806 0 806 0 798 8 c 128,-1,6
 790 16 790 16 790 36 c 2,7,-1
 790 416 l 1,8,-1
 132 416 l 2,9,10
 112 416 112 416 104 424 c 128,-1,11
 96 432 96 432 96 452 c 2,12,-1
 96 508 l 2,13,14
 96 528 96 528 104 536 c 128,-1,15
 112 544 112 544 132 544 c 2,16,-1
 892 544 l 2,17,18
 912 544 912 544 920 536 c 128,-1,19
 928 528 928 528 928 508 c 2,20,-1
 928 36 l 2,0,1
EndSplineSet
Validated: 1
EndChar

StartChar: registered
Encoding: 174 174 112
Width: 1228
GlyphClass: 2
Flags: W
LayerCount: 2
Fore
SplineSet
1068 908 m 0,0,1
 1068 1005 1068 1005 1033 1089.5 c 128,-1,2
 998 1174 998 1174 937 1235.5 c 128,-1,3
 876 1297 876 1297 793 1332.5 c 128,-1,4
 710 1368 710 1368 614 1368 c 256,5,6
 518 1368 518 1368 435 1332.5 c 128,-1,7
 352 1297 352 1297 291 1235.5 c 128,-1,8
 230 1174 230 1174 195 1089.5 c 128,-1,9
 160 1005 160 1005 160 908 c 0,10,11
 160 810 160 810 195 726 c 128,-1,12
 230 642 230 642 291 580.5 c 128,-1,13
 352 519 352 519 435 483.5 c 128,-1,14
 518 448 518 448 614 448 c 256,15,16
 710 448 710 448 793 483.5 c 128,-1,17
 876 519 876 519 937 580.5 c 128,-1,18
 998 642 998 642 1033 726 c 128,-1,19
 1068 810 1068 810 1068 908 c 0,0,1
1160 908 m 0,20,21
 1160 792 1160 792 1118 692 c 128,-1,22
 1076 592 1076 592 1002.5 518.5 c 128,-1,23
 929 445 929 445 829 402.5 c 128,-1,24
 729 360 729 360 614 360 c 0,25,26
 498 360 498 360 398.5 402.5 c 128,-1,27
 299 445 299 445 225.5 518.5 c 128,-1,28
 152 592 152 592 110 692 c 128,-1,29
 68 792 68 792 68 908 c 0,30,31
 68 1023 68 1023 110 1123.5 c 128,-1,32
 152 1224 152 1224 225.5 1297.5 c 128,-1,33
 299 1371 299 1371 398.5 1413.5 c 128,-1,34
 498 1456 498 1456 614 1456 c 0,35,36
 729 1456 729 1456 829 1413.5 c 128,-1,37
 929 1371 929 1371 1002.5 1297.5 c 128,-1,38
 1076 1224 1076 1224 1118 1123.5 c 128,-1,39
 1160 1023 1160 1023 1160 908 c 0,20,21
454 602 m 2,40,41
 434 602 434 602 426 610 c 128,-1,42
 418 618 418 618 418 638 c 2,43,-1
 418 1180 l 2,44,45
 418 1200 418 1200 426 1208 c 128,-1,46
 434 1216 434 1216 454 1216 c 2,47,-1
 610 1216 l 2,48,49
 674 1216 674 1216 719 1201 c 128,-1,50
 764 1186 764 1186 792.5 1160.5 c 128,-1,51
 821 1135 821 1135 833.5 1100.5 c 128,-1,52
 846 1066 846 1066 846 1028 c 0,53,54
 846 968 846 968 814 923 c 128,-1,55
 782 878 782 878 714 858 c 1,56,57
 765 814 765 814 802.5 753 c 128,-1,58
 840 692 840 692 864 636 c 0,59,60
 879 602 879 602 842 602 c 2,61,-1
 798 602 l 2,62,63
 777 602 777 602 766.5 609 c 128,-1,64
 756 616 756 616 748 636 c 0,65,66
 728 683 728 683 693.5 737 c 128,-1,67
 659 791 659 791 608 836 c 1,68,-1
 526 836 l 1,69,-1
 526 638 l 2,70,71
 526 618 526 618 518 610 c 128,-1,72
 510 602 510 602 490 602 c 2,73,-1
 454 602 l 2,40,41
526 918 m 1,74,-1
 610 918 l 2,75,76
 644 918 644 918 668 926.5 c 128,-1,77
 692 935 692 935 706.5 949.5 c 128,-1,78
 721 964 721 964 727.5 983.5 c 128,-1,79
 734 1003 734 1003 734 1026 c 0,80,81
 734 1047 734 1047 728 1066 c 128,-1,82
 722 1085 722 1085 708 1100 c 128,-1,83
 694 1115 694 1115 671 1123.5 c 128,-1,84
 648 1132 648 1132 614 1132 c 2,85,-1
 526 1132 l 1,86,-1
 526 918 l 1,74,-1
EndSplineSet
Validated: 1
EndChar

StartChar: macron
Encoding: 175 175 113
Width: 676
GlyphClass: 2
Flags: W
LayerCount: 2
Fore
SplineSet
540 1262 m 2,0,1
 560 1262 560 1262 568 1254 c 128,-1,2
 576 1246 576 1246 576 1226 c 2,3,-1
 576 1186 l 2,4,5
 576 1166 576 1166 568 1158 c 128,-1,6
 560 1150 560 1150 540 1150 c 2,7,-1
 136 1150 l 2,8,9
 116 1150 116 1150 108 1158 c 128,-1,10
 100 1166 100 1166 100 1186 c 2,11,-1
 100 1226 l 2,12,13
 100 1246 100 1246 108 1254 c 128,-1,14
 116 1262 116 1262 136 1262 c 2,15,-1
 540 1262 l 2,0,1
EndSplineSet
Validated: 1
Substitution2: "'aalt' Access All Alternates in Latin lookup 0 subtable" macron.case
EndChar

StartChar: degree
Encoding: 176 176 114
Width: 704
GlyphClass: 2
Flags: W
LayerCount: 2
Fore
SplineSet
632 1068 m 256,0,1
 632 1009 632 1009 610.5 958.5 c 128,-1,2
 589 908 589 908 551.5 871 c 128,-1,3
 514 834 514 834 463 813 c 128,-1,4
 412 792 412 792 352 792 c 256,5,6
 292 792 292 792 240.5 813 c 128,-1,7
 189 834 189 834 151.5 871 c 128,-1,8
 114 908 114 908 93 958.5 c 128,-1,9
 72 1009 72 1009 72 1068 c 256,10,11
 72 1127 72 1127 93 1177.5 c 128,-1,12
 114 1228 114 1228 151.5 1265 c 128,-1,13
 189 1302 189 1302 240.5 1323 c 128,-1,14
 292 1344 292 1344 352 1344 c 256,15,16
 412 1344 412 1344 463 1323 c 128,-1,17
 514 1302 514 1302 551.5 1265 c 128,-1,18
 589 1228 589 1228 610.5 1177.5 c 128,-1,19
 632 1127 632 1127 632 1068 c 256,0,1
188 1068 m 256,20,21
 188 1031 188 1031 200 1000.5 c 128,-1,22
 212 970 212 970 234 947.5 c 128,-1,23
 256 925 256 925 286 912.5 c 128,-1,24
 316 900 316 900 352 900 c 256,25,26
 388 900 388 900 418 912.5 c 128,-1,27
 448 925 448 925 470 947.5 c 128,-1,28
 492 970 492 970 504 1000.5 c 128,-1,29
 516 1031 516 1031 516 1068 c 256,30,31
 516 1105 516 1105 504 1135.5 c 128,-1,32
 492 1166 492 1166 470 1188.5 c 128,-1,33
 448 1211 448 1211 418 1223.5 c 128,-1,34
 388 1236 388 1236 352 1236 c 256,35,36
 316 1236 316 1236 286 1223.5 c 128,-1,37
 256 1211 256 1211 234 1188.5 c 128,-1,38
 212 1166 212 1166 200 1135.5 c 128,-1,39
 188 1105 188 1105 188 1068 c 256,20,21
EndSplineSet
Validated: 1
EndChar

StartChar: plusminus
Encoding: 177 177 115
Width: 1064
GlyphClass: 2
Flags: W
LayerCount: 2
Fore
SplineSet
132 0 m 2,0,1
 112 0 112 0 104 8 c 128,-1,2
 96 16 96 16 96 36 c 2,3,-1
 96 92 l 2,4,5
 96 112 96 112 104 120 c 128,-1,6
 112 128 112 128 132 128 c 2,7,-1
 932 128 l 2,8,9
 952 128 952 128 960 120 c 128,-1,10
 968 112 968 112 968 92 c 2,11,-1
 968 36 l 2,12,13
 968 16 968 16 960 8 c 128,-1,14
 952 0 952 0 932 0 c 2,15,-1
 132 0 l 2,0,1
132 596 m 2,16,17
 112 596 112 596 104 604 c 128,-1,18
 96 612 96 612 96 632 c 2,19,-1
 96 688 l 2,20,21
 96 708 96 708 104 716 c 128,-1,22
 112 724 112 724 132 724 c 2,23,-1
 464 724 l 1,24,-1
 464 1020 l 2,25,26
 464 1040 464 1040 472 1048 c 128,-1,27
 480 1056 480 1056 500 1056 c 2,28,-1
 564 1056 l 2,29,30
 584 1056 584 1056 592 1048 c 128,-1,31
 600 1040 600 1040 600 1020 c 2,32,-1
 600 724 l 1,33,-1
 932 724 l 2,34,35
 952 724 952 724 960 716 c 128,-1,36
 968 708 968 708 968 688 c 2,37,-1
 968 632 l 2,38,39
 968 612 968 612 960 604 c 128,-1,40
 952 596 952 596 932 596 c 2,41,-1
 600 596 l 1,42,-1
 600 300 l 2,43,44
 600 280 600 280 592 272 c 128,-1,45
 584 264 584 264 564 264 c 2,46,-1
 500 264 l 2,47,48
 480 264 480 264 472 272 c 128,-1,49
 464 280 464 280 464 300 c 2,50,-1
 464 596 l 1,51,-1
 132 596 l 2,16,17
EndSplineSet
Validated: 1
EndChar

StartChar: twosuperior
Encoding: 178 178 116
Width: 700
GlyphClass: 2
Flags: W
LayerCount: 2
Fore
SplineSet
106 618 m 2,0,1
 106 677 106 677 122.5 724 c 128,-1,2
 139 771 139 771 168.5 810 c 128,-1,3
 198 849 198 849 238.5 882.5 c 128,-1,4
 279 916 279 916 328 948 c 0,5,6
 354 965 354 965 378.5 982 c 128,-1,7
 403 999 403 999 421.5 1018.5 c 128,-1,8
 440 1038 440 1038 451 1062.5 c 128,-1,9
 462 1087 462 1087 462 1120 c 0,10,11
 462 1168 462 1168 433.5 1198 c 128,-1,12
 405 1228 405 1228 334 1228 c 0,13,14
 293 1228 293 1228 258 1217.5 c 128,-1,15
 223 1207 223 1207 194 1190 c 0,16,17
 176 1179 176 1179 165 1182 c 128,-1,18
 154 1185 154 1185 142 1202 c 2,19,-1
 124 1230 l 2,20,21
 105 1262 105 1262 134 1280 c 0,22,23
 169 1303 169 1303 219.5 1319.5 c 128,-1,24
 270 1336 270 1336 338 1336 c 0,25,26
 404 1336 404 1336 452 1319 c 128,-1,27
 500 1302 500 1302 531 1272.5 c 128,-1,28
 562 1243 562 1243 577 1203.5 c 128,-1,29
 592 1164 592 1164 592 1118 c 0,30,31
 592 1065 592 1065 575 1027 c 128,-1,32
 558 989 558 989 530.5 959 c 128,-1,33
 503 929 503 929 468.5 905 c 128,-1,34
 434 881 434 881 400 858 c 0,35,36
 376 841 376 841 348.5 820.5 c 128,-1,37
 321 800 321 800 298 775 c 128,-1,38
 275 750 275 750 259.5 721 c 128,-1,39
 244 692 244 692 244 660 c 1,40,-1
 566 660 l 2,41,42
 586 660 586 660 594 652 c 128,-1,43
 602 644 602 644 602 624 c 2,44,-1
 602 592 l 2,45,46
 602 572 602 572 594 564 c 128,-1,47
 586 556 586 556 566 556 c 2,48,-1
 142 556 l 2,49,50
 122 556 122 556 114 564 c 128,-1,51
 106 572 106 572 106 592 c 2,52,-1
 106 618 l 2,0,1
EndSplineSet
Validated: 1
EndChar

StartChar: threesuperior
Encoding: 179 179 117
Width: 700
GlyphClass: 2
Flags: W
LayerCount: 2
Fore
SplineSet
596 792 m 0,0,1
 596 741 596 741 578.5 696 c 128,-1,2
 561 651 561 651 526 617 c 128,-1,3
 491 583 491 583 437.5 563.5 c 128,-1,4
 384 544 384 544 312 544 c 0,5,6
 244 544 244 544 193.5 560 c 128,-1,7
 143 576 143 576 108 602 c 0,8,9
 79 622 79 622 98 654 c 2,10,-1
 116 682 l 2,11,12
 128 699 128 699 139 702 c 128,-1,13
 150 705 150 705 168 694 c 0,14,15
 195 676 195 676 231 664 c 128,-1,16
 267 652 267 652 312 652 c 0,17,18
 389 652 389 652 427.5 690.5 c 128,-1,19
 466 729 466 729 466 792 c 0,20,21
 466 822 466 822 457 847.5 c 128,-1,22
 448 873 448 873 427.5 891 c 128,-1,23
 407 909 407 909 374 919.5 c 128,-1,24
 341 930 341 930 292 930 c 2,25,-1
 290 930 l 2,26,27
 275 930 275 930 267 933.5 c 128,-1,28
 259 937 259 937 250 948 c 2,29,-1
 236 964 l 2,30,31
 224 979 224 979 223 991 c 128,-1,32
 222 1003 222 1003 236 1018 c 2,33,-1
 406 1220 l 1,34,-1
 154 1220 l 2,35,36
 134 1220 134 1220 126 1228 c 128,-1,37
 118 1236 118 1236 118 1256 c 2,38,-1
 118 1288 l 2,39,40
 118 1308 118 1308 126 1316 c 128,-1,41
 134 1324 134 1324 154 1324 c 2,42,-1
 520 1324 l 2,43,44
 540 1324 540 1324 548 1316 c 128,-1,45
 556 1308 556 1308 556 1288 c 2,46,-1
 556 1280 l 2,47,48
 556 1260 556 1260 551 1245.5 c 128,-1,49
 546 1231 546 1231 534 1216 c 2,50,-1
 460 1118 l 2,51,52
 452 1108 452 1108 441 1095.5 c 128,-1,53
 430 1083 430 1083 418 1070 c 128,-1,54
 406 1057 406 1057 394 1045 c 128,-1,55
 382 1033 382 1033 372 1024 c 1,56,57
 427 1019 427 1019 469 1000 c 128,-1,58
 511 981 511 981 539.5 950.5 c 128,-1,59
 568 920 568 920 582 879.5 c 128,-1,60
 596 839 596 839 596 792 c 0,0,1
EndSplineSet
Validated: 1
EndChar

StartChar: acute
Encoding: 180 180 118
Width: 584
GlyphClass: 2
Flags: W
LayerCount: 2
Fore
SplineSet
374 1388 m 2,0,1
 382 1394 382 1394 388 1396 c 128,-1,2
 394 1398 394 1398 400 1398 c 256,3,4
 406 1398 406 1398 413 1395 c 128,-1,5
 420 1392 420 1392 426 1384 c 2,6,-1
 460 1342 l 2,7,8
 470 1329 470 1329 470 1316 c 256,9,10
 470 1303 470 1303 456 1292 c 2,11,-1
 196 1096 l 2,12,13
 181 1084 181 1084 170 1084 c 0,14,15
 157 1084 157 1084 144 1100 c 2,16,-1
 122 1128 l 2,17,18
 112 1141 112 1141 112 1150 c 0,19,20
 112 1158 112 1158 116 1164 c 128,-1,21
 120 1170 120 1170 128 1178 c 2,22,-1
 374 1388 l 2,0,1
EndSplineSet
Validated: 1
Substitution2: "'aalt' Access All Alternates in Latin lookup 0 subtable" acute.case
EndChar

StartChar: mu
Encoding: 181 181 119
Width: 1070
GlyphClass: 2
Flags: W
LayerCount: 2
Fore
SplineSet
190 -400 m 2,0,1
 170 -400 170 -400 162 -392 c 128,-1,2
 154 -384 154 -384 154 -364 c 2,3,-1
 154 924 l 2,4,5
 154 944 154 944 162 952 c 128,-1,6
 170 960 170 960 190 960 c 2,7,-1
 274 960 l 2,8,9
 294 960 294 960 302 952 c 128,-1,10
 310 944 310 944 310 924 c 2,11,-1
 310 358 l 2,12,13
 310 315 310 315 319 271 c 128,-1,14
 328 227 328 227 350.5 191 c 128,-1,15
 373 155 373 155 412.5 132.5 c 128,-1,16
 452 110 452 110 514 110 c 0,17,18
 544 110 544 110 576.5 116.5 c 128,-1,19
 609 123 609 123 641.5 138 c 128,-1,20
 674 153 674 153 704 177.5 c 128,-1,21
 734 202 734 202 760 238 c 1,22,-1
 760 924 l 2,23,24
 760 944 760 944 768 952 c 128,-1,25
 776 960 776 960 796 960 c 2,26,-1
 880 960 l 2,27,28
 900 960 900 960 908 952 c 128,-1,29
 916 944 916 944 916 924 c 2,30,-1
 916 36 l 2,31,32
 916 16 916 16 908 8 c 128,-1,33
 900 0 900 0 880 0 c 2,34,-1
 806 0 l 2,35,36
 786 0 786 0 778 8 c 128,-1,37
 770 16 770 16 770 36 c 2,38,-1
 770 116 l 1,39,40
 751 91 751 91 723.5 67 c 128,-1,41
 696 43 696 43 661 23.5 c 128,-1,42
 626 4 626 4 583.5 -8 c 128,-1,43
 541 -20 541 -20 492 -20 c 0,44,45
 427 -20 427 -20 381 0 c 128,-1,46
 335 20 335 20 300 52 c 1,47,48
 305 17 305 17 307.5 -31.5 c 128,-1,49
 310 -80 310 -80 310 -142 c 2,50,-1
 310 -364 l 2,51,52
 310 -384 310 -384 302 -392 c 128,-1,53
 294 -400 294 -400 274 -400 c 2,54,-1
 190 -400 l 2,0,1
EndSplineSet
Validated: 1
EndChar

StartChar: paragraph
Encoding: 182 182 120
Width: 1108
GlyphClass: 2
Flags: W
LayerCount: 2
Fore
SplineSet
772 -240 m 2,0,1
 752 -240 752 -240 744 -232 c 128,-1,2
 736 -224 736 -224 736 -204 c 2,3,-1
 736 1210 l 1,4,-1
 554 1210 l 1,5,-1
 554 -204 l 2,6,7
 554 -224 554 -224 546 -232 c 128,-1,8
 538 -240 538 -240 518 -240 c 2,9,-1
 454 -240 l 2,10,11
 434 -240 434 -240 426 -232 c 128,-1,12
 418 -224 418 -224 418 -204 c 2,13,-1
 418 674 l 1,14,15
 332 684 332 684 272 713 c 128,-1,16
 212 742 212 742 173.5 785 c 128,-1,17
 135 828 135 828 117.5 883 c 128,-1,18
 100 938 100 938 100 1000 c 0,19,20
 100 1068 100 1068 121.5 1127.5 c 128,-1,21
 143 1187 143 1187 192 1230.5 c 128,-1,22
 241 1274 241 1274 319.5 1299 c 128,-1,23
 398 1324 398 1324 512 1324 c 2,24,-1
 992 1324 l 2,25,26
 1012 1324 1012 1324 1020 1316 c 128,-1,27
 1028 1308 1028 1308 1028 1288 c 2,28,-1
 1028 1246 l 2,29,30
 1028 1226 1028 1226 1020 1218 c 128,-1,31
 1012 1210 1012 1210 992 1210 c 2,32,-1
 872 1210 l 1,33,-1
 872 -204 l 2,34,35
 872 -224 872 -224 864 -232 c 128,-1,36
 856 -240 856 -240 836 -240 c 2,37,-1
 772 -240 l 2,0,1
EndSplineSet
Validated: 1
EndChar

StartChar: periodcentered
Encoding: 183 183 121
Width: 400
GlyphClass: 2
Flags: W
LayerCount: 2
Fore
SplineSet
316 574 m 256,0,1
 316 524 316 524 284.5 490 c 128,-1,2
 253 456 253 456 200 456 c 256,3,4
 147 456 147 456 115.5 490 c 128,-1,5
 84 524 84 524 84 574 c 256,6,7
 84 624 84 624 115.5 658 c 128,-1,8
 147 692 147 692 200 692 c 256,9,10
 253 692 253 692 284.5 658 c 128,-1,11
 316 624 316 624 316 574 c 256,0,1
EndSplineSet
Validated: 1
EndChar

StartChar: cedilla
Encoding: 184 184 122
Width: 546
GlyphClass: 2
Flags: W
LayerCount: 2
Fore
SplineSet
260 -102 m 1,0,1
 271 -99 271 -99 284.5 -97.5 c 128,-1,2
 298 -96 298 -96 312 -96 c 0,3,4
 378 -96 378 -96 412 -131 c 128,-1,5
 446 -166 446 -166 446 -222 c 0,6,7
 446 -253 446 -253 435 -280.5 c 128,-1,8
 424 -308 424 -308 401.5 -329 c 128,-1,9
 379 -350 379 -350 344.5 -362 c 128,-1,10
 310 -374 310 -374 264 -374 c 0,11,12
 231 -374 231 -374 194.5 -367 c 128,-1,13
 158 -360 158 -360 128 -340 c 0,14,15
 99 -321 99 -321 116 -292 c 2,16,-1
 124 -278 l 2,17,18
 135 -260 135 -260 144.5 -257.5 c 128,-1,19
 154 -255 154 -255 172 -266 c 256,20,21
 190 -277 190 -277 212 -283.5 c 128,-1,22
 234 -290 234 -290 260 -290 c 0,23,24
 302 -290 302 -290 324 -273 c 128,-1,25
 346 -256 346 -256 346 -226 c 0,26,27
 346 -203 346 -203 328.5 -185.5 c 128,-1,28
 311 -168 311 -168 260 -168 c 0,29,30
 248 -168 248 -168 235.5 -169 c 128,-1,31
 223 -170 223 -170 212 -172 c 0,32,33
 198 -175 198 -175 190.5 -173 c 128,-1,34
 183 -171 183 -171 172 -162 c 2,35,-1
 170 -160 l 2,36,37
 153 -146 153 -146 164 -126 c 2,38,-1
 232 0 l 1,39,-1
 314 0 l 1,40,-1
 260 -102 l 1,0,1
EndSplineSet
Validated: 1
EndChar

StartChar: onesuperior
Encoding: 185 185 123
Width: 700
GlyphClass: 2
Flags: W
LayerCount: 2
Fore
SplineSet
188 556 m 2,0,1
 168 556 168 556 160 564 c 128,-1,2
 152 572 152 572 152 592 c 2,3,-1
 152 624 l 2,4,5
 152 644 152 644 160 652 c 128,-1,6
 168 660 168 660 188 660 c 2,7,-1
 322 660 l 1,8,-1
 322 1188 l 1,9,-1
 202 1118 l 2,10,11
 185 1109 185 1109 174 1111 c 128,-1,12
 163 1113 163 1113 154 1130 c 2,13,-1
 140 1156 l 2,14,15
 123 1187 123 1187 154 1206 c 2,16,-1
 320 1306 l 2,17,18
 350 1324 350 1324 386 1324 c 2,19,-1
 414 1324 l 2,20,21
 434 1324 434 1324 442 1316 c 128,-1,22
 450 1308 450 1308 450 1288 c 2,23,-1
 450 660 l 1,24,-1
 574 660 l 2,25,26
 594 660 594 660 602 652 c 128,-1,27
 610 644 610 644 610 624 c 2,28,-1
 610 592 l 2,29,30
 610 572 610 572 602 564 c 128,-1,31
 594 556 594 556 574 556 c 2,32,-1
 188 556 l 2,0,1
EndSplineSet
Validated: 1
EndChar

StartChar: ordmasculine
Encoding: 186 186 124
Width: 740
GlyphClass: 2
Flags: W
LayerCount: 2
Fore
SplineSet
188 1098 m 0,0,1
 188 1048 188 1048 197.5 1002.5 c 128,-1,2
 207 957 207 957 228.5 922.5 c 128,-1,3
 250 888 250 888 285 867 c 128,-1,4
 320 846 320 846 370 846 c 256,5,6
 420 846 420 846 455 867 c 128,-1,7
 490 888 490 888 511.5 922.5 c 128,-1,8
 533 957 533 957 542.5 1002.5 c 128,-1,9
 552 1048 552 1048 552 1098 c 0,10,11
 552 1147 552 1147 542.5 1193 c 128,-1,12
 533 1239 533 1239 511.5 1273.5 c 128,-1,13
 490 1308 490 1308 455 1329 c 128,-1,14
 420 1350 420 1350 370 1350 c 256,15,16
 320 1350 320 1350 285 1329 c 128,-1,17
 250 1308 250 1308 228.5 1273.5 c 128,-1,18
 207 1239 207 1239 197.5 1193 c 128,-1,19
 188 1147 188 1147 188 1098 c 0,0,1
684 1098 m 256,20,21
 684 1029 684 1029 665.5 964.5 c 128,-1,22
 647 900 647 900 608.5 850 c 128,-1,23
 570 800 570 800 511 770 c 128,-1,24
 452 740 452 740 370 740 c 256,25,26
 288 740 288 740 229 770 c 128,-1,27
 170 800 170 800 131.5 850 c 128,-1,28
 93 900 93 900 74.5 964.5 c 128,-1,29
 56 1029 56 1029 56 1098 c 256,30,31
 56 1167 56 1167 74.5 1231.5 c 128,-1,32
 93 1296 93 1296 131.5 1346 c 128,-1,33
 170 1396 170 1396 229 1426 c 128,-1,34
 288 1456 288 1456 370 1456 c 256,35,36
 452 1456 452 1456 511 1426 c 128,-1,37
 570 1396 570 1396 608.5 1346 c 128,-1,38
 647 1296 647 1296 665.5 1231.5 c 128,-1,39
 684 1167 684 1167 684 1098 c 256,20,21
EndSplineSet
Validated: 1
EndChar

StartChar: questiondown
Encoding: 191 191 129
Width: 754
GlyphClass: 2
Flags: W
LayerCount: 2
Fore
SplineSet
744 -252 m 0,0,1
 718 -277 718 -277 683.5 -300 c 128,-1,2
 649 -323 649 -323 605.5 -341 c 128,-1,3
 562 -359 562 -359 509.5 -369.5 c 128,-1,4
 457 -380 457 -380 394 -380 c 0,5,6
 299 -380 299 -380 229 -355.5 c 128,-1,7
 159 -331 159 -331 112.5 -288.5 c 128,-1,8
 66 -246 66 -246 43 -188.5 c 128,-1,9
 20 -131 20 -131 20 -64 c 0,10,11
 20 6 20 6 42 58 c 128,-1,12
 64 110 64 110 98.5 151 c 128,-1,13
 133 192 133 192 175 224.5 c 128,-1,14
 217 257 217 257 256 288 c 0,15,16
 296 320 296 320 325 349.5 c 128,-1,17
 354 379 354 379 373.5 411 c 128,-1,18
 393 443 393 443 404.5 480.5 c 128,-1,19
 416 518 416 518 422 568 c 0,20,21
 425 588 425 588 433.5 596 c 128,-1,22
 442 604 442 604 462 604 c 2,23,-1
 472 604 l 2,24,25
 490 604 490 604 500.5 596 c 128,-1,26
 511 588 511 588 514 568 c 0,27,28
 519 542 519 542 521.5 517.5 c 128,-1,29
 524 493 524 493 524 472 c 0,30,31
 524 417 524 417 509 375 c 128,-1,32
 494 333 494 333 468.5 298 c 128,-1,33
 443 263 443 263 409 233 c 128,-1,34
 375 203 375 203 336 172 c 0,35,36
 302 146 302 146 274.5 121.5 c 128,-1,37
 247 97 247 97 227.5 70 c 128,-1,38
 208 43 208 43 197 12 c 128,-1,39
 186 -19 186 -19 186 -58 c 0,40,41
 186 -98 186 -98 198.5 -132 c 128,-1,42
 211 -166 211 -166 237 -191.5 c 128,-1,43
 263 -217 263 -217 304 -231.5 c 128,-1,44
 345 -246 345 -246 402 -246 c 0,45,46
 485 -246 485 -246 551.5 -217.5 c 128,-1,47
 618 -189 618 -189 668 -148 c 0,48,49
 683 -136 683 -136 694.5 -137.5 c 128,-1,50
 706 -139 706 -139 718 -154 c 2,51,-1
 750 -198 l 2,52,53
 770 -226 770 -226 744 -252 c 0,0,1
570 862 m 256,54,55
 570 812 570 812 538.5 778 c 128,-1,56
 507 744 507 744 454 744 c 256,57,58
 401 744 401 744 369.5 778 c 128,-1,59
 338 812 338 812 338 862 c 256,60,61
 338 912 338 912 369.5 946 c 128,-1,62
 401 980 401 980 454 980 c 256,63,64
 507 980 507 980 538.5 946 c 128,-1,65
 570 912 570 912 570 862 c 256,54,55
EndSplineSet
Validated: 1
EndChar

StartChar: Aring
Encoding: 197 197 135
Width: 1218
GlyphClass: 2
Flags: W
LayerCount: 2
Fore
SplineSet
84 0 m 2,0,1
 49 0 49 0 58 34 c 0,2,3
 156 378 156 378 269 687 c 128,-1,4
 382 996 382 996 506 1262 c 1,5,6
 456 1286 456 1286 425 1333.5 c 128,-1,7
 394 1381 394 1381 394 1446 c 0,8,9
 394 1492 394 1492 411 1530 c 128,-1,10
 428 1568 428 1568 456.5 1595 c 128,-1,11
 485 1622 485 1622 523 1637 c 128,-1,12
 561 1652 561 1652 604 1652 c 256,13,14
 647 1652 647 1652 685 1637 c 128,-1,15
 723 1622 723 1622 751.5 1595 c 128,-1,16
 780 1568 780 1568 797 1530 c 128,-1,17
 814 1492 814 1492 814 1446 c 0,18,19
 814 1384 814 1384 784.5 1338 c 128,-1,20
 755 1292 755 1292 708 1266 c 1,21,22
 832 1000 832 1000 946 690 c 128,-1,23
 1060 380 1060 380 1160 34 c 0,24,25
 1169 0 1169 0 1134 0 c 2,26,-1
 1036 0 l 2,27,28
 1016 0 1016 0 1006 8 c 128,-1,29
 996 16 996 16 990 34 c 0,30,31
 967 119 967 119 943 199.5 c 128,-1,32
 919 280 919 280 896 360 c 1,33,-1
 314 360 l 1,34,35
 290 280 290 280 267.5 199.5 c 128,-1,36
 245 119 245 119 222 34 c 0,37,38
 216 16 216 16 206 8 c 128,-1,39
 196 0 196 0 176 0 c 2,40,-1
 84 0 l 2,0,1
852 492 m 1,41,42
 793 678 793 678 731 847.5 c 128,-1,43
 669 1017 669 1017 604 1168 c 1,44,45
 539 1017 539 1017 478 847.5 c 128,-1,46
 417 678 417 678 358 492 c 1,47,-1
 852 492 l 1,41,42
486 1446 m 256,48,49
 486 1390 486 1390 519.5 1357 c 128,-1,50
 553 1324 553 1324 604 1324 c 256,51,52
 655 1324 655 1324 688.5 1357 c 128,-1,53
 722 1390 722 1390 722 1446 c 256,54,55
 722 1502 722 1502 688.5 1535 c 128,-1,56
 655 1568 655 1568 604 1568 c 256,57,58
 553 1568 553 1568 519.5 1535 c 128,-1,59
 486 1502 486 1502 486 1446 c 256,48,49
EndSplineSet
Validated: 1
EndChar

StartChar: AE
Encoding: 198 198 136
Width: 1770
GlyphClass: 2
Flags: W
LayerCount: 2
Fore
SplineSet
914 0 m 2,0,1
 894 0 894 0 886 8 c 128,-1,2
 878 16 878 16 878 36 c 2,3,-1
 878 360 l 1,4,-1
 350 360 l 1,5,6
 303 280 303 280 258 198.5 c 128,-1,7
 213 117 213 117 166 32 c 0,8,9
 157 14 157 14 145.5 7 c 128,-1,10
 134 0 134 0 114 0 c 2,11,-1
 10 0 l 2,12,13
 -7 0 -7 0 -12 8.5 c 128,-1,14
 -17 17 -17 17 -8 32 c 0,15,16
 187 385 187 385 384 705.5 c 128,-1,17
 581 1026 581 1026 782 1296 c 0,18,19
 794 1311 794 1311 807 1317.5 c 128,-1,20
 820 1324 820 1324 840 1324 c 2,21,-1
 1622 1324 l 2,22,23
 1642 1324 1642 1324 1650 1316 c 128,-1,24
 1658 1308 1658 1308 1658 1288 c 2,25,-1
 1658 1224 l 2,26,27
 1658 1204 1658 1204 1650 1196 c 128,-1,28
 1642 1188 1642 1188 1622 1188 c 2,29,-1
 1042 1188 l 1,30,-1
 1042 756 l 1,31,-1
 1558 756 l 2,32,33
 1578 756 1578 756 1586 748 c 128,-1,34
 1594 740 1594 740 1594 720 c 2,35,-1
 1594 656 l 2,36,37
 1594 636 1594 636 1586 628 c 128,-1,38
 1578 620 1578 620 1558 620 c 2,39,-1
 1042 620 l 1,40,-1
 1042 136 l 1,41,-1
 1622 136 l 2,42,43
 1642 136 1642 136 1650 128 c 128,-1,44
 1658 120 1658 120 1658 100 c 2,45,-1
 1658 36 l 2,46,47
 1658 16 1658 16 1650 8 c 128,-1,48
 1642 0 1642 0 1622 0 c 2,49,-1
 914 0 l 2,0,1
878 1198 m 1,50,51
 824 1122 824 1122 764 1034 c 128,-1,52
 704 946 704 946 644 854 c 128,-1,53
 584 762 584 762 527 669.5 c 128,-1,54
 470 577 470 577 422 492 c 1,55,-1
 878 492 l 1,56,-1
 878 1198 l 1,50,51
EndSplineSet
Validated: 1
EndChar

StartChar: Ccedilla
Encoding: 199 199 137
Width: 1194
GlyphClass: 2
Flags: W
LayerCount: 2
Fore
SplineSet
678 -102 m 1,0,1
 689 -99 689 -99 702.5 -97.5 c 128,-1,2
 716 -96 716 -96 730 -96 c 0,3,4
 796 -96 796 -96 830 -131 c 128,-1,5
 864 -166 864 -166 864 -222 c 0,6,7
 864 -253 864 -253 853 -280.5 c 128,-1,8
 842 -308 842 -308 819.5 -329 c 128,-1,9
 797 -350 797 -350 762.5 -362 c 128,-1,10
 728 -374 728 -374 682 -374 c 0,11,12
 649 -374 649 -374 612.5 -367 c 128,-1,13
 576 -360 576 -360 546 -340 c 0,14,15
 517 -321 517 -321 534 -292 c 2,16,-1
 542 -278 l 2,17,18
 553 -260 553 -260 562.5 -257.5 c 128,-1,19
 572 -255 572 -255 590 -266 c 256,20,21
 608 -277 608 -277 630 -283.5 c 128,-1,22
 652 -290 652 -290 678 -290 c 0,23,24
 720 -290 720 -290 742 -273 c 128,-1,25
 764 -256 764 -256 764 -226 c 0,26,27
 764 -203 764 -203 746.5 -185.5 c 128,-1,28
 729 -168 729 -168 678 -168 c 0,29,30
 666 -168 666 -168 653.5 -169 c 128,-1,31
 641 -170 641 -170 630 -172 c 0,32,33
 616 -175 616 -175 608.5 -173 c 128,-1,34
 601 -171 601 -171 590 -162 c 2,35,-1
 588 -160 l 2,36,37
 571 -146 571 -146 582 -126 c 2,38,-1
 640 -18 l 1,39,40
 540 -12 540 -12 461 17 c 128,-1,41
 382 46 382 46 321 94 c 128,-1,42
 260 142 260 142 216.5 206 c 128,-1,43
 173 270 173 270 145.5 344 c 128,-1,44
 118 418 118 418 105 499 c 128,-1,45
 92 580 92 580 92 664 c 0,46,47
 92 750 92 750 106 834 c 128,-1,48
 120 918 120 918 150 993.5 c 128,-1,49
 180 1069 180 1069 227 1133 c 128,-1,50
 274 1197 274 1197 339.5 1244 c 128,-1,51
 405 1291 405 1291 490.5 1317.5 c 128,-1,52
 576 1344 576 1344 684 1344 c 0,53,54
 799 1344 799 1344 900 1313 c 128,-1,55
 1001 1282 1001 1282 1082 1214 c 0,56,57
 1109 1190 1109 1190 1086 1162 c 2,58,-1
 1040 1104 l 2,59,60
 1028 1087 1028 1087 1015.5 1086.5 c 128,-1,61
 1003 1086 1003 1086 988 1098 c 0,62,63
 929 1145 929 1145 852 1173.5 c 128,-1,64
 775 1202 775 1202 680 1202 c 0,65,66
 569 1202 569 1202 489.5 1161 c 128,-1,67
 410 1120 410 1120 359 1048 c 128,-1,68
 308 976 308 976 284 877.5 c 128,-1,69
 260 779 260 779 260 664 c 256,70,71
 260 549 260 549 284 450 c 128,-1,72
 308 351 308 351 359 278 c 128,-1,73
 410 205 410 205 489.5 163.5 c 128,-1,74
 569 122 569 122 680 122 c 0,75,76
 780 122 780 122 862 154.5 c 128,-1,77
 944 187 944 187 1006 240 c 0,78,79
 1033 264 1033 264 1054 234 c 2,80,-1
 1100 176 l 2,81,82
 1123 148 1123 148 1096 124 c 0,83,84
 1019 55 1019 55 923.5 21.5 c 128,-1,85
 828 -12 828 -12 722 -18 c 1,86,-1
 678 -102 l 1,0,1
EndSplineSet
Validated: 1
EndChar

StartChar: Eth
Encoding: 208 208 146
Width: 1302
GlyphClass: 2
Flags: W
LayerCount: 2
Fore
SplineSet
70 598 m 2,0,1
 50 598 50 598 42 606 c 128,-1,2
 34 614 34 614 34 634 c 2,3,-1
 34 690 l 2,4,5
 34 710 34 710 42 718 c 128,-1,6
 50 726 50 726 70 726 c 2,7,-1
 174 726 l 1,8,-1
 174 1288 l 2,9,10
 174 1308 174 1308 182 1316 c 128,-1,11
 190 1324 190 1324 210 1324 c 2,12,-1
 574 1324 l 2,13,14
 689 1324 689 1324 781.5 1298.5 c 128,-1,15
 874 1273 874 1273 944.5 1227 c 128,-1,16
 1015 1181 1015 1181 1065.5 1119 c 128,-1,17
 1116 1057 1116 1057 1148 983 c 128,-1,18
 1180 909 1180 909 1195 827.5 c 128,-1,19
 1210 746 1210 746 1210 662 c 256,20,21
 1210 578 1210 578 1195 496.5 c 128,-1,22
 1180 415 1180 415 1148 341 c 128,-1,23
 1116 267 1116 267 1065.5 205 c 128,-1,24
 1015 143 1015 143 944.5 97 c 128,-1,25
 874 51 874 51 781.5 25.5 c 128,-1,26
 689 0 689 0 574 0 c 2,27,-1
 210 0 l 2,28,29
 190 0 190 0 182 8 c 128,-1,30
 174 16 174 16 174 36 c 2,31,-1
 174 598 l 1,32,-1
 70 598 l 2,0,1
338 1188 m 1,33,-1
 338 726 l 1,34,-1
 644 726 l 2,35,36
 664 726 664 726 672 718 c 128,-1,37
 680 710 680 710 680 690 c 2,38,-1
 680 634 l 2,39,40
 680 614 680 614 672 606 c 128,-1,41
 664 598 664 598 644 598 c 2,42,-1
 338 598 l 1,43,-1
 338 136 l 1,44,-1
 566 136 l 2,45,46
 692 136 692 136 782 175 c 128,-1,47
 872 214 872 214 930 283.5 c 128,-1,48
 988 353 988 353 1015 449.5 c 128,-1,49
 1042 546 1042 546 1042 662 c 0,50,51
 1042 777 1042 777 1015 874 c 128,-1,52
 988 971 988 971 930 1040.5 c 128,-1,53
 872 1110 872 1110 782 1149 c 128,-1,54
 692 1188 692 1188 566 1188 c 2,55,-1
 338 1188 l 1,33,-1
EndSplineSet
Validated: 1
EndChar

StartChar: multiply
Encoding: 215 215 153
Width: 1064
GlyphClass: 2
Flags: W
LayerCount: 2
Fore
SplineSet
238 96 m 2,0,1
 224 82 224 82 212 82 c 256,2,3
 200 82 200 82 186 96 c 2,4,-1
 144 138 l 2,5,6
 132 150 132 150 132 162 c 256,7,8
 132 174 132 174 146 188 c 2,9,-1
 440 482 l 1,10,-1
 146 776 l 2,11,12
 132 790 132 790 132 802 c 256,13,14
 132 814 132 814 144 826 c 2,15,-1
 186 868 l 2,16,17
 200 882 200 882 212 882 c 256,18,19
 224 882 224 882 238 868 c 2,20,-1
 532 574 l 1,21,-1
 826 868 l 2,22,23
 840 882 840 882 852 882 c 256,24,25
 864 882 864 882 878 868 c 2,26,-1
 920 826 l 2,27,28
 932 814 932 814 932 802 c 256,29,30
 932 790 932 790 918 776 c 2,31,-1
 624 482 l 1,32,-1
 918 188 l 2,33,34
 932 174 932 174 932 162 c 256,35,36
 932 150 932 150 920 138 c 2,37,-1
 878 96 l 2,38,39
 864 82 864 82 852 82 c 256,40,41
 840 82 840 82 826 96 c 2,42,-1
 532 390 l 1,43,-1
 238 96 l 2,0,1
EndSplineSet
Validated: 1
EndChar

StartChar: Oslash
Encoding: 216 216 154
Width: 1396
GlyphClass: 2
Flags: W
LayerCount: 2
Fore
SplineSet
126 -92 m 2,0,1
 109 -92 109 -92 105 -84 c 128,-1,2
 101 -76 101 -76 110 -62 c 2,3,-1
 268 158 l 1,4,5
 182 252 182 252 139 381.5 c 128,-1,6
 96 511 96 511 96 662 c 0,7,8
 96 803 96 803 136.5 927 c 128,-1,9
 177 1051 177 1051 254 1144 c 128,-1,10
 331 1237 331 1237 443 1290.5 c 128,-1,11
 555 1344 555 1344 698 1344 c 0,12,13
 799 1344 799 1344 884 1318 c 128,-1,14
 969 1292 969 1292 1038 1244 c 1,15,-1
 1140 1386 l 2,16,17
 1151 1403 1151 1403 1163.5 1409.5 c 128,-1,18
 1176 1416 1176 1416 1196 1416 c 2,19,-1
 1270 1416 l 2,20,21
 1287 1416 1287 1416 1291 1408 c 128,-1,22
 1295 1400 1295 1400 1286 1386 c 2,23,-1
 1128 1164 l 1,24,25
 1213 1070 1213 1070 1256.5 941.5 c 128,-1,26
 1300 813 1300 813 1300 662 c 0,27,28
 1300 521 1300 521 1259.5 397 c 128,-1,29
 1219 273 1219 273 1142 180 c 128,-1,30
 1065 87 1065 87 953 33.5 c 128,-1,31
 841 -20 841 -20 698 -20 c 0,32,33
 595 -20 595 -20 510.5 6 c 128,-1,34
 426 32 426 32 358 80 c 1,35,-1
 256 -62 l 2,36,37
 245 -79 245 -79 232.5 -85.5 c 128,-1,38
 220 -92 220 -92 200 -92 c 2,39,-1
 126 -92 l 2,0,1
442 200 m 1,40,41
 492 159 492 159 556 137.5 c 128,-1,42
 620 116 620 116 698 116 c 0,43,44
 807 116 807 116 888.5 158.5 c 128,-1,45
 970 201 970 201 1024 274.5 c 128,-1,46
 1078 348 1078 348 1105 447.5 c 128,-1,47
 1132 547 1132 547 1132 662 c 0,48,49
 1132 771 1132 771 1108 865.5 c 128,-1,50
 1084 960 1084 960 1034 1034 c 1,51,-1
 442 200 l 1,40,41
698 1208 m 0,52,53
 589 1208 589 1208 507.5 1165.5 c 128,-1,54
 426 1123 426 1123 372 1049.5 c 128,-1,55
 318 976 318 976 291 876.5 c 128,-1,56
 264 777 264 777 264 662 c 0,57,58
 264 552 264 552 288 457 c 128,-1,59
 312 362 312 362 360 290 c 1,60,-1
 952 1124 l 1,61,62
 902 1163 902 1163 839 1185.5 c 128,-1,63
 776 1208 776 1208 698 1208 c 0,52,53
EndSplineSet
Validated: 1
EndChar

StartChar: Thorn
Encoding: 222 222 160
Width: 1090
GlyphClass: 2
Flags: W
LayerCount: 2
Fore
SplineSet
290 1324 m 2,0,1
 310 1324 310 1324 318 1316 c 128,-1,2
 326 1308 326 1308 326 1288 c 2,3,-1
 326 1088 l 1,4,-1
 566 1088 l 2,5,6
 693 1088 693 1088 781.5 1053.5 c 128,-1,7
 870 1019 870 1019 925.5 961 c 128,-1,8
 981 903 981 903 1006.5 828 c 128,-1,9
 1032 753 1032 753 1032 672 c 0,10,11
 1032 589 1032 589 1005.5 512.5 c 128,-1,12
 979 436 979 436 922.5 377.5 c 128,-1,13
 866 319 866 319 778 284.5 c 128,-1,14
 690 250 690 250 568 250 c 2,15,-1
 326 250 l 1,16,-1
 326 36 l 2,17,18
 326 16 326 16 318 8 c 128,-1,19
 310 0 310 0 290 0 c 2,20,-1
 198 0 l 2,21,22
 178 0 178 0 170 8 c 128,-1,23
 162 16 162 16 162 36 c 2,24,-1
 162 1288 l 2,25,26
 162 1308 162 1308 170 1316 c 128,-1,27
 178 1324 178 1324 198 1324 c 2,28,-1
 290 1324 l 2,0,1
864 668 m 256,29,30
 864 726 864 726 848.5 777.5 c 128,-1,31
 833 829 833 829 797 868 c 128,-1,32
 761 907 761 907 702.5 929.5 c 128,-1,33
 644 952 644 952 558 952 c 2,34,-1
 326 952 l 1,35,-1
 326 386 l 1,36,-1
 558 386 l 2,37,38
 646 386 646 386 704.5 408.5 c 128,-1,39
 763 431 763 431 798.5 469.5 c 128,-1,40
 834 508 834 508 849 559 c 128,-1,41
 864 610 864 610 864 668 c 256,29,30
EndSplineSet
Validated: 1
EndChar

StartChar: germandbls
Encoding: 223 223 161
Width: 1146
GlyphClass: 2
Flags: W
LayerCount: 2
Fore
SplineSet
310 36 m 2,0,1
 310 16 310 16 302 8 c 128,-1,2
 294 0 294 0 274 0 c 2,3,-1
 190 0 l 2,4,5
 170 0 170 0 162 8 c 128,-1,6
 154 16 154 16 154 36 c 2,7,-1
 154 1018 l 2,8,9
 154 1139 154 1139 183.5 1223 c 128,-1,10
 213 1307 213 1307 265.5 1358.5 c 128,-1,11
 318 1410 318 1410 391 1433 c 128,-1,12
 464 1456 464 1456 550 1456 c 256,13,14
 636 1456 636 1456 708.5 1436 c 128,-1,15
 781 1416 781 1416 833.5 1378 c 128,-1,16
 886 1340 886 1340 915 1284 c 128,-1,17
 944 1228 944 1228 944 1156 c 0,18,19
 944 1107 944 1107 930.5 1065.5 c 128,-1,20
 917 1024 917 1024 894.5 987.5 c 128,-1,21
 872 951 872 951 842.5 919 c 128,-1,22
 813 887 813 887 780 858 c 0,23,24
 751 832 751 832 724 809.5 c 128,-1,25
 697 787 697 787 676 764.5 c 128,-1,26
 655 742 655 742 642.5 718.5 c 128,-1,27
 630 695 630 695 630 668 c 0,28,29
 630 642 630 642 642.5 623.5 c 128,-1,30
 655 605 655 605 676 591.5 c 128,-1,31
 697 578 697 578 725.5 568.5 c 128,-1,32
 754 559 754 559 786 550 c 0,33,34
 841 534 841 534 895.5 515 c 128,-1,35
 950 496 950 496 993.5 464.5 c 128,-1,36
 1037 433 1037 433 1064.5 385.5 c 128,-1,37
 1092 338 1092 338 1092 266 c 0,38,39
 1092 201 1092 201 1067.5 148 c 128,-1,40
 1043 95 1043 95 997 57.5 c 128,-1,41
 951 20 951 20 886 0 c 128,-1,42
 821 -20 821 -20 740 -20 c 0,43,44
 635 -20 635 -20 559.5 11 c 128,-1,45
 484 42 484 42 436 84 c 0,46,47
 409 105 409 105 430 136 c 2,48,-1
 468 184 l 2,49,50
 480 199 480 199 491.5 200.5 c 128,-1,51
 503 202 503 202 518 190 c 0,52,53
 565 152 565 152 616 130 c 128,-1,54
 667 108 667 108 736 108 c 0,55,56
 830 108 830 108 883 147.5 c 128,-1,57
 936 187 936 187 936 256 c 0,58,59
 936 295 936 295 919 321.5 c 128,-1,60
 902 348 902 348 874 366.5 c 128,-1,61
 846 385 846 385 810.5 397 c 128,-1,62
 775 409 775 409 738 420 c 0,63,64
 695 432 695 432 649.5 447.5 c 128,-1,65
 604 463 604 463 566.5 488.5 c 128,-1,66
 529 514 529 514 504.5 553.5 c 128,-1,67
 480 593 480 593 480 652 c 0,68,69
 480 695 480 695 493 729.5 c 128,-1,70
 506 764 506 764 529.5 794.5 c 128,-1,71
 553 825 553 825 584.5 854.5 c 128,-1,72
 616 884 616 884 654 916 c 0,73,74
 682 940 682 940 707 963.5 c 128,-1,75
 732 987 732 987 751 1013 c 128,-1,76
 770 1039 770 1039 781 1068.5 c 128,-1,77
 792 1098 792 1098 792 1134 c 0,78,79
 792 1168 792 1168 780 1203.5 c 128,-1,80
 768 1239 768 1239 740 1267.5 c 128,-1,81
 712 1296 712 1296 666.5 1314 c 128,-1,82
 621 1332 621 1332 554 1332 c 0,83,84
 432 1332 432 1332 371 1259 c 128,-1,85
 310 1186 310 1186 310 1028 c 2,86,-1
 310 36 l 2,0,1
EndSplineSet
Validated: 1
EndChar

StartChar: ae
Encoding: 230 230 168
Width: 1626
GlyphClass: 2
Flags: W
LayerCount: 2
Fore
SplineSet
1460 72 m 0,0,1
 1400 24 1400 24 1322 2 c 128,-1,2
 1244 -20 1244 -20 1158 -20 c 0,3,4
 1027 -20 1027 -20 937.5 26.5 c 128,-1,5
 848 73 848 73 794 148 c 1,6,7
 765 116 765 116 728 86 c 128,-1,8
 691 56 691 56 644.5 32.5 c 128,-1,9
 598 9 598 9 540.5 -5.5 c 128,-1,10
 483 -20 483 -20 414 -20 c 0,11,12
 338 -20 338 -20 278.5 1 c 128,-1,13
 219 22 219 22 178 59.5 c 128,-1,14
 137 97 137 97 115.5 148 c 128,-1,15
 94 199 94 199 94 258 c 0,16,17
 94 321 94 321 119 373.5 c 128,-1,18
 144 426 144 426 195.5 464 c 128,-1,19
 247 502 247 502 326.5 523 c 128,-1,20
 406 544 406 544 516 544 c 2,21,-1
 702 544 l 1,22,-1
 702 608 l 2,23,24
 702 653 702 653 693.5 696.5 c 128,-1,25
 685 740 685 740 660.5 774 c 128,-1,26
 636 808 636 808 591.5 829 c 128,-1,27
 547 850 547 850 476 850 c 0,28,29
 410 850 410 850 343.5 830 c 128,-1,30
 277 810 277 810 226 768 c 0,31,32
 209 756 209 756 198.5 757.5 c 128,-1,33
 188 759 188 759 176 776 c 2,34,-1
 144 822 l 2,35,36
 125 853 125 853 152 874 c 0,37,38
 214 925 214 925 301.5 952.5 c 128,-1,39
 389 980 389 980 490 980 c 0,40,41
 553 980 553 980 603.5 967.5 c 128,-1,42
 654 955 654 955 693 932 c 128,-1,43
 732 909 732 909 759.5 876.5 c 128,-1,44
 787 844 787 844 804 804 c 1,45,46
 829 843 829 843 860.5 875.5 c 128,-1,47
 892 908 892 908 932 931 c 128,-1,48
 972 954 972 954 1020 967 c 128,-1,49
 1068 980 1068 980 1126 980 c 0,50,51
 1241 980 1241 980 1320 935.5 c 128,-1,52
 1399 891 1399 891 1448.5 820.5 c 128,-1,53
 1498 750 1498 750 1520 663.5 c 128,-1,54
 1542 577 1542 577 1542 492 c 2,55,-1
 1542 458 l 2,56,57
 1542 428 1542 428 1512 428 c 2,58,-1
 858 428 l 1,59,60
 862 363 862 363 880.5 306 c 128,-1,61
 899 249 899 249 935 205.5 c 128,-1,62
 971 162 971 162 1026 137 c 128,-1,63
 1081 112 1081 112 1160 112 c 0,64,65
 1220 112 1220 112 1280 128.5 c 128,-1,66
 1340 145 1340 145 1388 180 c 0,67,68
 1405 192 1405 192 1415.5 190.5 c 128,-1,69
 1426 189 1426 189 1438 172 c 2,70,-1
 1470 124 l 2,71,72
 1479 109 1479 109 1477 96.5 c 128,-1,73
 1475 84 1475 84 1460 72 c 0,0,1
1388 544 m 1,74,75
 1383 608 1383 608 1365 664.5 c 128,-1,76
 1347 721 1347 721 1314.5 763.5 c 128,-1,77
 1282 806 1282 806 1235 831 c 128,-1,78
 1188 856 1188 856 1124 856 c 0,79,80
 1062 856 1062 856 1015 832.5 c 128,-1,81
 968 809 968 809 935 767.5 c 128,-1,82
 902 726 902 726 883 668.5 c 128,-1,83
 864 611 864 611 858 544 c 1,84,-1
 1388 544 l 1,74,75
252 266 m 0,85,86
 252 237 252 237 261 208.5 c 128,-1,87
 270 180 270 180 291 157.5 c 128,-1,88
 312 135 312 135 346 120.5 c 128,-1,89
 380 106 380 106 430 106 c 0,90,91
 479 106 479 106 524.5 120 c 128,-1,92
 570 134 570 134 609 156.5 c 128,-1,93
 648 179 648 179 680 206.5 c 128,-1,94
 712 234 712 234 734 262 c 1,95,96
 720 301 720 301 712.5 342.5 c 128,-1,97
 705 384 705 384 702 428 c 1,98,-1
 536 428 l 2,99,100
 458 428 458 428 404 416 c 128,-1,101
 350 404 350 404 316 383 c 128,-1,102
 282 362 282 362 267 332 c 128,-1,103
 252 302 252 302 252 266 c 0,85,86
EndSplineSet
Validated: 1
EndChar

StartChar: ccedilla
Encoding: 231 231 169
Width: 904
GlyphClass: 2
Flags: W
LayerCount: 2
Fore
SplineSet
506 -102 m 1,0,1
 517 -99 517 -99 530.5 -97.5 c 128,-1,2
 544 -96 544 -96 558 -96 c 0,3,4
 624 -96 624 -96 658 -131 c 128,-1,5
 692 -166 692 -166 692 -222 c 0,6,7
 692 -253 692 -253 681 -280.5 c 128,-1,8
 670 -308 670 -308 647.5 -329 c 128,-1,9
 625 -350 625 -350 590.5 -362 c 128,-1,10
 556 -374 556 -374 510 -374 c 0,11,12
 477 -374 477 -374 440.5 -367 c 128,-1,13
 404 -360 404 -360 374 -340 c 0,14,15
 345 -321 345 -321 362 -292 c 2,16,-1
 370 -278 l 2,17,18
 381 -260 381 -260 390.5 -257.5 c 128,-1,19
 400 -255 400 -255 418 -266 c 256,20,21
 436 -277 436 -277 458 -283.5 c 128,-1,22
 480 -290 480 -290 506 -290 c 0,23,24
 548 -290 548 -290 570 -273 c 128,-1,25
 592 -256 592 -256 592 -226 c 0,26,27
 592 -203 592 -203 574.5 -185.5 c 128,-1,28
 557 -168 557 -168 506 -168 c 0,29,30
 494 -168 494 -168 481.5 -169 c 128,-1,31
 469 -170 469 -170 458 -172 c 0,32,33
 444 -175 444 -175 436.5 -173 c 128,-1,34
 429 -171 429 -171 418 -162 c 2,35,-1
 416 -160 l 2,36,37
 399 -146 399 -146 410 -126 c 2,38,-1
 468 -18 l 1,39,40
 366 -10 366 -10 294 34.5 c 128,-1,41
 222 79 222 79 176 146.5 c 128,-1,42
 130 214 130 214 109 299 c 128,-1,43
 88 384 88 384 88 474 c 0,44,45
 88 537 88 537 98.5 599 c 128,-1,46
 109 661 109 661 132 717 c 128,-1,47
 155 773 155 773 190 821.5 c 128,-1,48
 225 870 225 870 274 905 c 128,-1,49
 323 940 323 940 386.5 960 c 128,-1,50
 450 980 450 980 530 980 c 0,51,52
 604 980 604 980 674.5 960.5 c 128,-1,53
 745 941 745 941 802 896 c 0,54,55
 828 873 828 873 810 844 c 2,56,-1
 774 790 l 2,57,58
 763 773 763 773 753 771.5 c 128,-1,59
 743 770 743 770 728 782 c 0,60,61
 686 817 686 817 635 832.5 c 128,-1,62
 584 848 584 848 528 848 c 0,63,64
 452 848 452 848 399 818.5 c 128,-1,65
 346 789 346 789 313 738.5 c 128,-1,66
 280 688 280 688 265 621 c 128,-1,67
 250 554 250 554 250 478 c 0,68,69
 250 403 250 403 264.5 336.5 c 128,-1,70
 279 270 279 270 311.5 220 c 128,-1,71
 344 170 344 170 395 141 c 128,-1,72
 446 112 446 112 520 112 c 0,73,74
 571 112 571 112 626 128 c 128,-1,75
 681 144 681 144 728 182 c 0,76,77
 743 194 743 194 753.5 192.5 c 128,-1,78
 764 191 764 191 776 174 c 2,79,-1
 810 124 l 2,80,81
 829 93 829 93 802 72 c 0,82,83
 751 30 751 30 686 8.5 c 128,-1,84
 621 -13 621 -13 550 -18 c 1,85,-1
 506 -102 l 1,0,1
EndSplineSet
Validated: 1
EndChar

StartChar: eth
Encoding: 240 240 178
Width: 1060
GlyphClass: 2
Flags: W
LayerCount: 2
Fore
SplineSet
250 480 m 256,0,1
 250 406 250 406 265.5 338 c 128,-1,2
 281 270 281 270 315 218 c 128,-1,3
 349 166 349 166 402 135 c 128,-1,4
 455 104 455 104 530 104 c 256,5,6
 605 104 605 104 658 135 c 128,-1,7
 711 166 711 166 745 218 c 128,-1,8
 779 270 779 270 794.5 338 c 128,-1,9
 810 406 810 406 810 480 c 256,10,11
 810 554 810 554 794.5 622 c 128,-1,12
 779 690 779 690 745 742 c 128,-1,13
 711 794 711 794 658 825 c 128,-1,14
 605 856 605 856 530 856 c 256,15,16
 455 856 455 856 402 825 c 128,-1,17
 349 794 349 794 315 742 c 128,-1,18
 281 690 281 690 265.5 622 c 128,-1,19
 250 554 250 554 250 480 c 256,0,1
626 1262 m 1,20,21
 705 1199 705 1199 769 1120 c 128,-1,22
 833 1041 833 1041 878 948.5 c 128,-1,23
 923 856 923 856 947.5 751.5 c 128,-1,24
 972 647 972 647 972 532 c 0,25,26
 972 419 972 419 947 318.5 c 128,-1,27
 922 218 922 218 868 143 c 128,-1,28
 814 68 814 68 730 24 c 128,-1,29
 646 -20 646 -20 528 -20 c 0,30,31
 412 -20 412 -20 328.5 22 c 128,-1,32
 245 64 245 64 191.5 133.5 c 128,-1,33
 138 203 138 203 113 293 c 128,-1,34
 88 383 88 383 88 478 c 0,35,36
 88 575 88 575 114 665.5 c 128,-1,37
 140 756 140 756 193 826 c 128,-1,38
 246 896 246 896 327.5 938 c 128,-1,39
 409 980 409 980 520 980 c 0,40,41
 570 980 570 980 609 971 c 128,-1,42
 648 962 648 962 679.5 945.5 c 128,-1,43
 711 929 711 929 737 905 c 128,-1,44
 763 881 763 881 786 852 c 1,45,46
 736 958 736 958 672 1040 c 128,-1,47
 608 1122 608 1122 520 1190 c 1,48,-1
 350 1072 l 2,49,50
 337 1062 337 1062 322 1062 c 0,51,52
 309 1062 309 1062 298 1078 c 2,53,-1
 272 1114 l 2,54,55
 264 1125 264 1125 264 1136 c 0,56,57
 264 1150 264 1150 284 1164 c 2,58,-1
 416 1256 l 1,59,60
 371 1282 371 1282 321.5 1303 c 128,-1,61
 272 1324 272 1324 218 1342 c 0,62,63
 192 1351 192 1351 192 1368 c 0,64,65
 192 1374 192 1374 198 1392 c 2,66,-1
 206 1414 l 2,67,68
 215 1442 215 1442 240 1442 c 0,69,70
 243 1442 243 1442 247 1441.5 c 128,-1,71
 251 1441 251 1441 262 1438 c 0,72,73
 330 1420 330 1420 397 1393.5 c 128,-1,74
 464 1367 464 1367 526 1332 c 1,75,-1
 674 1434 l 2,76,77
 687 1444 687 1444 702 1444 c 0,78,79
 715 1444 715 1444 726 1428 c 2,80,-1
 752 1392 l 2,81,82
 760 1381 760 1381 760 1370 c 0,83,84
 760 1356 760 1356 740 1342 c 2,85,-1
 626 1262 l 1,20,21
EndSplineSet
Validated: 1
EndChar

StartChar: divide
Encoding: 247 247 185
Width: 1064
GlyphClass: 2
Flags: W
LayerCount: 2
Fore
SplineSet
132 416 m 2,0,1
 112 416 112 416 104 424 c 128,-1,2
 96 432 96 432 96 452 c 2,3,-1
 96 508 l 2,4,5
 96 528 96 528 104 536 c 128,-1,6
 112 544 112 544 132 544 c 2,7,-1
 932 544 l 2,8,9
 952 544 952 544 960 536 c 128,-1,10
 968 528 968 528 968 508 c 2,11,-1
 968 452 l 2,12,13
 968 432 968 432 960 424 c 128,-1,14
 952 416 952 416 932 416 c 2,15,-1
 132 416 l 2,0,1
648 102 m 256,16,17
 648 52 648 52 616.5 18 c 128,-1,18
 585 -16 585 -16 532 -16 c 256,19,20
 479 -16 479 -16 447.5 18 c 128,-1,21
 416 52 416 52 416 102 c 256,22,23
 416 152 416 152 447.5 186 c 128,-1,24
 479 220 479 220 532 220 c 256,25,26
 585 220 585 220 616.5 186 c 128,-1,27
 648 152 648 152 648 102 c 256,16,17
648 858 m 256,28,29
 648 808 648 808 616.5 774 c 128,-1,30
 585 740 585 740 532 740 c 256,31,32
 479 740 479 740 447.5 774 c 128,-1,33
 416 808 416 808 416 858 c 256,34,35
 416 908 416 908 447.5 942 c 128,-1,36
 479 976 479 976 532 976 c 256,37,38
 585 976 585 976 616.5 942 c 128,-1,39
 648 908 648 908 648 858 c 256,28,29
EndSplineSet
Validated: 1
EndChar

StartChar: oslash
Encoding: 248 248 186
Width: 1068
GlyphClass: 2
Flags: W
LayerCount: 2
Fore
SplineSet
976 480 m 0,0,1
 976 383 976 383 950 293 c 128,-1,2
 924 203 924 203 870 133.5 c 128,-1,3
 816 64 816 64 732.5 22 c 128,-1,4
 649 -20 649 -20 534 -20 c 0,5,6
 462 -20 462 -20 402.5 -4.5 c 128,-1,7
 343 11 343 11 296 40 c 1,8,-1
 232 -50 l 2,9,10
 221 -67 221 -67 208.5 -73.5 c 128,-1,11
 196 -80 196 -80 176 -80 c 2,12,-1
 114 -80 l 2,13,14
 97 -80 97 -80 93 -72 c 128,-1,15
 89 -64 89 -64 98 -50 c 2,16,-1
 212 112 l 1,17,18
 149 183 149 183 120.5 278.5 c 128,-1,19
 92 374 92 374 92 480 c 0,20,21
 92 577 92 577 117.5 667 c 128,-1,22
 143 757 143 757 197 826.5 c 128,-1,23
 251 896 251 896 334.5 938 c 128,-1,24
 418 980 418 980 534 980 c 0,25,26
 606 980 606 980 664.5 964 c 128,-1,27
 723 948 723 948 770 918 c 1,28,-1
 836 1010 l 2,29,30
 847 1027 847 1027 859.5 1033.5 c 128,-1,31
 872 1040 872 1040 892 1040 c 2,32,-1
 954 1040 l 2,33,34
 971 1040 971 1040 975 1032 c 128,-1,35
 979 1024 979 1024 970 1010 c 2,36,-1
 856 846 l 1,37,38
 918 775 918 775 947 679.5 c 128,-1,39
 976 584 976 584 976 480 c 0,0,1
374 154 m 1,40,41
 406 130 406 130 445 117 c 128,-1,42
 484 104 484 104 534 104 c 0,43,44
 609 104 609 104 662 135 c 128,-1,45
 715 166 715 166 749 218 c 128,-1,46
 783 270 783 270 798.5 338 c 128,-1,47
 814 406 814 406 814 480 c 0,48,49
 814 545 814 545 802 605.5 c 128,-1,50
 790 666 790 666 764 716 c 1,51,-1
 374 154 l 1,40,41
534 856 m 0,52,53
 459 856 459 856 406 825 c 128,-1,54
 353 794 353 794 319 742 c 128,-1,55
 285 690 285 690 269.5 622 c 128,-1,56
 254 554 254 554 254 480 c 0,57,58
 254 414 254 414 265 354 c 128,-1,59
 276 294 276 294 302 244 c 1,60,-1
 692 804 l 1,61,62
 660 828 660 828 621 842 c 128,-1,63
 582 856 582 856 534 856 c 0,52,53
EndSplineSet
Validated: 1
EndChar

StartChar: thorn
Encoding: 254 254 192
Width: 1070
GlyphClass: 2
Flags: W
LayerCount: 2
Fore
SplineSet
190 -400 m 2,0,1
 170 -400 170 -400 162 -392 c 128,-1,2
 154 -384 154 -384 154 -364 c 2,3,-1
 154 1400 l 2,4,5
 154 1420 154 1420 162 1428 c 128,-1,6
 170 1436 170 1436 190 1436 c 2,7,-1
 274 1436 l 2,8,9
 294 1436 294 1436 302 1428 c 128,-1,10
 310 1420 310 1420 310 1400 c 2,11,-1
 310 858 l 1,12,13
 351 914 351 914 417 947 c 128,-1,14
 483 980 483 980 578 980 c 0,15,16
 671 980 671 980 745.5 946.5 c 128,-1,17
 820 913 820 913 872.5 849 c 128,-1,18
 925 785 925 785 953.5 692.5 c 128,-1,19
 982 600 982 600 982 482 c 0,20,21
 982 365 982 365 953.5 272 c 128,-1,22
 925 179 925 179 872.5 114 c 128,-1,23
 820 49 820 49 745.5 14.5 c 128,-1,24
 671 -20 671 -20 578 -20 c 0,25,26
 527 -20 527 -20 485.5 -10 c 128,-1,27
 444 0 444 0 411 16.5 c 128,-1,28
 378 33 378 33 353 55 c 128,-1,29
 328 77 328 77 310 102 c 1,30,-1
 310 -364 l 2,31,32
 310 -384 310 -384 302 -392 c 128,-1,33
 294 -400 294 -400 274 -400 c 2,34,-1
 190 -400 l 2,0,1
310 238 m 1,35,36
 355 167 355 167 417.5 136.5 c 128,-1,37
 480 106 480 106 548 106 c 0,38,39
 609 106 609 106 659.5 129.5 c 128,-1,40
 710 153 710 153 745.5 199.5 c 128,-1,41
 781 246 781 246 800.5 316 c 128,-1,42
 820 386 820 386 820 480 c 256,43,44
 820 574 820 574 800.5 644 c 128,-1,45
 781 714 781 714 745.5 760.5 c 128,-1,46
 710 807 710 807 659.5 830.5 c 128,-1,47
 609 854 609 854 548 854 c 0,48,49
 480 854 480 854 417.5 823.5 c 128,-1,50
 355 793 355 793 310 722 c 1,51,-1
 310 238 l 1,35,36
EndSplineSet
Validated: 1
EndChar

StartChar: Aogonek
Encoding: 260 260 198
Width: 1218
GlyphClass: 2
Flags: W
LayerCount: 2
Fore
SplineSet
870 -224 m 0,0,1
 870 -168 870 -168 905 -115 c 128,-1,2
 940 -62 940 -62 1000 0 c 1,3,4
 983 58 983 58 969 107 c 128,-1,5
 955 156 955 156 942.5 199 c 128,-1,6
 930 242 930 242 918.5 281 c 128,-1,7
 907 320 907 320 896 360 c 1,8,-1
 314 360 l 1,9,10
 290 280 290 280 267.5 201.5 c 128,-1,11
 245 123 245 123 220 30 c 0,12,13
 215 12 215 12 205.5 6 c 128,-1,14
 196 0 196 0 176 0 c 2,15,-1
 86 0 l 2,16,17
 56 0 56 0 56 20 c 0,18,19
 56 26 56 26 57 31.5 c 128,-1,20
 58 37 58 37 60 42 c 0,21,22
 163 391 163 391 275.5 703.5 c 128,-1,23
 388 1016 388 1016 520 1292 c 0,24,25
 529 1310 529 1310 540.5 1317 c 128,-1,26
 552 1324 552 1324 572 1324 c 2,27,-1
 644 1324 l 2,28,29
 664 1324 664 1324 675.5 1317 c 128,-1,30
 687 1310 687 1310 696 1292 c 0,31,32
 823 1023 823 1023 940.5 708 c 128,-1,33
 1058 393 1058 393 1156 50 c 0,34,35
 1159 39 1159 39 1160.5 34 c 128,-1,36
 1162 29 1162 29 1162 24 c 0,37,38
 1162 0 1162 0 1130 0 c 2,39,-1
 1088 0 l 1,40,41
 1040 -63 1040 -63 1015 -106.5 c 128,-1,42
 990 -150 990 -150 990 -192 c 0,43,44
 990 -237 990 -237 1015 -257.5 c 128,-1,45
 1040 -278 1040 -278 1076 -278 c 0,46,47
 1109 -278 1109 -278 1144 -262 c 0,48,49
 1164 -253 1164 -253 1174 -255.5 c 128,-1,50
 1184 -258 1184 -258 1196 -276 c 2,51,-1
 1202 -286 l 2,52,53
 1211 -300 1211 -300 1209 -312.5 c 128,-1,54
 1207 -325 1207 -325 1192 -334 c 0,55,56
 1134 -374 1134 -374 1052 -374 c 0,57,58
 1011 -374 1011 -374 977.5 -363 c 128,-1,59
 944 -352 944 -352 920 -332.5 c 128,-1,60
 896 -313 896 -313 883 -285.5 c 128,-1,61
 870 -258 870 -258 870 -224 c 0,0,1
852 492 m 1,62,63
 793 675 793 675 731 839.5 c 128,-1,64
 669 1004 669 1004 604 1152 c 1,65,66
 539 1004 539 1004 478 839.5 c 128,-1,67
 417 675 417 675 358 492 c 1,68,-1
 852 492 l 1,62,63
EndSplineSet
Validated: 1
EndChar

StartChar: aogonek
Encoding: 261 261 199
Width: 1010
GlyphClass: 2
Flags: W
LayerCount: 2
Fore
SplineSet
582 -224 m 0,0,1
 582 -168 582 -168 617 -115 c 128,-1,2
 652 -62 652 -62 712 0 c 1,3,-1
 712 122 l 1,4,5
 692 96 692 96 665.5 71 c 128,-1,6
 639 46 639 46 603 25.5 c 128,-1,7
 567 5 567 5 520.5 -7.5 c 128,-1,8
 474 -20 474 -20 414 -20 c 0,9,10
 336 -20 336 -20 276 2 c 128,-1,11
 216 24 216 24 175.5 63 c 128,-1,12
 135 102 135 102 114.5 155 c 128,-1,13
 94 208 94 208 94 270 c 0,14,15
 94 333 94 333 116.5 387 c 128,-1,16
 139 441 139 441 186 481 c 128,-1,17
 233 521 233 521 305 543.5 c 128,-1,18
 377 566 377 566 476 566 c 0,19,20
 547 566 547 566 605 555.5 c 128,-1,21
 663 545 663 545 702 528 c 1,22,-1
 702 608 l 2,23,24
 702 652 702 652 693.5 695 c 128,-1,25
 685 738 685 738 660.5 772 c 128,-1,26
 636 806 636 806 591.5 827 c 128,-1,27
 547 848 547 848 476 848 c 0,28,29
 410 848 410 848 343.5 828.5 c 128,-1,30
 277 809 277 809 226 768 c 0,31,32
 209 756 209 756 198.5 757.5 c 128,-1,33
 188 759 188 759 176 776 c 2,34,-1
 144 822 l 2,35,36
 125 853 125 853 152 874 c 0,37,38
 214 925 214 925 301.5 952.5 c 128,-1,39
 389 980 389 980 490 980 c 0,40,41
 587 980 587 980 657 954.5 c 128,-1,42
 727 929 727 929 771.5 883 c 128,-1,43
 816 837 816 837 837 773 c 128,-1,44
 858 709 858 709 858 632 c 2,45,-1
 858 36 l 2,46,47
 858 16 858 16 850 8 c 128,-1,48
 842 0 842 0 822 0 c 2,49,-1
 800 0 l 1,50,51
 752 -63 752 -63 727 -106.5 c 128,-1,52
 702 -150 702 -150 702 -192 c 0,53,54
 702 -237 702 -237 727 -257.5 c 128,-1,55
 752 -278 752 -278 788 -278 c 0,56,57
 821 -278 821 -278 856 -262 c 0,58,59
 876 -253 876 -253 886 -255.5 c 128,-1,60
 896 -258 896 -258 908 -276 c 2,61,-1
 914 -286 l 2,62,63
 923 -300 923 -300 921 -312.5 c 128,-1,64
 919 -325 919 -325 904 -334 c 0,65,66
 846 -374 846 -374 764 -374 c 0,67,68
 723 -374 723 -374 689.5 -363 c 128,-1,69
 656 -352 656 -352 632 -332.5 c 128,-1,70
 608 -313 608 -313 595 -285.5 c 128,-1,71
 582 -258 582 -258 582 -224 c 0,0,1
440 106 m 0,72,73
 515 106 515 106 583 138 c 128,-1,74
 651 170 651 170 702 244 c 1,75,-1
 702 414 l 1,76,77
 682 423 682 423 656 429 c 128,-1,78
 630 435 630 435 602 439 c 128,-1,79
 574 443 574 443 546 444.5 c 128,-1,80
 518 446 518 446 496 446 c 0,81,82
 428 446 428 446 381.5 433 c 128,-1,83
 335 420 335 420 306.5 397.5 c 128,-1,84
 278 375 278 375 265 343 c 128,-1,85
 252 311 252 311 252 274 c 0,86,87
 252 244 252 244 260.5 214 c 128,-1,88
 269 184 269 184 290.5 160 c 128,-1,89
 312 136 312 136 348 121 c 128,-1,90
 384 106 384 106 440 106 c 0,72,73
EndSplineSet
Validated: 1
EndChar

